<?xml version="1.0" encoding="UTF-8" standalone="no"?>
<!-- Created with Inkscape (http://www.inkscape.org/) -->

<svg
   width="37.292881mm"
   height="30.956543mm"
   viewBox="0 0 132.14013 109.68854"
   id="svg23693"
   version="1.1"
   inkscape:version="1.3.2 (091e20e, 2023-11-25)"
   sodipodi:docname="ness_new.svg"
   xml:space="preserve"
   xmlns:inkscape="http://www.inkscape.org/namespaces/inkscape"
   xmlns:sodipodi="http://sodipodi.sourceforge.net/DTD/sodipodi-0.dtd"
   xmlns="http://www.w3.org/2000/svg"
   xmlns:svg="http://www.w3.org/2000/svg"
   xmlns:rdf="http://www.w3.org/1999/02/22-rdf-syntax-ns#"
   xmlns:cc="http://creativecommons.org/ns#"
   xmlns:dc="http://purl.org/dc/elements/1.1/"><sodipodi:namedview
     id="base"
     pagecolor="#ffffff"
     bordercolor="#666666"
     borderopacity="1.0"
     inkscape:pageopacity="0.0"
     inkscape:pageshadow="2"
     inkscape:zoom="1.5117343"
     inkscape:cx="88.639918"
     inkscape:cy="-29.436391"
     inkscape:document-units="px"
     inkscape:current-layer="layer1"
     showgrid="false"
     fit-margin-top="0"
     fit-margin-left="0"
     fit-margin-right="0"
     fit-margin-bottom="0"
     inkscape:window-width="1368"
     inkscape:window-height="770"
     inkscape:window-x="59"
     inkscape:window-y="27"
     inkscape:window-maximized="0"
     inkscape:showpageshadow="2"
     inkscape:pagecheckerboard="0"
     inkscape:deskcolor="#d1d1d1"
     showguides="true"><sodipodi:guide
       position="82.784081,159.94562"
       orientation="0,-1"
       id="guide18"
       inkscape:locked="false" /></sodipodi:namedview><defs
     id="defs23695" /><metadata
     id="metadata23698"><rdf:RDF><cc:Work
         rdf:about=""><dc:format>image/svg+xml</dc:format><dc:type
           rdf:resource="http://purl.org/dc/dcmitype/StillImage" /></cc:Work></rdf:RDF></metadata><g
     inkscape:label="Layer 1"
     inkscape:groupmode="layer"
     id="layer1"
     transform="translate(-305.44107,-660.21033)"><path
       style="fill:#cccccc;fill-opacity:1;stroke:none;stroke-width:0.322942;stroke-miterlimit:3.9;stroke-dasharray:none"
       d="m 316.64989,751.53057 v -27.13853 l 0.58139,0.10805 c 0.92156,0.17128 2.43821,0.72795 4.59548,1.68673 3.89368,1.73051 5.64285,2.12422 8.02703,1.80679 1.7462,-0.23249 2.64768,-0.52942 5.75333,-1.89503 3.33958,-1.46848 4.42781,-1.75291 6.31017,-1.64929 1.67369,0.0921 2.55092,0.36212 5.64564,1.73753 3.82669,1.70073 5.81297,2.14446 8.13165,1.81655 1.58435,-0.22405 2.62267,-0.57418 5.64871,-1.90479 3.33958,-1.46848 4.42781,-1.75291 6.31018,-1.64929 1.68072,0.0925 2.53344,0.35634 5.74002,1.77587 2.54644,1.1273 3.74934,1.52912 5.27092,1.7607 2.37648,0.3617 4.25143,-0.0486 8.22343,-1.79954 3.53392,-1.55783 4.59713,-1.84188 6.50179,-1.73703 1.67942,0.0924 2.57407,0.36709 5.66251,1.73827 2.59765,1.15328 3.81123,1.5629 5.30274,1.78985 2.42996,0.36975 4.26995,-0.0288 8.2905,-1.79601 2.92467,-1.28549 4.46686,-1.77531 5.58949,-1.77531 h 0.73955 v 27.1315 18.36128 l -51.16227,-0.43851 -51.16226,0.21926 z"
       id="path3"
       sodipodi:nodetypes="ccsssscssscssscsscscccccc" /><path
       style="fill:#aaeeff;fill-opacity:1;stroke:none;stroke-width:0.645885;stroke-miterlimit:3.9;stroke-dasharray:none"
       d="m 338.21305,741.19287 c -3.46851,-0.68117 -7.78445,-3.70155 -9.51923,-6.66173 -2.84802,-4.85977 -2.69478,-10.89309 0.3949,-15.54788 2.32503,-3.50282 6.18372,-5.78185 10.66085,-6.29656 1.46237,-0.16812 12.93915,-0.30252 26.0265,-0.30479 l 23.41062,-0.004 5.86412,-15.88961 c 3.22528,-8.73928 6.93782,-18.81982 8.25012,-22.40117 2.94121,-8.02685 3.89286,-9.94545 5.73925,-11.5707 1.93798,-1.70588 3.9755,-2.35082 7.27801,-2.30371 5.30265,0.0757 13.07648,3.22164 16.62615,6.72844 2.05193,2.02715 3.13349,4.19199 2.786,5.57646 -0.28996,1.15534 -1.89076,2.83341 -3.39981,3.56393 -1.75634,0.85023 -3.67007,0.81847 -8.07537,-0.13398 -4.40193,-0.95172 -5.33288,-0.96319 -8.12727,-0.10006 l -2.20579,0.68132 -7.44273,21.72465 -7.13267,23.89517 -29.78185,-2.01548 -29.47178,0.15504 -1.3444,0.93214 c -4.12063,2.85705 -4.02054,9.52366 0.1815,12.08947 l 1.68094,0.23406 28.70635,0.006 28.5513,-0.0712 0.15504,4.48983 v 3.55962 l -29.22451,-0.034 c -16.07347,-0.0187 -29.83728,-0.15431 -30.58624,-0.3014 z"
       id="path11"
       sodipodi:nodetypes="csssccccscssssscccccsscccccscc" /><path
       style="fill:none;fill-opacity:1;stroke:#000000;stroke-width:1.95281;stroke-miterlimit:3.9;stroke-dasharray:none"
       d="m 398.08001,733.08674 h -56.7436 c -8.39138,-0.20734 -7.63408,-12.10907 0,-12.0929 h 57.05367 l 15.19364,-44.34063"
       id="path8"
       sodipodi:nodetypes="ccccc" /><text
       xml:space="preserve"
       style="font-size:20px;line-height:1;font-family:sans-serif;-inkscape-font-specification:sans-serif;text-align:center;text-anchor:middle;fill:#e9c6af;fill-opacity:1;stroke:none;stroke-width:1.95281;stroke-miterlimit:3.9;stroke-dasharray:none"
       x="380.1127"
       y="652.74133"
       id="text11"><tspan
         sodipodi:role="line"
         id="tspan11"
         style="stroke-width:1.95281"
         x="380.1127"
         y="652.74133" /></text><text
       xml:space="preserve"
       style="font-style:italic;font-variant:normal;font-weight:normal;font-stretch:normal;font-size:27.0739px;line-height:1;font-family:STIXGeneral;-inkscape-font-specification:'STIXGeneral Italic';text-align:center;text-anchor:middle;fill:#000000;fill-opacity:1;stroke:none;stroke-width:2.64351;stroke-miterlimit:3.9;stroke-dasharray:none"
       x="-657.45551"
       y="451.28635"
       id="text12"
       transform="rotate(-88.320756)"><tspan
         sodipodi:role="line"
         id="tspan12"
         style="font-style:italic;font-variant:normal;font-weight:normal;font-stretch:normal;font-family:STIXGeneral;-inkscape-font-specification:'STIXGeneral Italic';fill:#000000;stroke:none;stroke-width:2.64351"
         x="-657.45551"
         y="451.28635">β</tspan></text><circle
       style="fill:#000000;fill-opacity:1;stroke:none;stroke-width:4.88203;stroke-miterlimit:3.9;stroke-dasharray:none"
       id="circle12"
       cx="425.93713"
       cy="669.95294"
       r="1.6444175" /><circle
       style="fill:#000000;fill-opacity:1;stroke:none;stroke-width:4.88203;stroke-miterlimit:3.9;stroke-dasharray:none"
       id="circle13"
       cx="417.27652"
       cy="667.43152"
       r="1.6444175" /><path
       style="fill:none;fill-opacity:1;stroke:#aaeeff;stroke-width:1.875;stroke-miterlimit:3.9;stroke-dasharray:none;stroke-opacity:1"
       d="m 314.03775,706.84359 c -0.10551,0.66888 0.0804,1.0637 0.61067,1.13296 0.53107,0.0702 1.39326,-0.1728 2.27215,-0.42979 0.87888,-0.25701 1.74113,-0.50001 2.27213,-0.42981 0.53023,0.0693 0.71617,0.46407 0.61069,1.13297 -0.10634,0.66799 -0.48241,1.59143 -0.76924,2.42922 -0.28593,0.83861 -0.45137,1.56392 -0.25145,1.94387 0.20075,0.38085 0.77136,0.41214 1.55662,0.24324 0.78522,-0.1689 1.75673,-0.51468 2.54036,-0.68207 0.78279,-0.16829 1.35107,-0.13313 1.54882,0.25053 0.19697,0.38273 0.0289,1.11045 -0.25875,1.94905 -0.28684,0.83945 -0.66192,1.76196 -0.76593,2.42781 -0.10321,0.66678 0.0853,1.05743 0.6191,1.12503 0.53379,0.0676 1.39786,-0.17714 2.27674,-0.43413 0.87894,-0.25704 1.73921,-0.49821 2.26755,-0.42548 0.52748,0.0719 0.70996,0.46989 0.6022,1.14095 -0.10855,0.67012 -0.48565,1.59447 -0.7716,2.43144"
       title="sin(4*x)"
       id="path13"
       sodipodi:nodetypes="ccscccccccccccccc" /><circle
       style="fill:none;fill-opacity:1;stroke:#aaeeff;stroke-width:1.875;stroke-miterlimit:3.9;stroke-dasharray:none;stroke-opacity:1"
       id="path14"
       cx="311.10721"
       cy="702.4657"
       r="4.7286339" /><text
       xml:space="preserve"
       style="font-style:italic;font-variant:normal;font-weight:normal;font-stretch:normal;font-size:15px;line-height:1;font-family:STIXGeneral;-inkscape-font-specification:'STIXGeneral Italic';text-align:center;text-anchor:middle;fill:#000000;fill-opacity:1;stroke:none;stroke-width:1.875;stroke-miterlimit:3.9;stroke-dasharray:none;stroke-opacity:1"
       x="347.22211"
       y="752.16608"
       id="text14"><tspan
         sodipodi:role="line"
         id="tspan14"
         style="font-size:15px;fill:#000000;stroke:none;stroke-width:1.875"
         x="347.22211"
         y="752.16608">t</tspan></text><text
       xml:space="preserve"
       style="font-style:italic;font-variant:normal;font-weight:normal;font-stretch:normal;font-size:15px;line-height:1;font-family:STIXGeneral;-inkscape-font-specification:'STIXGeneral Italic';text-align:center;text-anchor:middle;fill:#000000;fill-opacity:1;stroke:none;stroke-width:1.875;stroke-miterlimit:3.9;stroke-dasharray:none;stroke-opacity:1"
       x="382.72107"
       y="753.04309"
       id="text15"><tspan
         sodipodi:role="line"
         id="tspan15"
         style="font-size:15px;fill:#000000;stroke:none;stroke-width:1.875"
         x="382.72107"
         y="753.04309">t'</tspan></text><text
       xml:space="preserve"
       style="font-style:normal;font-variant:normal;font-weight:normal;font-stretch:normal;font-size:15px;line-height:1;font-family:Sans;-inkscape-font-specification:Sans;text-align:center;text-anchor:middle;fill:#000000;fill-opacity:1;stroke:none;stroke-width:1.875;stroke-miterlimit:3.9;stroke-dasharray:none;stroke-opacity:1"
       x="341.36566"
       y="768.06989"
       id="text16"><tspan
         sodipodi:role="line"
         id="tspan16"
         style="font-style:normal;font-variant:normal;font-weight:normal;font-stretch:normal;font-family:Sans;-inkscape-font-specification:Sans;stroke-width:1.875"
         x="344.00238"
         y="768.06989"><tspan
   style="font-style:normal;font-variant:normal;font-weight:bold;font-stretch:normal;font-family:Sans;-inkscape-font-specification:'Sans Bold'"
   id="tspan17">NESSi</tspan> </tspan></text><text
       xml:space="preserve"
       style="font-style:normal;font-variant:normal;font-weight:normal;font-stretch:normal;font-size:10px;line-height:1;font-family:Sans;-inkscape-font-specification:Sans;text-align:center;text-anchor:middle;fill:#000000;fill-opacity:1;stroke:none;stroke-width:1.875;stroke-miterlimit:3.9;stroke-dasharray:none;stroke-opacity:1"
       x="375.50833"
       y="768.28906"
       id="text18"><tspan
         sodipodi:role="line"
         id="tspan18"
         style="font-style:normal;font-variant:normal;font-weight:normal;font-stretch:normal;font-size:10px;font-family:Sans;-inkscape-font-specification:Sans;stroke-width:1.875"
         x="375.50833"
         y="768.28906">2.0</tspan></text></g></svg>
