<?xml version="1.0" encoding="UTF-8" standalone="no"?>
<!-- Created with Inkscape (http://www.inkscape.org/) -->

<svg
   xmlns:dc="http://purl.org/dc/elements/1.1/"
   xmlns:cc="http://creativecommons.org/ns#"
   xmlns:rdf="http://www.w3.org/1999/02/22-rdf-syntax-ns#"
   xmlns:svg="http://www.w3.org/2000/svg"
   xmlns="http://www.w3.org/2000/svg"
   xmlns:xlink="http://www.w3.org/1999/xlink"
   xmlns:sodipodi="http://sodipodi.sourceforge.net/DTD/sodipodi-0.dtd"
   xmlns:inkscape="http://www.inkscape.org/namespaces/inkscape"
   width="210mm"
   height="297mm"
   viewBox="0 0 744.09448819 1052.3622047"
   id="svg2"
   version="1.1"
   inkscape:version="0.91 r13725"
   sodipodi:docname="diagrams.svg">
  <defs
     id="defs4">
    <g
       id="g4185">
      <symbol
         id="glyph0-0"
         overflow="visible">
        <path
           id="path4188"
           d=""
           style="stroke:none;" />
      </symbol>
      <symbol
         id="glyph0-1"
         overflow="visible">
        <path
           id="path4191"
           d="M 5.9375 -6.03125 C 5.65625 -6.609375 5.203125 -7.046875 4.484375 -7.046875 C 2.609375 -7.046875 0.640625 -4.703125 0.640625 -2.375 C 0.640625 -0.875 1.515625 0.171875 2.75 0.171875 C 3.078125 0.171875 3.875 0.109375 4.828125 -1.015625 C 4.953125 -0.34375 5.515625 0.171875 6.28125 0.171875 C 6.84375 0.171875 7.203125 -0.1875 7.453125 -0.703125 C 7.734375 -1.28125 7.9375 -2.25 7.9375 -2.28125 C 7.9375 -2.4375 7.796875 -2.4375 7.75 -2.4375 C 7.59375 -2.4375 7.578125 -2.375 7.515625 -2.15625 C 7.25 -1.109375 6.96875 -0.171875 6.3125 -0.171875 C 5.875 -0.171875 5.828125 -0.59375 5.828125 -0.90625 C 5.828125 -1.265625 5.859375 -1.390625 6.046875 -2.09375 C 6.21875 -2.75 6.25 -2.921875 6.390625 -3.515625 L 6.96875 -5.75 C 7.078125 -6.203125 7.078125 -6.234375 7.078125 -6.296875 C 7.078125 -6.5625 6.890625 -6.71875 6.609375 -6.71875 C 6.234375 -6.71875 6 -6.375 5.9375 -6.03125 Z M 4.90625 -1.890625 C 4.828125 -1.609375 4.828125 -1.578125 4.59375 -1.3125 C 3.890625 -0.4375 3.234375 -0.171875 2.796875 -0.171875 C 2 -0.171875 1.765625 -1.046875 1.765625 -1.671875 C 1.765625 -2.46875 2.28125 -4.4375 2.640625 -5.15625 C 3.140625 -6.109375 3.859375 -6.6875 4.5 -6.6875 C 5.53125 -6.6875 5.75 -5.390625 5.75 -5.296875 C 5.75 -5.203125 5.71875 -5.09375 5.703125 -5.015625 Z M 4.90625 -1.890625 "
           style="stroke:none;" />
      </symbol>
      <symbol
         id="glyph0-2"
         overflow="visible">
        <path
           id="path4194"
           d="M 3.8125 -10.890625 C 3.8125 -10.90625 3.8125 -11.0625 3.609375 -11.0625 C 3.234375 -11.0625 2.078125 -10.9375 1.65625 -10.90625 C 1.53125 -10.890625 1.359375 -10.875 1.359375 -10.578125 C 1.359375 -10.390625 1.5 -10.390625 1.734375 -10.390625 C 2.5 -10.390625 2.53125 -10.28125 2.53125 -10.125 C 2.53125 -10.015625 2.390625 -9.46875 2.3125 -9.125 L 1 -3.9375 C 0.8125 -3.140625 0.75 -2.890625 0.75 -2.328125 C 0.75 -0.8125 1.59375 0.171875 2.765625 0.171875 C 4.65625 0.171875 6.609375 -2.203125 6.609375 -4.5 C 6.609375 -5.9375 5.765625 -7.046875 4.5 -7.046875 C 3.765625 -7.046875 3.109375 -6.578125 2.625 -6.09375 Z M 2.3125 -4.859375 C 2.40625 -5.21875 2.40625 -5.25 2.546875 -5.421875 C 3.328125 -6.453125 4.046875 -6.6875 4.46875 -6.6875 C 5.03125 -6.6875 5.46875 -6.21875 5.46875 -5.203125 C 5.46875 -4.25 4.9375 -2.421875 4.65625 -1.8125 C 4.125 -0.75 3.390625 -0.171875 2.765625 -0.171875 C 2.234375 -0.171875 1.703125 -0.609375 1.703125 -1.78125 C 1.703125 -2.09375 1.703125 -2.390625 1.953125 -3.390625 Z M 2.3125 -4.859375 "
           style="stroke:none;" />
      </symbol>
      <symbol
         id="glyph0-3"
         overflow="visible">
        <path
           id="path4197"
           d="M 6.3125 -6.0625 C 6.0625 -6.0625 5.828125 -6.0625 5.609375 -5.828125 C 5.359375 -5.59375 5.328125 -5.328125 5.328125 -5.21875 C 5.328125 -4.828125 5.609375 -4.65625 5.90625 -4.65625 C 6.375 -4.65625 6.8125 -5.03125 6.8125 -5.671875 C 6.8125 -6.453125 6.0625 -7.046875 4.921875 -7.046875 C 2.765625 -7.046875 0.65625 -4.765625 0.65625 -2.515625 C 0.65625 -1.078125 1.578125 0.171875 3.234375 0.171875 C 5.515625 0.171875 6.859375 -1.515625 6.859375 -1.703125 C 6.859375 -1.796875 6.75 -1.90625 6.65625 -1.90625 C 6.578125 -1.90625 6.546875 -1.875 6.453125 -1.75 C 5.203125 -0.171875 3.453125 -0.171875 3.265625 -0.171875 C 2.265625 -0.171875 1.828125 -0.953125 1.828125 -1.90625 C 1.828125 -2.5625 2.15625 -4.109375 2.6875 -5.09375 C 3.1875 -6.015625 4.0625 -6.6875 4.9375 -6.6875 C 5.484375 -6.6875 6.09375 -6.484375 6.3125 -6.0625 Z M 6.3125 -6.0625 "
           style="stroke:none;" />
      </symbol>
      <symbol
         id="glyph0-4"
         overflow="visible">
        <path
           id="path4200"
           d="M 3.28125 -6.375 L 4.78125 -6.375 C 5.09375 -6.375 5.265625 -6.375 5.265625 -6.6875 C 5.265625 -6.875 5.09375 -6.875 4.8125 -6.875 L 3.40625 -6.875 C 3.984375 -9.125 4.0625 -9.453125 4.0625 -9.546875 C 4.0625 -9.8125 3.875 -9.984375 3.609375 -9.984375 C 3.546875 -9.984375 3.109375 -9.96875 2.96875 -9.40625 L 2.34375 -6.875 L 0.84375 -6.875 C 0.53125 -6.875 0.359375 -6.875 0.359375 -6.5625 C 0.359375 -6.375 0.5 -6.375 0.8125 -6.375 L 2.21875 -6.375 C 1.0625 -1.84375 1 -1.578125 1 -1.296875 C 1 -0.4375 1.609375 0.171875 2.46875 0.171875 C 4.09375 0.171875 5 -2.15625 5 -2.28125 C 5 -2.4375 4.875 -2.4375 4.8125 -2.4375 C 4.671875 -2.4375 4.65625 -2.390625 4.578125 -2.21875 C 3.890625 -0.5625 3.046875 -0.171875 2.5 -0.171875 C 2.171875 -0.171875 2.015625 -0.375 2.015625 -0.90625 C 2.015625 -1.296875 2.046875 -1.40625 2.109375 -1.671875 Z M 3.28125 -6.375 "
           style="stroke:none;" />
      </symbol>
      <symbol
         id="glyph0-5"
         overflow="visible">
        <path
           id="path4203"
           d="M 2.859375 -1.828125 C 2.21875 -0.765625 1.59375 -0.546875 0.890625 -0.5 C 0.703125 -0.484375 0.5625 -0.484375 0.5625 -0.171875 C 0.5625 -0.078125 0.640625 0 0.765625 0 C 1.203125 0 1.6875 -0.046875 2.140625 -0.046875 C 2.65625 -0.046875 3.21875 0 3.734375 0 C 3.828125 0 4.03125 0 4.03125 -0.296875 C 4.03125 -0.484375 3.890625 -0.5 3.78125 -0.5 C 3.40625 -0.53125 3.03125 -0.65625 3.03125 -1.046875 C 3.03125 -1.25 3.125 -1.421875 3.25 -1.640625 L 4.46875 -3.6875 L 8.46875 -3.6875 C 8.5 -3.34375 8.71875 -1.171875 8.71875 -1.015625 C 8.71875 -0.546875 7.890625 -0.5 7.578125 -0.5 C 7.34375 -0.5 7.1875 -0.5 7.1875 -0.171875 C 7.1875 0 7.375 0 7.40625 0 C 8.0625 0 8.75 -0.046875 9.40625 -0.046875 C 9.796875 -0.046875 10.8125 0 11.203125 0 C 11.296875 0 11.484375 0 11.484375 -0.3125 C 11.484375 -0.5 11.328125 -0.5 11.125 -0.5 C 10.140625 -0.5 10.140625 -0.609375 10.09375 -1.0625 L 9.109375 -11.03125 C 9.078125 -11.34375 9.078125 -11.40625 8.8125 -11.40625 C 8.5625 -11.40625 8.5 -11.296875 8.40625 -11.140625 Z M 4.765625 -4.171875 L 7.90625 -9.4375 L 8.421875 -4.171875 Z M 4.765625 -4.171875 "
           style="stroke:none;" />
      </symbol>
      <symbol
         id="glyph0-6"
         overflow="visible">
        <path
           id="path4206"
           d="M 3.234375 -0.015625 C 3.234375 -1.0625 2.84375 -1.6875 2.21875 -1.6875 C 1.6875 -1.6875 1.375 -1.296875 1.375 -0.84375 C 1.375 -0.421875 1.6875 0 2.21875 0 C 2.40625 0 2.609375 -0.0625 2.765625 -0.203125 C 2.828125 -0.234375 2.84375 -0.25 2.859375 -0.25 C 2.875 -0.25 2.890625 -0.234375 2.890625 -0.015625 C 2.890625 1.15625 2.328125 2.125 1.796875 2.640625 C 1.625 2.828125 1.625 2.859375 1.625 2.90625 C 1.625 3.015625 1.703125 3.078125 1.78125 3.078125 C 1.953125 3.078125 3.234375 1.84375 3.234375 -0.015625 Z M 3.234375 -0.015625 "
           style="stroke:none;" />
      </symbol>
      <symbol
         id="glyph0-7"
         overflow="visible">
        <path
           id="path4209"
           d="M 2.546875 -1.25 C 2.390625 -0.625 2.359375 -0.5 1.09375 -0.5 C 0.828125 -0.5 0.671875 -0.5 0.671875 -0.171875 C 0.671875 0 0.8125 0 1.09375 0 L 6.796875 0 C 9.3125 0 11.1875 -1.875 11.1875 -3.4375 C 11.1875 -4.59375 10.265625 -5.515625 8.71875 -5.6875 C 10.375 -6 12.046875 -7.171875 12.046875 -8.6875 C 12.046875 -9.859375 11 -10.890625 9.078125 -10.890625 L 3.734375 -10.890625 C 3.421875 -10.890625 3.265625 -10.890625 3.265625 -10.5625 C 3.265625 -10.390625 3.40625 -10.390625 3.71875 -10.390625 C 3.75 -10.390625 4.046875 -10.390625 4.3125 -10.359375 C 4.609375 -10.328125 4.75 -10.3125 4.75 -10.109375 C 4.75 -10.046875 4.734375 -10 4.6875 -9.796875 Z M 4.953125 -5.828125 L 5.9375 -9.78125 C 6.09375 -10.34375 6.125 -10.390625 6.8125 -10.390625 L 8.859375 -10.390625 C 10.265625 -10.390625 10.59375 -9.453125 10.59375 -8.75 C 10.59375 -7.34375 9.234375 -5.828125 7.28125 -5.828125 Z M 4.234375 -0.5 C 4.015625 -0.5 3.984375 -0.5 3.890625 -0.515625 C 3.734375 -0.53125 3.6875 -0.546875 3.6875 -0.671875 C 3.6875 -0.71875 3.6875 -0.75 3.765625 -1.03125 L 4.859375 -5.484375 L 7.875 -5.484375 C 9.40625 -5.484375 9.703125 -4.296875 9.703125 -3.625 C 9.703125 -2.046875 8.28125 -0.5 6.40625 -0.5 Z M 4.234375 -0.5 "
           style="stroke:none;" />
      </symbol>
      <symbol
         id="glyph0-8"
         overflow="visible">
        <path
           id="path4212"
           d="M 12.109375 -11.078125 C 12.109375 -11.125 12.078125 -11.234375 11.9375 -11.234375 C 11.890625 -11.234375 11.875 -11.21875 11.703125 -11.046875 L 10.578125 -9.8125 C 10.4375 -10.046875 9.703125 -11.234375 7.9375 -11.234375 C 4.390625 -11.234375 0.796875 -7.71875 0.796875 -4.015625 C 0.796875 -1.390625 2.671875 0.34375 5.109375 0.34375 C 6.5 0.34375 7.71875 -0.28125 8.5625 -1.015625 C 10.046875 -2.328125 10.3125 -3.78125 10.3125 -3.828125 C 10.3125 -3.984375 10.15625 -3.984375 10.125 -3.984375 C 10.03125 -3.984375 9.9375 -3.953125 9.90625 -3.828125 C 9.765625 -3.359375 9.40625 -2.234375 8.296875 -1.3125 C 7.203125 -0.421875 6.203125 -0.140625 5.375 -0.140625 C 3.9375 -0.140625 2.25 -0.96875 2.25 -3.453125 C 2.25 -4.359375 2.578125 -6.953125 4.171875 -8.8125 C 5.140625 -9.9375 6.640625 -10.734375 8.0625 -10.734375 C 9.6875 -10.734375 10.625 -9.515625 10.625 -7.671875 C 10.625 -7.03125 10.578125 -7.015625 10.578125 -6.859375 C 10.578125 -6.6875 10.765625 -6.6875 10.828125 -6.6875 C 11.03125 -6.6875 11.03125 -6.71875 11.109375 -7.015625 Z M 12.109375 -11.078125 "
           style="stroke:none;" />
      </symbol>
      <symbol
         id="glyph0-9"
         overflow="visible">
        <path
           id="path4215"
           d="M 10.015625 -9.0625 C 10.796875 -10.3125 11.453125 -10.359375 12.046875 -10.390625 C 12.234375 -10.40625 12.25 -10.671875 12.25 -10.6875 C 12.25 -10.828125 12.171875 -10.890625 12.046875 -10.890625 C 11.640625 -10.890625 11.171875 -10.84375 10.734375 -10.84375 C 10.21875 -10.84375 9.671875 -10.890625 9.171875 -10.890625 C 9.0625 -10.890625 8.859375 -10.890625 8.859375 -10.578125 C 8.859375 -10.40625 9 -10.390625 9.109375 -10.390625 C 9.546875 -10.359375 9.84375 -10.203125 9.84375 -9.859375 C 9.84375 -9.625 9.609375 -9.28125 9.609375 -9.265625 L 4.71875 -1.484375 L 3.640625 -9.90625 C 3.640625 -10.1875 4 -10.390625 4.734375 -10.390625 C 4.953125 -10.390625 5.125 -10.390625 5.125 -10.703125 C 5.125 -10.859375 5 -10.890625 4.90625 -10.890625 C 4.265625 -10.890625 3.59375 -10.84375 2.9375 -10.84375 C 2.640625 -10.84375 2.34375 -10.859375 2.0625 -10.859375 C 1.765625 -10.859375 1.46875 -10.890625 1.203125 -10.890625 C 1.078125 -10.890625 0.890625 -10.890625 0.890625 -10.578125 C 0.890625 -10.390625 1.03125 -10.390625 1.296875 -10.390625 C 2.1875 -10.390625 2.203125 -10.25 2.25 -9.84375 L 3.5 -0.015625 C 3.546875 0.296875 3.625 0.34375 3.828125 0.34375 C 4.078125 0.34375 4.140625 0.265625 4.265625 0.0625 Z M 10.015625 -9.0625 "
           style="stroke:none;" />
      </symbol>
      <symbol
         id="glyph1-0"
         overflow="visible">
        <path
           id="path4218"
           d=""
           style="stroke:none;" />
      </symbol>
      <symbol
         id="glyph1-1"
         overflow="visible">
        <path
           id="path4221"
           d="M 3.234375 -5.265625 C 3.328125 -5.453125 3.328125 -5.546875 3.328125 -5.625 C 3.328125 -5.96875 3.015625 -6.234375 2.671875 -6.234375 C 2.25 -6.234375 2.125 -5.890625 2.0625 -5.71875 L 0.59375 -0.875 C 0.578125 -0.859375 0.53125 -0.71875 0.53125 -0.703125 C 0.53125 -0.5625 0.875 -0.453125 0.96875 -0.453125 C 1.046875 -0.453125 1.0625 -0.484375 1.140625 -0.640625 Z M 3.234375 -5.265625 "
           style="stroke:none;" />
      </symbol>
      <symbol
         id="glyph2-0"
         overflow="visible">
        <path
           id="path4224"
           d=""
           style="stroke:none;" />
      </symbol>
      <symbol
         id="glyph2-1"
         overflow="visible">
        <path
           id="path4227"
           d="M 4.703125 -4.265625 C 4.46875 -4.625 4.09375 -4.921875 3.5625 -4.921875 C 2.125 -4.921875 0.6875 -3.34375 0.6875 -1.734375 C 0.6875 -0.65625 1.40625 0.109375 2.359375 0.109375 C 2.96875 0.109375 3.5 -0.234375 3.953125 -0.671875 C 4.15625 0 4.8125 0.109375 5.09375 0.109375 C 5.5 0.109375 5.78125 -0.140625 5.984375 -0.484375 C 6.21875 -0.921875 6.375 -1.546875 6.375 -1.59375 C 6.375 -1.734375 6.21875 -1.734375 6.1875 -1.734375 C 6.03125 -1.734375 6.03125 -1.703125 5.953125 -1.390625 C 5.8125 -0.859375 5.59375 -0.203125 5.125 -0.203125 C 4.84375 -0.203125 4.765625 -0.453125 4.765625 -0.75 C 4.765625 -0.9375 4.859375 -1.34375 4.9375 -1.625 C 5.015625 -1.9375 5.125 -2.390625 5.171875 -2.640625 L 5.40625 -3.484375 C 5.46875 -3.765625 5.59375 -4.296875 5.59375 -4.34375 C 5.59375 -4.59375 5.40625 -4.703125 5.21875 -4.703125 C 5.03125 -4.703125 4.78125 -4.578125 4.703125 -4.265625 Z M 4 -1.390625 C 3.921875 -1.078125 3.671875 -0.859375 3.421875 -0.640625 C 3.328125 -0.5625 2.875 -0.203125 2.40625 -0.203125 C 1.984375 -0.203125 1.578125 -0.484375 1.578125 -1.28125 C 1.578125 -1.875 1.90625 -3.09375 2.171875 -3.546875 C 2.671875 -4.4375 3.25 -4.609375 3.5625 -4.609375 C 4.34375 -4.609375 4.546875 -3.765625 4.546875 -3.640625 C 4.546875 -3.59375 4.53125 -3.515625 4.515625 -3.484375 Z M 4 -1.390625 "
           style="stroke:none;" />
      </symbol>
      <symbol
         id="glyph2-2"
         overflow="visible">
        <path
           id="path4230"
           d="M 2.359375 -0.171875 C 2.359375 0.4375 2.25 1.15625 1.484375 1.859375 C 1.4375 1.90625 1.40625 1.9375 1.40625 2 C 1.40625 2.078125 1.5 2.15625 1.5625 2.15625 C 1.71875 2.15625 2.671875 1.265625 2.671875 -0.0625 C 2.671875 -0.765625 2.40625 -1.28125 1.890625 -1.28125 C 1.515625 -1.28125 1.25 -1 1.25 -0.640625 C 1.25 -0.296875 1.5 0 1.890625 0 C 2.171875 0 2.34375 -0.171875 2.359375 -0.171875 Z M 2.359375 -0.171875 "
           style="stroke:none;" />
      </symbol>
      <symbol
         id="glyph2-3"
         overflow="visible">
        <path
           id="path4233"
           d="M 2.9375 -7.40625 C 2.953125 -7.4375 2.984375 -7.578125 2.984375 -7.59375 C 2.984375 -7.640625 2.9375 -7.75 2.8125 -7.75 C 2.59375 -7.75 1.65625 -7.65625 1.390625 -7.625 C 1.296875 -7.625 1.140625 -7.609375 1.140625 -7.375 C 1.140625 -7.21875 1.296875 -7.21875 1.421875 -7.21875 C 1.96875 -7.21875 1.96875 -7.140625 1.96875 -7.046875 C 1.96875 -6.96875 1.859375 -6.53125 1.78125 -6.265625 L 1.53125 -5.25 C 1.421875 -4.859375 0.8125 -2.421875 0.796875 -2.28125 C 0.734375 -2.015625 0.734375 -1.859375 0.734375 -1.734375 C 0.734375 -0.609375 1.453125 0.109375 2.375 0.109375 C 3.765625 0.109375 5.25 -1.40625 5.25 -3.0625 C 5.25 -4.359375 4.34375 -4.921875 3.578125 -4.921875 C 3 -4.921875 2.515625 -4.59375 2.171875 -4.3125 Z M 2.390625 -0.203125 C 1.84375 -0.203125 1.53125 -0.6875 1.53125 -1.34375 C 1.53125 -1.75 1.625 -2.125 1.9375 -3.390625 C 2.015625 -3.609375 2.015625 -3.625 2.21875 -3.875 C 2.640625 -4.359375 3.140625 -4.609375 3.546875 -4.609375 C 3.984375 -4.609375 4.359375 -4.28125 4.359375 -3.53125 C 4.359375 -3.0625 4.109375 -1.9375 3.78125 -1.28125 C 3.515625 -0.734375 2.953125 -0.203125 2.390625 -0.203125 Z M 2.390625 -0.203125 "
           style="stroke:none;" />
      </symbol>
      <symbol
         id="glyph2-4"
         overflow="visible">
        <path
           id="path4236"
           d="M 4.890625 -4.265625 C 4.484375 -4.203125 4.3125 -3.890625 4.3125 -3.640625 C 4.3125 -3.34375 4.546875 -3.234375 4.75 -3.234375 C 5 -3.234375 5.390625 -3.40625 5.390625 -3.953125 C 5.390625 -4.703125 4.515625 -4.921875 3.921875 -4.921875 C 2.25 -4.921875 0.6875 -3.375 0.6875 -1.828125 C 0.6875 -0.875 1.359375 0.109375 2.75 0.109375 C 4.640625 0.109375 5.515625 -1 5.515625 -1.15625 C 5.515625 -1.21875 5.421875 -1.34375 5.328125 -1.34375 C 5.265625 -1.34375 5.25 -1.3125 5.15625 -1.234375 C 4.28125 -0.203125 2.984375 -0.203125 2.78125 -0.203125 C 1.96875 -0.203125 1.625 -0.75 1.625 -1.4375 C 1.625 -1.765625 1.78125 -2.984375 2.359375 -3.75 C 2.78125 -4.296875 3.359375 -4.609375 3.921875 -4.609375 C 4.078125 -4.609375 4.609375 -4.578125 4.890625 -4.265625 Z M 4.890625 -4.265625 "
           style="stroke:none;" />
      </symbol>
      <symbol
         id="glyph3-0"
         overflow="visible">
        <path
           id="path4239"
           d=""
           style="stroke:none;" />
      </symbol>
      <symbol
         id="glyph3-1"
         overflow="visible">
        <path
           id="path4242"
           d="M 2.875 -3.703125 C 2.875 -3.71875 2.953125 -3.859375 2.953125 -3.984375 C 2.953125 -4.265625 2.6875 -4.453125 2.453125 -4.453125 C 2.125 -4.453125 2.046875 -4.203125 2 -4.09375 L 0.765625 -0.640625 C 0.734375 -0.546875 0.734375 -0.515625 0.734375 -0.515625 C 0.734375 -0.375 1.078125 -0.296875 1.078125 -0.296875 C 1.15625 -0.296875 1.171875 -0.34375 1.21875 -0.4375 Z M 2.875 -3.703125 "
           style="stroke:none;" />
      </symbol>
      <symbol
         id="glyph4-0"
         overflow="visible">
        <path
           id="path4245"
           d=""
           style="stroke:none;" />
      </symbol>
      <symbol
         id="glyph4-1"
         overflow="visible">
        <path
           id="path4248"
           d="M 5.28125 3.828125 C 5.28125 3.78125 5.28125 3.75 5 3.46875 C 3.015625 1.46875 2.5 -1.546875 2.5 -3.984375 C 2.5 -6.75 3.109375 -9.53125 5.0625 -11.515625 C 5.28125 -11.71875 5.28125 -11.75 5.28125 -11.796875 C 5.28125 -11.90625 5.21875 -11.953125 5.109375 -11.953125 C 4.953125 -11.953125 3.515625 -10.875 2.578125 -8.84375 C 1.765625 -7.09375 1.578125 -5.328125 1.578125 -3.984375 C 1.578125 -2.734375 1.75 -0.8125 2.625 0.984375 C 3.59375 2.953125 4.953125 3.984375 5.109375 3.984375 C 5.21875 3.984375 5.28125 3.9375 5.28125 3.828125 Z M 5.28125 3.828125 "
           style="stroke:none;" />
      </symbol>
      <symbol
         id="glyph4-2"
         overflow="visible">
        <path
           id="path4251"
           d="M 4.609375 -3.984375 C 4.609375 -5.234375 4.4375 -7.15625 3.546875 -8.953125 C 2.59375 -10.921875 1.234375 -11.953125 1.0625 -11.953125 C 0.96875 -11.953125 0.90625 -11.890625 0.90625 -11.796875 C 0.90625 -11.75 0.90625 -11.71875 1.21875 -11.421875 C 2.765625 -9.84375 3.6875 -7.3125 3.6875 -3.984375 C 3.6875 -1.265625 3.09375 1.546875 1.109375 3.546875 C 0.90625 3.75 0.90625 3.78125 0.90625 3.828125 C 0.90625 3.921875 0.96875 3.984375 1.0625 3.984375 C 1.234375 3.984375 2.65625 2.90625 3.609375 0.875 C 4.421875 -0.875 4.609375 -2.640625 4.609375 -3.984375 Z M 4.609375 -3.984375 "
           style="stroke:none;" />
      </symbol>
    </g>
    <g
       id="g4810">
      <symbol
         id="glyph0-0-5"
         overflow="visible">
        <path
           id="path4813"
           d=""
           style="stroke:none;" />
      </symbol>
      <symbol
         id="glyph0-1-5"
         overflow="visible">
        <path
           id="path4816"
           d="M 10.953125 -5.21875 C 11.1875 -5.21875 11.484375 -5.21875 11.484375 -5.53125 C 11.484375 -5.84375 11.1875 -5.84375 10.96875 -5.84375 L 1.421875 -5.84375 C 1.203125 -5.84375 0.890625 -5.84375 0.890625 -5.53125 C 0.890625 -5.21875 1.203125 -5.21875 1.4375 -5.21875 Z M 10.96875 -2.125 C 11.1875 -2.125 11.484375 -2.125 11.484375 -2.4375 C 11.484375 -2.75 11.1875 -2.75 10.953125 -2.75 L 1.4375 -2.75 C 1.203125 -2.75 0.890625 -2.75 0.890625 -2.4375 C 0.890625 -2.125 1.203125 -2.125 1.421875 -2.125 Z M 10.96875 -2.125 "
           style="stroke:none;" />
      </symbol>
    </g>
  </defs>
  <sodipodi:namedview
     id="base"
     pagecolor="#ffffff"
     bordercolor="#666666"
     borderopacity="1.0"
     inkscape:pageopacity="0.0"
     inkscape:pageshadow="2"
     inkscape:zoom="2.8"
     inkscape:cx="277.9196"
     inkscape:cy="857.00507"
     inkscape:document-units="px"
     inkscape:current-layer="layer1"
     showgrid="false"
     inkscape:window-width="1280"
     inkscape:window-height="751"
     inkscape:window-x="0"
     inkscape:window-y="23"
     inkscape:window-maximized="0" />
  <metadata
     id="metadata7">
    <rdf:RDF>
      <cc:Work
         rdf:about="">
        <dc:format>image/svg+xml</dc:format>
        <dc:type
           rdf:resource="http://purl.org/dc/dcmitype/StillImage" />
        <dc:title></dc:title>
      </cc:Work>
    </rdf:RDF>
  </metadata>
  <g
     inkscape:label="Layer 1"
     inkscape:groupmode="layer"
     id="layer1">
    <g
       id="g4152"
       transform="translate(190,20)">
      <path
         sodipodi:nodetypes="csc"
         inkscape:connector-curvature="0"
         id="path4148"
         d="m 51.214286,85.647917 c 0,0 22.5,-40.714285 61.785714,-40.357142 39.28572,0.357143 63.57143,40.714285 63.57143,40.714285"
         style="fill:none;fill-rule:evenodd;stroke:#000000;stroke-width:1.70000005;stroke-linecap:butt;stroke-linejoin:miter;stroke-miterlimit:4;stroke-dasharray:none;stroke-opacity:1" />
      <path
         inkscape:connector-curvature="0"
         id="path4150"
         d="m 107.85714,41.290775 8.92857,4.285714 -8.92857,3.571428"
         style="fill:none;fill-rule:evenodd;stroke:#000000;stroke-width:1px;stroke-linecap:butt;stroke-linejoin:miter;stroke-opacity:1" />
    </g>
    <g
       id="g4156"
       transform="matrix(-1,0,0,-1,417.77006,225.28334)">
      <path
         style="fill:none;fill-rule:evenodd;stroke:#000000;stroke-width:1.70000005;stroke-linecap:butt;stroke-linejoin:miter;stroke-miterlimit:4;stroke-dasharray:none;stroke-opacity:1"
         d="m 51.214286,85.647917 c 0,0 22.5,-40.714285 61.785714,-40.357142 39.28572,0.357143 63.57143,40.714285 63.57143,40.714285"
         id="path4158"
         inkscape:connector-curvature="0"
         sodipodi:nodetypes="csc" />
      <path
         style="fill:none;fill-rule:evenodd;stroke:#000000;stroke-width:1px;stroke-linecap:butt;stroke-linejoin:miter;stroke-opacity:1"
         d="m 107.85714,41.290775 8.92857,4.285714 -8.92857,3.571428"
         id="path4160"
         inkscape:connector-curvature="0" />
    </g>
    <path
       sodipodi:nodetypes="cccc"
       inkscape:connector-curvature="0"
       id="path4142"
       d="M 248.3672,149.08809 185.21522,121.44487 248.3672,94.286638 Z"
       style="fill:#cccccd;fill-opacity:1;fill-rule:evenodd;stroke:#000000;stroke-width:0.93260574;stroke-linecap:butt;stroke-linejoin:miter;stroke-miterlimit:4;stroke-dasharray:none;stroke-opacity:1" />
    <use
       style="fill:#000000;fill-opacity:1"
       id="use4256"
       y="16.0882"
       x="-0.51359999"
       xlink:href="#glyph0-1"
       width="100%"
       height="100%"
       transform="matrix(1.25,0,0,1.25,251.51891,124.77307)" />
    <use
       style="fill:#000000;fill-opacity:1"
       id="use4258"
       y="16.0882"
       x="7.9123688"
       xlink:href="#glyph0-1"
       width="100%"
       height="100%"
       transform="matrix(1.25,0,0,1.25,329.44748,125.13021)" />
    <use
       style="fill:#000000;fill-opacity:1"
       id="use4262"
       y="9.5073996"
       x="16.337601"
       xlink:href="#glyph1-1"
       width="100%"
       height="100%"
       transform="matrix(1.25,0,0,1.25,329.44748,125.13021)" />
    <use
       style="fill:#000000;fill-opacity:1"
       id="use4266"
       y="16.0882"
       x="20.809601"
       xlink:href="#glyph0-2"
       width="100%"
       height="100%"
       transform="matrix(1.25,0,0,1.25,225.44748,89.058786)" />
    <use
       style="fill:#000000;fill-opacity:1"
       id="use4268"
       y="16.0882"
       x="27.651117"
       xlink:href="#glyph0-2"
       width="100%"
       height="100%"
       transform="matrix(1.25,0,0,1.25,305.51891,94.415928)" />
    <use
       style="fill:#000000;fill-opacity:1"
       id="use4272"
       y="9.5073996"
       x="34.491199"
       xlink:href="#glyph1-1"
       width="100%"
       height="100%"
       transform="matrix(1.25,0,0,1.25,305.51891,94.415928)" />
    <use
       style="fill:#000000;fill-opacity:1"
       id="use4276"
       y="16.0882"
       x="38.9632"
       xlink:href="#glyph0-3"
       width="100%"
       height="100%"
       transform="matrix(1.25,0,0,1.25,147.59034,125.48735)" />
    <use
       style="fill:#000000;fill-opacity:1"
       id="use4278"
       y="16.0882"
       x="45.862103"
       xlink:href="#glyph0-3"
       width="100%"
       height="100%"
       transform="matrix(1.25,0,0,1.25,351.5189,124.77306)" />
    <use
       style="fill:#000000;fill-opacity:1"
       id="use4282"
       y="9.5073996"
       x="52.759998"
       xlink:href="#glyph1-1"
       width="100%"
       height="100%"
       transform="matrix(1.25,0,0,1.25,351.5189,124.77306)" />
    <use
       style="fill:#000000;fill-opacity:1"
       id="use4286"
       y="16.0882"
       x="57.231998"
       xlink:href="#glyph0-4"
       width="100%"
       height="100%"
       transform="matrix(1.25,0,0,1.25,131.87605,68.344501)" />
    <use
       style="fill:#000000;fill-opacity:1"
       id="use4288"
       y="16.0882"
       x="62.987991"
       xlink:href="#glyph0-4"
       width="100%"
       height="100%"
       transform="matrix(1.25,0,0,1.25,312.59034,64.773071)" />
    <use
       style="fill:#000000;fill-opacity:1"
       id="use4292"
       y="9.5073996"
       x="68.744003"
       xlink:href="#glyph1-1"
       width="100%"
       height="100%"
       transform="matrix(1.25,0,0,1.25,312.59034,64.773071)" />
    <g
       id="g4850"
       transform="translate(190,20)">
      <use
         transform="matrix(1.25,0,0,1.25,-19.552518,162.63021)"
         height="100%"
         width="100%"
         xlink:href="#glyph0-5"
         x="73.216003"
         y="16.0882"
         id="use4296"
         style="fill:#000000;fill-opacity:1" />
      <use
         transform="matrix(1.25,0,0,1.25,-19.552518,162.63021)"
         height="100%"
         width="100%"
         xlink:href="#glyph2-1"
         x="85.171204"
         y="18.4802"
         id="use4300"
         style="fill:#000000;fill-opacity:1" />
      <use
         transform="matrix(1.25,0,0,1.25,-19.552518,162.63021)"
         height="100%"
         width="100%"
         xlink:href="#glyph2-2"
         x="92.085861"
         y="18.4802"
         id="use4302"
         style="fill:#000000;fill-opacity:1" />
      <use
         transform="matrix(1.25,0,0,1.25,-19.552518,162.63021)"
         height="100%"
         width="100%"
         xlink:href="#glyph2-1"
         x="95.876259"
         y="18.4802"
         id="use4304"
         style="fill:#000000;fill-opacity:1" />
      <use
         transform="matrix(1.25,0,0,1.25,-19.552518,162.63021)"
         height="100%"
         width="100%"
         xlink:href="#glyph3-1"
         x="102.7856"
         y="15.2914"
         id="use4308"
         style="fill:#000000;fill-opacity:1" />
      <use
         transform="matrix(1.25,0,0,1.25,-19.552518,162.63021)"
         height="100%"
         width="100%"
         xlink:href="#glyph4-1"
         x="107.8944"
         y="16.0882"
         id="use4312"
         style="fill:#000000;fill-opacity:1" />
      <use
         transform="matrix(1.25,0,0,1.25,-19.552518,162.63021)"
         height="100%"
         width="100%"
         xlink:href="#glyph0-4"
         x="114.0944"
         y="16.0882"
         id="use4316"
         style="fill:#000000;fill-opacity:1" />
      <use
         transform="matrix(1.25,0,0,1.25,-19.552518,162.63021)"
         height="100%"
         width="100%"
         xlink:href="#glyph0-6"
         x="119.8504"
         y="16.0882"
         id="use4318"
         style="fill:#000000;fill-opacity:1" />
      <use
         transform="matrix(1.25,0,0,1.25,-19.552518,162.63021)"
         height="100%"
         width="100%"
         xlink:href="#glyph0-4"
         x="126.94536"
         y="16.0882"
         id="use4322"
         style="fill:#000000;fill-opacity:1" />
      <use
         transform="matrix(1.25,0,0,1.25,-19.552518,162.63021)"
         height="100%"
         width="100%"
         xlink:href="#glyph1-1"
         x="132.69119"
         y="9.5073996"
         id="use4326"
         style="fill:#000000;fill-opacity:1" />
      <use
         transform="matrix(1.25,0,0,1.25,-19.552518,162.63021)"
         height="100%"
         width="100%"
         xlink:href="#glyph4-2"
         x="137.16319"
         y="16.0882"
         id="use4330"
         style="fill:#000000;fill-opacity:1" />
    </g>
    <g
       id="g4863"
       transform="translate(190,20)">
      <use
         transform="matrix(1.25,0,0,1.25,-105.2668,11.558785)"
         height="100%"
         width="100%"
         xlink:href="#glyph0-7"
         x="143.3616"
         y="16.0882"
         id="use4334"
         style="fill:#000000;fill-opacity:1" />
      <use
         transform="matrix(1.25,0,0,1.25,-105.2668,11.558785)"
         height="100%"
         width="100%"
         xlink:href="#glyph2-3"
         x="155.4528"
         y="18.4802"
         id="use4338"
         style="fill:#000000;fill-opacity:1" />
      <use
         transform="matrix(1.25,0,0,1.25,-105.2668,11.558785)"
         height="100%"
         width="100%"
         xlink:href="#glyph3-1"
         x="161.0576"
         y="15.2914"
         id="use4342"
         style="fill:#000000;fill-opacity:1" />
      <use
         transform="matrix(1.25,0,0,1.25,-105.2668,11.558785)"
         height="100%"
         width="100%"
         xlink:href="#glyph2-2"
         x="165.3696"
         y="18.4802"
         id="use4346"
         style="fill:#000000;fill-opacity:1" />
      <use
         transform="matrix(1.25,0,0,1.25,-105.2668,11.558785)"
         height="100%"
         width="100%"
         xlink:href="#glyph2-3"
         x="169.15553"
         y="18.4802"
         id="use4348"
         style="fill:#000000;fill-opacity:1" />
      <use
         transform="matrix(1.25,0,0,1.25,-105.2668,11.558785)"
         height="100%"
         width="100%"
         xlink:href="#glyph4-1"
         x="175.5584"
         y="16.0882"
         id="use4352"
         style="fill:#000000;fill-opacity:1" />
      <use
         transform="matrix(1.25,0,0,1.25,-105.2668,11.558785)"
         height="100%"
         width="100%"
         xlink:href="#glyph0-4"
         x="181.75681"
         y="16.0882"
         id="use4356"
         style="fill:#000000;fill-opacity:1" />
      <use
         transform="matrix(1.25,0,0,1.25,-105.2668,11.558785)"
         height="100%"
         width="100%"
         xlink:href="#glyph1-1"
         x="187.5136"
         y="9.5073996"
         id="use4360"
         style="fill:#000000;fill-opacity:1" />
      <use
         transform="matrix(1.25,0,0,1.25,-105.2668,11.558785)"
         height="100%"
         width="100%"
         xlink:href="#glyph0-6"
         x="191.9856"
         y="16.0882"
         id="use4364"
         style="fill:#000000;fill-opacity:1" />
      <use
         transform="matrix(1.25,0,0,1.25,-105.2668,11.558785)"
         height="100%"
         width="100%"
         xlink:href="#glyph0-4"
         x="199.07579"
         y="16.0882"
         id="use4366"
         style="fill:#000000;fill-opacity:1" />
      <use
         transform="matrix(1.25,0,0,1.25,-105.2668,11.558785)"
         height="100%"
         width="100%"
         xlink:href="#glyph4-2"
         x="204.82561"
         y="16.0882"
         id="use4370"
         style="fill:#000000;fill-opacity:1" />
    </g>
    <g
       id="g4837"
       transform="translate(160,18)">
      <use
         transform="matrix(1.25,0,0,1.25,-361.33823,86.201644)"
         height="100%"
         width="100%"
         xlink:href="#glyph0-8"
         x="211.0256"
         y="16.0882"
         id="use4374"
         style="fill:#000000;fill-opacity:1" />
      <use
         transform="matrix(1.25,0,0,1.25,-361.33823,86.201644)"
         height="100%"
         width="100%"
         xlink:href="#glyph2-4"
         x="222.4176"
         y="18.4802"
         id="use4378"
         style="fill:#000000;fill-opacity:1" />
      <use
         transform="matrix(1.25,0,0,1.25,-361.33823,86.201644)"
         height="100%"
         width="100%"
         xlink:href="#glyph2-2"
         x="228.1138"
         y="18.4802"
         id="use4380"
         style="fill:#000000;fill-opacity:1" />
      <use
         transform="matrix(1.25,0,0,1.25,-361.33823,86.201644)"
         height="100%"
         width="100%"
         xlink:href="#glyph2-4"
         x="231.90196"
         y="18.4802"
         id="use4382"
         style="fill:#000000;fill-opacity:1" />
      <use
         transform="matrix(1.25,0,0,1.25,-361.33823,86.201644)"
         height="100%"
         width="100%"
         xlink:href="#glyph3-1"
         x="237.5968"
         y="15.2914"
         id="use4386"
         style="fill:#000000;fill-opacity:1" />
      <use
         transform="matrix(1.25,0,0,1.25,-361.33823,86.201644)"
         height="100%"
         width="100%"
         xlink:href="#glyph4-1"
         x="242.7056"
         y="16.0882"
         id="use4390"
         style="fill:#000000;fill-opacity:1" />
      <use
         transform="matrix(1.25,0,0,1.25,-361.33823,86.201644)"
         height="100%"
         width="100%"
         xlink:href="#glyph0-4"
         x="248.90559"
         y="16.0882"
         id="use4394"
         style="fill:#000000;fill-opacity:1" />
      <use
         transform="matrix(1.25,0,0,1.25,-361.33823,86.201644)"
         height="100%"
         width="100%"
         xlink:href="#glyph0-6"
         x="254.66159"
         y="16.0882"
         id="use4396"
         style="fill:#000000;fill-opacity:1" />
      <use
         transform="matrix(1.25,0,0,1.25,-361.33823,86.201644)"
         height="100%"
         width="100%"
         xlink:href="#glyph0-4"
         x="261.75656"
         y="16.0882"
         id="use4400"
         style="fill:#000000;fill-opacity:1" />
      <use
         transform="matrix(1.25,0,0,1.25,-361.33823,86.201644)"
         height="100%"
         width="100%"
         xlink:href="#glyph1-1"
         x="267.50241"
         y="9.5073996"
         id="use4404"
         style="fill:#000000;fill-opacity:1" />
      <use
         transform="matrix(1.25,0,0,1.25,-361.33823,86.201644)"
         height="100%"
         width="100%"
         xlink:href="#glyph4-2"
         x="271.9744"
         y="16.0882"
         id="use4408"
         style="fill:#000000;fill-opacity:1" />
    </g>
    <g
       id="g4766"
       transform="translate(-83.78571,-81.28571)">
      <use
         transform="matrix(1.25,0,0,1.25,-52.766804,187.27307)"
         height="100%"
         width="100%"
         xlink:href="#glyph0-9"
         x="278.17279"
         y="16.0882"
         id="use4412"
         style="fill:#000000;fill-opacity:1" />
      <use
         transform="matrix(1.25,0,0,1.25,-52.766804,187.27307)"
         height="100%"
         width="100%"
         xlink:href="#glyph2-4"
         x="291.01279"
         y="9.5073996"
         id="use4416"
         style="fill:#000000;fill-opacity:1" />
      <use
         transform="matrix(1.25,0,0,1.25,-52.766804,187.27307)"
         height="100%"
         width="100%"
         xlink:href="#glyph2-1"
         x="287.47198"
         y="20.028999"
         id="use4420"
         style="fill:#000000;fill-opacity:1" />
      <use
         transform="matrix(1.25,0,0,1.25,-52.766804,187.27307)"
         height="100%"
         width="100%"
         xlink:href="#glyph2-2"
         x="294.38666"
         y="20.028999"
         id="use4422"
         style="fill:#000000;fill-opacity:1" />
      <use
         transform="matrix(1.25,0,0,1.25,-52.766804,187.27307)"
         height="100%"
         width="100%"
         xlink:href="#glyph2-3"
         x="298.17706"
         y="20.028999"
         id="use4424"
         style="fill:#000000;fill-opacity:1" />
    </g>
    <path
       style="fill:#cccccd;fill-opacity:1;fill-rule:evenodd;stroke:#000000;stroke-width:0.93260574;stroke-linecap:butt;stroke-linejoin:miter;stroke-miterlimit:4;stroke-dasharray:none;stroke-opacity:1"
       d="M 358.43857,150.15952 421.59055,122.5163 358.43857,95.358067 Z"
       id="path4785"
       inkscape:connector-curvature="0"
       sodipodi:nodetypes="cccc" />
    <g
       id="g4775"
       transform="translate(45.5,-21.285714)">
      <use
         transform="matrix(1.25,0,0,1.25,-67.409661,129.41593)"
         height="100%"
         width="100%"
         xlink:href="#glyph0-9"
         x="304.5744"
         y="16.0882"
         id="use4428"
         style="fill:#000000;fill-opacity:1" />
      <use
         transform="matrix(1.25,0,0,1.25,-67.409661,129.41593)"
         height="100%"
         width="100%"
         xlink:href="#glyph2-4"
         x="317.4144"
         y="9.5073996"
         id="use4432"
         style="fill:#000000;fill-opacity:1" />
      <use
         transform="matrix(1.25,0,0,1.25,-67.409661,129.41593)"
         height="100%"
         width="100%"
         xlink:href="#glyph3-1"
         x="323.112"
         y="4.6961999"
         id="use4436"
         style="fill:#000000;fill-opacity:1" />
      <use
         transform="matrix(1.25,0,0,1.25,-67.409661,129.41593)"
         height="100%"
         width="100%"
         xlink:href="#glyph2-1"
         x="313.87201"
         y="20.028999"
         id="use4440"
         style="fill:#000000;fill-opacity:1" />
      <use
         transform="matrix(1.25,0,0,1.25,-67.409661,129.41593)"
         height="100%"
         width="100%"
         xlink:href="#glyph3-1"
         x="320.7872"
         y="16.841801"
         id="use4444"
         style="fill:#000000;fill-opacity:1" />
      <use
         transform="matrix(1.25,0,0,1.25,-67.409661,129.41593)"
         height="100%"
         width="100%"
         xlink:href="#glyph2-2"
         x="325.09921"
         y="20.028999"
         id="use4448"
         style="fill:#000000;fill-opacity:1" />
      <use
         transform="matrix(1.25,0,0,1.25,-67.409661,129.41593)"
         height="100%"
         width="100%"
         xlink:href="#glyph2-3"
         x="328.88513"
         y="20.028999"
         id="use4450"
         style="fill:#000000;fill-opacity:1" />
      <use
         transform="matrix(1.25,0,0,1.25,-67.409661,129.41593)"
         height="100%"
         width="100%"
         xlink:href="#glyph3-1"
         x="334.48959"
         y="16.841801"
         id="use4454"
         style="fill:#000000;fill-opacity:1" />
    </g>
    <g
       id="surface271506"
       transform="matrix(1.25,0,0,1.25,156.04791,117.63581)">
      <g
         id="g4819"
         style="fill:#000000;fill-opacity:1">
        <use
           id="use4821"
           y="6.0511999"
           x="-0.4544"
           xlink:href="#glyph0-1-5"
           width="100%"
           height="100%" />
      </g>
    </g>
    <g
       transform="matrix(-1,0,0,1,848.11535,23.827355)"
       id="g4876">
      <path
         style="fill:none;fill-rule:evenodd;stroke:#000000;stroke-width:1.70000005;stroke-linecap:butt;stroke-linejoin:miter;stroke-miterlimit:4;stroke-dasharray:none;stroke-opacity:1"
         d="m 51.214286,85.647917 c 0,0 22.5,-40.714285 61.785714,-40.357142 39.28572,0.357143 63.57143,40.714285 63.57143,40.714285"
         id="path4878"
         inkscape:connector-curvature="0"
         sodipodi:nodetypes="csc" />
      <path
         style="fill:none;fill-rule:evenodd;stroke:#000000;stroke-width:1px;stroke-linecap:butt;stroke-linejoin:miter;stroke-opacity:1"
         d="m 107.85714,41.290775 8.92857,4.285714 -8.92857,3.571428"
         id="path4880"
         inkscape:connector-curvature="0" />
    </g>
    <g
       transform="matrix(-1,0,0,-1,850.11535,229.1107)"
       id="g4882">
      <path
         sodipodi:nodetypes="csc"
         inkscape:connector-curvature="0"
         id="path4884"
         d="m 51.214286,85.647917 c 0,0 22.5,-40.714285 61.785714,-40.357142 39.28572,0.357143 63.57143,40.714285 63.57143,40.714285"
         style="fill:none;fill-rule:evenodd;stroke:#000000;stroke-width:1.70000005;stroke-linecap:butt;stroke-linejoin:miter;stroke-miterlimit:4;stroke-dasharray:none;stroke-opacity:1" />
      <path
         inkscape:connector-curvature="0"
         id="path4886"
         d="m 107.85714,41.290775 8.92857,4.285714 -8.92857,3.571428"
         style="fill:none;fill-rule:evenodd;stroke:#000000;stroke-width:1px;stroke-linecap:butt;stroke-linejoin:miter;stroke-opacity:1" />
    </g>
    <path
       style="fill:#cccccd;fill-opacity:1;fill-rule:evenodd;stroke:#000000;stroke-width:0.93260574;stroke-linecap:butt;stroke-linejoin:miter;stroke-miterlimit:4;stroke-dasharray:none;stroke-opacity:1"
       d="M 680.71249,152.91545 617.56051,125.27223 680.71249,98.113995 Z"
       id="path4888"
       inkscape:connector-curvature="0"
       sodipodi:nodetypes="cccc" />
    <use
       transform="matrix(1.25,0,0,1.25,683.8642,128.60043)"
       height="100%"
       width="100%"
       xlink:href="#glyph0-1"
       x="-0.51359999"
       y="16.0882"
       id="use4890"
       style="fill:#000000;fill-opacity:1" />
    <use
       transform="matrix(1.25,0,0,1.25,761.79277,128.95757)"
       height="100%"
       width="100%"
       xlink:href="#glyph0-1"
       x="7.9123688"
       y="16.0882"
       id="use4892"
       style="fill:#000000;fill-opacity:1" />
    <use
       transform="matrix(1.25,0,0,1.25,761.79277,128.95757)"
       height="100%"
       width="100%"
       xlink:href="#glyph1-1"
       x="16.337601"
       y="9.5073996"
       id="use4894"
       style="fill:#000000;fill-opacity:1" />
    <use
       transform="matrix(1.25,0,0,1.25,657.79277,92.886145)"
       height="100%"
       width="100%"
       xlink:href="#glyph0-2"
       x="20.809601"
       y="16.0882"
       id="use4896"
       style="fill:#000000;fill-opacity:1" />
    <use
       transform="matrix(1.25,0,0,1.25,737.8642,98.243285)"
       height="100%"
       width="100%"
       xlink:href="#glyph0-2"
       x="27.651117"
       y="16.0882"
       id="use4898"
       style="fill:#000000;fill-opacity:1" />
    <use
       transform="matrix(1.25,0,0,1.25,737.8642,98.243285)"
       height="100%"
       width="100%"
       xlink:href="#glyph1-1"
       x="34.491199"
       y="9.5073996"
       id="use4900"
       style="fill:#000000;fill-opacity:1" />
    <use
       transform="matrix(1.25,0,0,1.25,579.93563,129.31471)"
       height="100%"
       width="100%"
       xlink:href="#glyph0-3"
       x="38.9632"
       y="16.0882"
       id="use4902"
       style="fill:#000000;fill-opacity:1" />
    <use
       transform="matrix(1.25,0,0,1.25,783.86419,128.60042)"
       height="100%"
       width="100%"
       xlink:href="#glyph0-3"
       x="45.862103"
       y="16.0882"
       id="use4904"
       style="fill:#000000;fill-opacity:1" />
    <use
       transform="matrix(1.25,0,0,1.25,783.86419,128.60042)"
       height="100%"
       width="100%"
       xlink:href="#glyph1-1"
       x="52.759998"
       y="9.5073996"
       id="use4906"
       style="fill:#000000;fill-opacity:1" />
    <use
       transform="matrix(1.25,0,0,1.25,564.22134,72.171855)"
       height="100%"
       width="100%"
       xlink:href="#glyph0-4"
       x="57.231998"
       y="16.0882"
       id="use4908"
       style="fill:#000000;fill-opacity:1" />
    <use
       transform="matrix(1.25,0,0,1.25,744.93563,68.600425)"
       height="100%"
       width="100%"
       xlink:href="#glyph0-4"
       x="62.987991"
       y="16.0882"
       id="use4910"
       style="fill:#000000;fill-opacity:1" />
    <use
       transform="matrix(1.25,0,0,1.25,744.93563,68.600425)"
       height="100%"
       width="100%"
       xlink:href="#glyph1-1"
       x="68.744003"
       y="9.5073996"
       id="use4912"
       style="fill:#000000;fill-opacity:1" />
    <g
       transform="translate(622.34529,23.827355)"
       id="g4914">
      <use
         style="fill:#000000;fill-opacity:1"
         id="use4916"
         y="16.0882"
         x="73.216003"
         xlink:href="#glyph0-5"
         width="100%"
         height="100%"
         transform="matrix(1.25,0,0,1.25,-19.552518,162.63021)" />
      <use
         style="fill:#000000;fill-opacity:1"
         id="use4918"
         y="18.4802"
         x="85.171204"
         xlink:href="#glyph2-1"
         width="100%"
         height="100%"
         transform="matrix(1.25,0,0,1.25,-19.552518,162.63021)" />
      <use
         style="fill:#000000;fill-opacity:1"
         id="use4920"
         y="18.4802"
         x="92.085861"
         xlink:href="#glyph2-2"
         width="100%"
         height="100%"
         transform="matrix(1.25,0,0,1.25,-19.552518,162.63021)" />
      <use
         style="fill:#000000;fill-opacity:1"
         id="use4922"
         y="18.4802"
         x="95.876259"
         xlink:href="#glyph2-1"
         width="100%"
         height="100%"
         transform="matrix(1.25,0,0,1.25,-19.552518,162.63021)" />
      <use
         style="fill:#000000;fill-opacity:1"
         id="use4924"
         y="15.2914"
         x="102.7856"
         xlink:href="#glyph3-1"
         width="100%"
         height="100%"
         transform="matrix(1.25,0,0,1.25,-19.552518,162.63021)" />
      <use
         style="fill:#000000;fill-opacity:1"
         id="use4926"
         y="16.0882"
         x="107.8944"
         xlink:href="#glyph4-1"
         width="100%"
         height="100%"
         transform="matrix(1.25,0,0,1.25,-19.552518,162.63021)" />
      <use
         style="fill:#000000;fill-opacity:1"
         id="use4928"
         y="16.0882"
         x="114.0944"
         xlink:href="#glyph0-4"
         width="100%"
         height="100%"
         transform="matrix(1.25,0,0,1.25,-19.552518,162.63021)" />
      <use
         style="fill:#000000;fill-opacity:1"
         id="use4930"
         y="16.0882"
         x="119.8504"
         xlink:href="#glyph0-6"
         width="100%"
         height="100%"
         transform="matrix(1.25,0,0,1.25,-19.552518,162.63021)" />
      <use
         style="fill:#000000;fill-opacity:1"
         id="use4932"
         y="16.0882"
         x="126.94536"
         xlink:href="#glyph0-4"
         width="100%"
         height="100%"
         transform="matrix(1.25,0,0,1.25,-19.552518,162.63021)" />
      <use
         style="fill:#000000;fill-opacity:1"
         id="use4934"
         y="9.5073996"
         x="132.69119"
         xlink:href="#glyph1-1"
         width="100%"
         height="100%"
         transform="matrix(1.25,0,0,1.25,-19.552518,162.63021)" />
      <use
         style="fill:#000000;fill-opacity:1"
         id="use4936"
         y="16.0882"
         x="137.16319"
         xlink:href="#glyph4-2"
         width="100%"
         height="100%"
         transform="matrix(1.25,0,0,1.25,-19.552518,162.63021)" />
    </g>
    <use
       transform="matrix(1.25,0,0,1.25,517.07849,35.386135)"
       height="100%"
       width="100%"
       xlink:href="#glyph0-7"
       x="143.3616"
       y="16.0882"
       id="use4940"
       style="fill:#000000;fill-opacity:1" />
    <use
       transform="matrix(1.25,0,0,1.25,517.07849,35.386135)"
       height="100%"
       width="100%"
       xlink:href="#glyph2-3"
       x="155.4528"
       y="18.4802"
       id="use4942"
       style="fill:#000000;fill-opacity:1" />
    <use
       transform="matrix(1.25,0,0,1.25,529.07849,35.386135)"
       height="100%"
       width="100%"
       xlink:href="#glyph3-1"
       x="161.0576"
       y="15.2914"
       id="use4944"
       style="fill:#000000;fill-opacity:1" />
    <use
       transform="matrix(1.25,0,0,1.25,511.07849,35.386135)"
       height="100%"
       width="100%"
       xlink:href="#glyph2-2"
       x="165.3696"
       y="18.4802"
       id="use4946"
       style="fill:#000000;fill-opacity:1" />
    <use
       transform="matrix(1.25,0,0,1.25,511.07849,35.386135)"
       height="100%"
       width="100%"
       xlink:href="#glyph2-3"
       x="169.15553"
       y="18.4802"
       id="use4948"
       style="fill:#000000;fill-opacity:1" />
    <use
       transform="matrix(1.25,0,0,1.25,514.08864,35.386135)"
       height="100%"
       width="100%"
       xlink:href="#glyph4-1"
       x="175.5584"
       y="16.0882"
       id="use4950"
       style="fill:#000000;fill-opacity:1" />
    <use
       transform="matrix(1.25,0,0,1.25,514.08864,35.386135)"
       height="100%"
       width="100%"
       xlink:href="#glyph0-4"
       x="181.75681"
       y="16.0882"
       id="use4952"
       style="fill:#000000;fill-opacity:1" />
    <use
       transform="matrix(1.25,0,0,1.25,530.08864,35.386135)"
       height="100%"
       width="100%"
       xlink:href="#glyph1-1"
       x="187.5136"
       y="9.5073996"
       id="use4954"
       style="fill:#000000;fill-opacity:1" />
    <use
       transform="matrix(1.25,0,0,1.25,510.08864,35.386135)"
       height="100%"
       width="100%"
       xlink:href="#glyph0-6"
       x="191.9856"
       y="16.0882"
       id="use4956"
       style="fill:#000000;fill-opacity:1" />
    <use
       transform="matrix(1.25,0,0,1.25,508.08864,35.386135)"
       height="100%"
       width="100%"
       xlink:href="#glyph0-4"
       x="199.07579"
       y="16.0882"
       id="use4958"
       style="fill:#000000;fill-opacity:1" />
    <use
       transform="matrix(1.25,0,0,1.25,514.08864,35.386135)"
       height="100%"
       width="100%"
       xlink:href="#glyph4-2"
       x="204.82561"
       y="16.0882"
       id="use4960"
       style="fill:#000000;fill-opacity:1" />
    <g
       transform="translate(592.34529,21.827355)"
       id="g4962">
      <use
         style="fill:#000000;fill-opacity:1"
         id="use4964"
         y="16.0882"
         x="211.0256"
         xlink:href="#glyph0-8"
         width="100%"
         height="100%"
         transform="matrix(1.25,0,0,1.25,-361.33823,86.201644)" />
      <use
         style="fill:#000000;fill-opacity:1"
         id="use4966"
         y="18.4802"
         x="222.4176"
         xlink:href="#glyph2-4"
         width="100%"
         height="100%"
         transform="matrix(1.25,0,0,1.25,-361.33823,86.201644)" />
      <use
         style="fill:#000000;fill-opacity:1"
         id="use4968"
         y="18.4802"
         x="228.1138"
         xlink:href="#glyph2-2"
         width="100%"
         height="100%"
         transform="matrix(1.25,0,0,1.25,-361.33823,86.201644)" />
      <use
         style="fill:#000000;fill-opacity:1"
         id="use4970"
         y="18.4802"
         x="231.90196"
         xlink:href="#glyph2-4"
         width="100%"
         height="100%"
         transform="matrix(1.25,0,0,1.25,-361.33823,86.201644)" />
      <use
         style="fill:#000000;fill-opacity:1"
         id="use4972"
         y="15.2914"
         x="237.5968"
         xlink:href="#glyph3-1"
         width="100%"
         height="100%"
         transform="matrix(1.25,0,0,1.25,-361.33823,86.201644)" />
      <use
         style="fill:#000000;fill-opacity:1"
         id="use4974"
         y="16.0882"
         x="242.7056"
         xlink:href="#glyph4-1"
         width="100%"
         height="100%"
         transform="matrix(1.25,0,0,1.25,-361.33823,86.201644)" />
      <use
         style="fill:#000000;fill-opacity:1"
         id="use4976"
         y="16.0882"
         x="248.90559"
         xlink:href="#glyph0-4"
         width="100%"
         height="100%"
         transform="matrix(1.25,0,0,1.25,-361.33823,86.201644)" />
      <use
         style="fill:#000000;fill-opacity:1"
         id="use4978"
         y="16.0882"
         x="254.66159"
         xlink:href="#glyph0-6"
         width="100%"
         height="100%"
         transform="matrix(1.25,0,0,1.25,-361.33823,86.201644)" />
      <use
         style="fill:#000000;fill-opacity:1"
         id="use4980"
         y="16.0882"
         x="261.75656"
         xlink:href="#glyph0-4"
         width="100%"
         height="100%"
         transform="matrix(1.25,0,0,1.25,-361.33823,86.201644)" />
      <use
         style="fill:#000000;fill-opacity:1"
         id="use4982"
         y="9.5073996"
         x="267.50241"
         xlink:href="#glyph1-1"
         width="100%"
         height="100%"
         transform="matrix(1.25,0,0,1.25,-361.33823,86.201644)" />
      <use
         style="fill:#000000;fill-opacity:1"
         id="use4984"
         y="16.0882"
         x="271.9744"
         xlink:href="#glyph4-2"
         width="100%"
         height="100%"
         transform="matrix(1.25,0,0,1.25,-361.33823,86.201644)" />
    </g>
    <g
       transform="translate(348.55958,-77.458355)"
       id="g4986">
      <use
         style="fill:#000000;fill-opacity:1"
         id="use4988"
         y="16.0882"
         x="278.17279"
         xlink:href="#glyph0-9"
         width="100%"
         height="100%"
         transform="matrix(1.25,0,0,1.25,-52.766804,187.27307)" />
      <use
         style="fill:#000000;fill-opacity:1"
         id="use4990"
         y="9.5073996"
         x="291.01279"
         xlink:href="#glyph2-4"
         width="100%"
         height="100%"
         transform="matrix(1.25,0,0,1.25,-52.766804,187.27307)" />
      <use
         style="fill:#000000;fill-opacity:1"
         id="use4992"
         y="20.028999"
         x="287.47198"
         xlink:href="#glyph2-1"
         width="100%"
         height="100%"
         transform="matrix(1.25,0,0,1.25,-52.766804,187.27307)" />
      <use
         style="fill:#000000;fill-opacity:1"
         id="use4994"
         y="20.028999"
         x="294.38666"
         xlink:href="#glyph2-2"
         width="100%"
         height="100%"
         transform="matrix(1.25,0,0,1.25,-52.766804,187.27307)" />
      <use
         style="fill:#000000;fill-opacity:1"
         id="use4996"
         y="20.028999"
         x="298.17706"
         xlink:href="#glyph2-3"
         width="100%"
         height="100%"
         transform="matrix(1.25,0,0,1.25,-52.766804,187.27307)" />
    </g>
    <path
       sodipodi:nodetypes="cccc"
       inkscape:connector-curvature="0"
       id="path4998"
       d="M 790.78386,153.98688 853.93584,126.34366 790.78386,99.185425 Z"
       style="fill:#cccccd;fill-opacity:1;fill-rule:evenodd;stroke:#000000;stroke-width:0.93260574;stroke-linecap:butt;stroke-linejoin:miter;stroke-miterlimit:4;stroke-dasharray:none;stroke-opacity:1" />
    <g
       transform="translate(477.84529,-17.458355)"
       id="g5000">
      <use
         style="fill:#000000;fill-opacity:1"
         id="use5002"
         y="16.0882"
         x="304.5744"
         xlink:href="#glyph0-9"
         width="100%"
         height="100%"
         transform="matrix(1.25,0,0,1.25,-67.409661,129.41593)" />
      <use
         style="fill:#000000;fill-opacity:1"
         id="use5004"
         y="9.5073996"
         x="317.4144"
         xlink:href="#glyph2-4"
         width="100%"
         height="100%"
         transform="matrix(1.25,0,0,1.25,-67.409661,129.41593)" />
      <use
         style="fill:#000000;fill-opacity:1"
         id="use5006"
         y="4.6961999"
         x="323.112"
         xlink:href="#glyph3-1"
         width="100%"
         height="100%"
         transform="matrix(1.25,0,0,1.25,-67.409661,129.41593)" />
      <use
         style="fill:#000000;fill-opacity:1"
         id="use5008"
         y="20.028999"
         x="313.87201"
         xlink:href="#glyph2-1"
         width="100%"
         height="100%"
         transform="matrix(1.25,0,0,1.25,-67.409661,129.41593)" />
      <use
         style="fill:#000000;fill-opacity:1"
         id="use5010"
         y="16.841801"
         x="320.7872"
         xlink:href="#glyph3-1"
         width="100%"
         height="100%"
         transform="matrix(1.25,0,0,1.25,-67.409661,129.41593)" />
      <use
         style="fill:#000000;fill-opacity:1"
         id="use5012"
         y="20.028999"
         x="325.09921"
         xlink:href="#glyph2-2"
         width="100%"
         height="100%"
         transform="matrix(1.25,0,0,1.25,-67.409661,129.41593)" />
      <use
         style="fill:#000000;fill-opacity:1"
         id="use5014"
         y="20.028999"
         x="328.88513"
         xlink:href="#glyph2-3"
         width="100%"
         height="100%"
         transform="matrix(1.25,0,0,1.25,-67.409661,129.41593)" />
      <use
         style="fill:#000000;fill-opacity:1"
         id="use5016"
         y="16.841801"
         x="334.48959"
         xlink:href="#glyph3-1"
         width="100%"
         height="100%"
         transform="matrix(1.25,0,0,1.25,-67.409661,129.41593)" />
    </g>
    <g
       transform="matrix(1.25,0,0,1.25,588.3932,121.46317)"
       id="g5018">
      <g
         style="fill:#000000;fill-opacity:1"
         id="g5020">
        <use
           height="100%"
           width="100%"
           xlink:href="#glyph0-1-5"
           x="-0.4544"
           y="6.0511999"
           id="use5022" />
      </g>
    </g>
  </g>
</svg>
