<?xml version="1.0" encoding="UTF-8"?>
<svg xmlns="http://www.w3.org/2000/svg" xmlns:xlink="http://www.w3.org/1999/xlink" width="411.471069pt" height="307.039703pt" viewBox="0 0 411.471069 307.039703" version="1.1">
<defs>
<g>
<symbol overflow="visible" id="glyph0-0">
<path style="stroke:none;" d="M 2 0 L 2 -10 L 10 -10 L 10 0 Z M 2.25 -0.25 L 9.75 -0.25 L 9.75 -9.75 L 2.25 -9.75 Z M 2.25 -0.25 "/>
</symbol>
<symbol overflow="visible" id="glyph0-1">
<path style="stroke:none;" d="M 0.671875 -5.65625 C 0.671875 -7.007812 0.804688 -8.097656 1.078125 -8.921875 C 1.359375 -9.742188 1.773438 -10.378906 2.328125 -10.828125 C 2.878906 -11.273438 3.570312 -11.5 4.40625 -11.5 C 5.019531 -11.5 5.554688 -11.375 6.015625 -11.125 C 6.484375 -10.882812 6.867188 -10.53125 7.171875 -10.0625 C 7.472656 -9.59375 7.707031 -9.023438 7.875 -8.359375 C 8.050781 -7.691406 8.140625 -6.789062 8.140625 -5.65625 C 8.140625 -4.3125 8 -3.222656 7.71875 -2.390625 C 7.445312 -1.566406 7.035156 -0.925781 6.484375 -0.46875 C 5.929688 -0.0195312 5.238281 0.203125 4.40625 0.203125 C 3.300781 0.203125 2.429688 -0.195312 1.796875 -1 C 1.046875 -1.945312 0.671875 -3.5 0.671875 -5.65625 Z M 2.109375 -5.65625 C 2.109375 -3.769531 2.328125 -2.515625 2.765625 -1.890625 C 3.210938 -1.273438 3.757812 -0.96875 4.40625 -0.96875 C 5.050781 -0.96875 5.59375 -1.28125 6.03125 -1.90625 C 6.46875 -2.53125 6.6875 -3.78125 6.6875 -5.65625 C 6.6875 -7.539062 6.46875 -8.789062 6.03125 -9.40625 C 5.59375 -10.03125 5.046875 -10.34375 4.390625 -10.34375 C 3.742188 -10.34375 3.226562 -10.066406 2.84375 -9.515625 C 2.351562 -8.816406 2.109375 -7.53125 2.109375 -5.65625 Z M 2.109375 -5.65625 "/>
</symbol>
<symbol overflow="visible" id="glyph0-2">
<path style="stroke:none;" d="M 0.671875 -3 L 2.140625 -3.125 C 2.253906 -2.40625 2.507812 -1.863281 2.90625 -1.5 C 3.300781 -1.144531 3.78125 -0.96875 4.34375 -0.96875 C 5.019531 -0.96875 5.59375 -1.222656 6.0625 -1.734375 C 6.53125 -2.242188 6.765625 -2.921875 6.765625 -3.765625 C 6.765625 -4.566406 6.539062 -5.195312 6.09375 -5.65625 C 5.644531 -6.125 5.054688 -6.359375 4.328125 -6.359375 C 3.867188 -6.359375 3.457031 -6.253906 3.09375 -6.046875 C 2.726562 -5.835938 2.441406 -5.570312 2.234375 -5.25 L 0.921875 -5.421875 L 2.03125 -11.296875 L 7.71875 -11.296875 L 7.71875 -9.953125 L 3.15625 -9.953125 L 2.53125 -6.875 C 3.21875 -7.351562 3.941406 -7.59375 4.703125 -7.59375 C 5.703125 -7.59375 6.546875 -7.242188 7.234375 -6.546875 C 7.921875 -5.859375 8.265625 -4.972656 8.265625 -3.890625 C 8.265625 -2.847656 7.960938 -1.953125 7.359375 -1.203125 C 6.617188 -0.265625 5.613281 0.203125 4.34375 0.203125 C 3.300781 0.203125 2.453125 -0.0859375 1.796875 -0.671875 C 1.140625 -1.265625 0.765625 -2.039062 0.671875 -3 Z M 0.671875 -3 "/>
</symbol>
<symbol overflow="visible" id="glyph0-3">
<path style="stroke:none;" d="M 5.96875 0 L 4.5625 0 L 4.5625 -8.96875 C 4.21875 -8.644531 3.769531 -8.320312 3.21875 -8 C 2.675781 -7.675781 2.1875 -7.429688 1.75 -7.265625 L 1.75 -8.625 C 2.53125 -9 3.210938 -9.445312 3.796875 -9.96875 C 4.390625 -10.5 4.8125 -11.007812 5.0625 -11.5 L 5.96875 -11.5 Z M 5.96875 0 "/>
</symbol>
<symbol overflow="visible" id="glyph0-4">
<path style="stroke:none;" d="M 8.0625 -1.359375 L 8.0625 0 L 0.484375 0 C 0.472656 -0.34375 0.53125 -0.671875 0.65625 -0.984375 C 0.84375 -1.492188 1.148438 -2 1.578125 -2.5 C 2.003906 -3 2.617188 -3.578125 3.421875 -4.234375 C 4.660156 -5.253906 5.5 -6.0625 5.9375 -6.65625 C 6.375 -7.257812 6.59375 -7.828125 6.59375 -8.359375 C 6.59375 -8.910156 6.394531 -9.378906 6 -9.765625 C 5.601562 -10.148438 5.082031 -10.34375 4.4375 -10.34375 C 3.757812 -10.34375 3.21875 -10.140625 2.8125 -9.734375 C 2.40625 -9.328125 2.203125 -8.765625 2.203125 -8.046875 L 0.75 -8.1875 C 0.851562 -9.269531 1.226562 -10.09375 1.875 -10.65625 C 2.519531 -11.21875 3.382812 -11.5 4.46875 -11.5 C 5.570312 -11.5 6.441406 -11.191406 7.078125 -10.578125 C 7.722656 -9.972656 8.046875 -9.222656 8.046875 -8.328125 C 8.046875 -7.867188 7.953125 -7.414062 7.765625 -6.96875 C 7.578125 -6.53125 7.265625 -6.066406 6.828125 -5.578125 C 6.390625 -5.085938 5.664062 -4.414062 4.65625 -3.5625 C 3.8125 -2.851562 3.269531 -2.367188 3.03125 -2.109375 C 2.789062 -1.859375 2.59375 -1.609375 2.4375 -1.359375 Z M 8.0625 -1.359375 "/>
</symbol>
<symbol overflow="visible" id="glyph0-5">
<path style="stroke:none;" d="M 1.453125 0 L 1.453125 -1.609375 L 3.0625 -1.609375 L 3.0625 0 Z M 1.453125 0 "/>
</symbol>
<symbol overflow="visible" id="glyph0-6">
<path style="stroke:none;" d="M 0.671875 -3.03125 L 2.078125 -3.21875 C 2.242188 -2.414062 2.519531 -1.835938 2.90625 -1.484375 C 3.289062 -1.140625 3.765625 -0.96875 4.328125 -0.96875 C 4.984375 -0.96875 5.539062 -1.195312 6 -1.65625 C 6.457031 -2.113281 6.6875 -2.679688 6.6875 -3.359375 C 6.6875 -4.003906 6.472656 -4.535156 6.046875 -4.953125 C 5.628906 -5.367188 5.09375 -5.578125 4.4375 -5.578125 C 4.175781 -5.578125 3.847656 -5.523438 3.453125 -5.421875 L 3.609375 -6.65625 C 3.703125 -6.644531 3.773438 -6.640625 3.828125 -6.640625 C 4.429688 -6.640625 4.972656 -6.796875 5.453125 -7.109375 C 5.929688 -7.421875 6.171875 -7.90625 6.171875 -8.5625 C 6.171875 -9.070312 5.992188 -9.492188 5.640625 -9.828125 C 5.296875 -10.171875 4.847656 -10.34375 4.296875 -10.34375 C 3.742188 -10.34375 3.285156 -10.171875 2.921875 -9.828125 C 2.554688 -9.484375 2.320312 -8.96875 2.21875 -8.28125 L 0.8125 -8.53125 C 0.988281 -9.476562 1.378906 -10.207031 1.984375 -10.71875 C 2.597656 -11.238281 3.359375 -11.5 4.265625 -11.5 C 4.890625 -11.5 5.460938 -11.363281 5.984375 -11.09375 C 6.515625 -10.832031 6.914062 -10.46875 7.1875 -10 C 7.46875 -9.539062 7.609375 -9.050781 7.609375 -8.53125 C 7.609375 -8.03125 7.472656 -7.578125 7.203125 -7.171875 C 6.941406 -6.765625 6.550781 -6.441406 6.03125 -6.203125 C 6.707031 -6.046875 7.234375 -5.722656 7.609375 -5.234375 C 7.984375 -4.742188 8.171875 -4.128906 8.171875 -3.390625 C 8.171875 -2.390625 7.804688 -1.539062 7.078125 -0.84375 C 6.347656 -0.144531 5.425781 0.203125 4.3125 0.203125 C 3.3125 0.203125 2.476562 -0.09375 1.8125 -0.6875 C 1.144531 -1.289062 0.765625 -2.070312 0.671875 -3.03125 Z M 0.671875 -3.03125 "/>
</symbol>
<symbol overflow="visible" id="glyph0-7">
<path style="stroke:none;" d="M 5.171875 0 L 5.171875 -2.75 L 0.203125 -2.75 L 0.203125 -4.03125 L 5.4375 -11.453125 L 6.578125 -11.453125 L 6.578125 -4.03125 L 8.125 -4.03125 L 8.125 -2.75 L 6.578125 -2.75 L 6.578125 0 Z M 5.171875 -4.03125 L 5.171875 -9.203125 L 1.59375 -4.03125 Z M 5.171875 -4.03125 "/>
</symbol>
<symbol overflow="visible" id="glyph0-8">
<path style="stroke:none;" d="M 7.96875 -8.65625 L 6.5625 -8.546875 C 6.4375 -9.097656 6.257812 -9.5 6.03125 -9.75 C 5.65625 -10.144531 5.1875 -10.34375 4.625 -10.34375 C 4.175781 -10.34375 3.785156 -10.21875 3.453125 -9.96875 C 3.003906 -9.644531 2.648438 -9.171875 2.390625 -8.546875 C 2.140625 -7.929688 2.007812 -7.050781 2 -5.90625 C 2.34375 -6.425781 2.757812 -6.8125 3.25 -7.0625 C 3.738281 -7.3125 4.25 -7.4375 4.78125 -7.4375 C 5.71875 -7.4375 6.515625 -7.085938 7.171875 -6.390625 C 7.835938 -5.703125 8.171875 -4.8125 8.171875 -3.71875 C 8.171875 -3 8.015625 -2.332031 7.703125 -1.71875 C 7.390625 -1.101562 6.960938 -0.628906 6.421875 -0.296875 C 5.878906 0.0351562 5.265625 0.203125 4.578125 0.203125 C 3.410156 0.203125 2.457031 -0.226562 1.71875 -1.09375 C 0.976562 -1.957031 0.609375 -3.378906 0.609375 -5.359375 C 0.609375 -7.578125 1.015625 -9.1875 1.828125 -10.1875 C 2.546875 -11.0625 3.507812 -11.5 4.71875 -11.5 C 5.613281 -11.5 6.347656 -11.242188 6.921875 -10.734375 C 7.503906 -10.234375 7.851562 -9.539062 7.96875 -8.65625 Z M 2.21875 -3.71875 C 2.21875 -3.226562 2.320312 -2.757812 2.53125 -2.3125 C 2.738281 -1.875 3.023438 -1.539062 3.390625 -1.3125 C 3.765625 -1.082031 4.15625 -0.96875 4.5625 -0.96875 C 5.15625 -0.96875 5.664062 -1.207031 6.09375 -1.6875 C 6.519531 -2.164062 6.734375 -2.816406 6.734375 -3.640625 C 6.734375 -4.429688 6.519531 -5.050781 6.09375 -5.5 C 5.675781 -5.957031 5.144531 -6.1875 4.5 -6.1875 C 3.863281 -6.1875 3.320312 -5.957031 2.875 -5.5 C 2.4375 -5.050781 2.21875 -4.457031 2.21875 -3.71875 Z M 2.21875 -3.71875 "/>
</symbol>
<symbol overflow="visible" id="glyph1-0">
<path style="stroke:none;" d="M 2.25 0 L 2.25 -11.25 L 11.25 -11.25 L 11.25 0 Z M 2.53125 -0.28125 L 10.96875 -0.28125 L 10.96875 -10.96875 L 2.53125 -10.96875 Z M 2.53125 -0.28125 "/>
</symbol>
<symbol overflow="visible" id="glyph1-1">
<path style="stroke:none;" d="M 4.640625 -1.421875 L 4.875 -0.015625 C 4.425781 0.078125 4.023438 0.125 3.671875 0.125 C 3.097656 0.125 2.648438 0.0351562 2.328125 -0.140625 C 2.015625 -0.328125 1.796875 -0.566406 1.671875 -0.859375 C 1.546875 -1.160156 1.484375 -1.785156 1.484375 -2.734375 L 1.484375 -8.109375 L 0.3125 -8.109375 L 0.3125 -9.328125 L 1.484375 -9.328125 L 1.484375 -11.640625 L 3.046875 -12.59375 L 3.046875 -9.328125 L 4.640625 -9.328125 L 4.640625 -8.109375 L 3.046875 -8.109375 L 3.046875 -2.640625 C 3.046875 -2.191406 3.070312 -1.898438 3.125 -1.765625 C 3.1875 -1.640625 3.28125 -1.539062 3.40625 -1.46875 C 3.53125 -1.394531 3.710938 -1.359375 3.953125 -1.359375 C 4.117188 -1.359375 4.347656 -1.378906 4.640625 -1.421875 Z M 4.640625 -1.421875 "/>
</symbol>
<symbol overflow="visible" id="glyph2-0">
<path style="stroke:none;" d="M 0 -2.25 L -11.25 -2.25 L -11.25 -11.25 L 0 -11.25 Z M -0.28125 -2.53125 L -0.28125 -10.96875 L -10.96875 -10.96875 L -10.96875 -2.53125 Z M -0.28125 -2.53125 "/>
</symbol>
<symbol overflow="visible" id="glyph2-1">
<path style="stroke:none;" d="M 0 -1.421875 L -12.890625 -1.421875 L -12.890625 -10.734375 L -11.359375 -10.734375 L -11.359375 -3.125 L -7.421875 -3.125 L -7.421875 -10.25 L -5.90625 -10.25 L -5.90625 -3.125 L -1.515625 -3.125 L -1.515625 -11.046875 L 0 -11.046875 Z M 0 -1.421875 "/>
</symbol>
<symbol overflow="visible" id="glyph2-2">
<path style="stroke:none;" d="M -3.875 -0.578125 L -5.453125 -0.578125 L -5.453125 -5.4375 L -3.875 -5.4375 Z M -3.875 -0.578125 "/>
</symbol>
<symbol overflow="visible" id="glyph2-3">
<path style="stroke:none;" d="M 3.78125 -4.203125 C 2.6875 -3.335938 1.398438 -2.601562 -0.078125 -2 C -1.554688 -1.394531 -3.085938 -1.09375 -4.671875 -1.09375 C -6.066406 -1.09375 -7.398438 -1.316406 -8.671875 -1.765625 C -10.160156 -2.296875 -11.640625 -3.109375 -13.109375 -4.203125 L -13.109375 -5.34375 C -11.890625 -4.632812 -11.019531 -4.164062 -10.5 -3.9375 C -9.6875 -3.582031 -8.84375 -3.300781 -7.96875 -3.09375 C -6.863281 -2.84375 -5.757812 -2.71875 -4.65625 -2.71875 C -1.84375 -2.71875 0.96875 -3.59375 3.78125 -5.34375 Z M 3.78125 -4.203125 "/>
</symbol>
<symbol overflow="visible" id="glyph2-4">
<path style="stroke:none;" d="M -1.421875 -4.640625 L -0.015625 -4.875 C 0.078125 -4.425781 0.125 -4.023438 0.125 -3.671875 C 0.125 -3.097656 0.0351562 -2.648438 -0.140625 -2.328125 C -0.328125 -2.015625 -0.566406 -1.796875 -0.859375 -1.671875 C -1.160156 -1.546875 -1.785156 -1.484375 -2.734375 -1.484375 L -8.109375 -1.484375 L -8.109375 -0.3125 L -9.328125 -0.3125 L -9.328125 -1.484375 L -11.640625 -1.484375 L -12.59375 -3.046875 L -9.328125 -3.046875 L -9.328125 -4.640625 L -8.109375 -4.640625 L -8.109375 -3.046875 L -2.640625 -3.046875 C -2.191406 -3.046875 -1.898438 -3.070312 -1.765625 -3.125 C -1.640625 -3.1875 -1.539062 -3.28125 -1.46875 -3.40625 C -1.394531 -3.53125 -1.359375 -3.710938 -1.359375 -3.953125 C -1.359375 -4.117188 -1.378906 -4.347656 -1.421875 -4.640625 Z M -1.421875 -4.640625 "/>
</symbol>
<symbol overflow="visible" id="glyph2-5">
<path style="stroke:none;" d="M -7.578125 -9.515625 L -7.578125 -1 L -9.046875 -1 L -9.046875 -9.515625 Z M -3.671875 -9.515625 L -3.671875 -1 L -5.140625 -1 L -5.140625 -9.515625 Z M -3.671875 -9.515625 "/>
</symbol>
<symbol overflow="visible" id="glyph2-6">
<path style="stroke:none;" d="M -6.359375 -0.75 C -7.878906 -0.75 -9.101562 -0.90625 -10.03125 -1.21875 C -10.957031 -1.53125 -11.671875 -1.992188 -12.171875 -2.609375 C -12.679688 -3.234375 -12.9375 -4.015625 -12.9375 -4.953125 C -12.9375 -5.640625 -12.796875 -6.242188 -12.515625 -6.765625 C -12.242188 -7.285156 -11.84375 -7.710938 -11.3125 -8.046875 C -10.789062 -8.390625 -10.148438 -8.660156 -9.390625 -8.859375 C -8.640625 -9.054688 -7.628906 -9.15625 -6.359375 -9.15625 C -4.847656 -9.15625 -3.625 -9 -2.6875 -8.6875 C -1.757812 -8.375 -1.039062 -7.90625 -0.53125 -7.28125 C -0.03125 -6.664062 0.21875 -5.890625 0.21875 -4.953125 C 0.21875 -3.703125 -0.222656 -2.722656 -1.109375 -2.015625 C -2.179688 -1.171875 -3.929688 -0.75 -6.359375 -0.75 Z M -6.359375 -2.375 C -4.242188 -2.375 -2.832031 -2.617188 -2.125 -3.109375 C -1.425781 -3.609375 -1.078125 -4.222656 -1.078125 -4.953125 C -1.078125 -5.671875 -1.425781 -6.28125 -2.125 -6.78125 C -2.832031 -7.28125 -4.242188 -7.53125 -6.359375 -7.53125 C -8.472656 -7.53125 -9.878906 -7.28125 -10.578125 -6.78125 C -11.273438 -6.28125 -11.625 -5.664062 -11.625 -4.9375 C -11.625 -4.207031 -11.316406 -3.625 -10.703125 -3.1875 C -9.921875 -2.644531 -8.472656 -2.375 -6.359375 -2.375 Z M -6.359375 -2.375 "/>
</symbol>
<symbol overflow="visible" id="glyph2-7">
<path style="stroke:none;" d="M 3.78125 -2.21875 L 3.78125 -1.09375 C 0.96875 -2.84375 -1.84375 -3.71875 -4.65625 -3.71875 C -5.757812 -3.71875 -6.851562 -3.59375 -7.9375 -3.34375 C -8.8125 -3.144531 -9.65625 -2.863281 -10.46875 -2.5 C -11 -2.269531 -11.878906 -1.800781 -13.109375 -1.09375 L -13.109375 -2.21875 C -11.640625 -3.320312 -10.160156 -4.140625 -8.671875 -4.671875 C -7.398438 -5.117188 -6.066406 -5.34375 -4.671875 -5.34375 C -3.085938 -5.34375 -1.554688 -5.039062 -0.078125 -4.4375 C 1.398438 -3.832031 2.6875 -3.09375 3.78125 -2.21875 Z M 3.78125 -2.21875 "/>
</symbol>
<symbol overflow="visible" id="glyph3-0">
<path style="stroke:none;" d="M 0 -1.46875 L -7.3125 -1.46875 L -7.3125 -7.3125 L 0 -7.3125 Z M -0.1875 -1.640625 L -0.1875 -7.125 L -7.125 -7.125 L -7.125 -1.640625 Z M -0.1875 -1.640625 "/>
</symbol>
<symbol overflow="visible" id="glyph3-1">
<path style="stroke:none;" d="M 0 -0.78125 L -8.375 -0.78125 L -8.375 -1.8125 L -3.59375 -1.8125 L -6.0625 -4.234375 L -6.0625 -5.578125 L -3.8125 -3.25 L 0 -5.8125 L 0 -4.53125 L -3.109375 -2.53125 L -2.40625 -1.8125 L 0 -1.8125 Z M 0 -0.78125 "/>
</symbol>
<symbol overflow="visible" id="glyph3-2">
<path style="stroke:none;" d="M -7.1875 -0.78125 L -8.375 -0.78125 L -8.375 -1.8125 L -7.1875 -1.8125 Z M 0 -0.78125 L -6.0625 -0.78125 L -6.0625 -1.8125 L 0 -1.8125 Z M 0 -0.78125 "/>
</symbol>
<symbol overflow="visible" id="glyph3-3">
<path style="stroke:none;" d="M 0 -0.765625 L -6.0625 -0.765625 L -6.0625 -1.703125 L -5.203125 -1.703125 C -5.867188 -2.140625 -6.203125 -2.78125 -6.203125 -3.625 C -6.203125 -3.988281 -6.132812 -4.320312 -6 -4.625 C -5.875 -4.9375 -5.703125 -5.164062 -5.484375 -5.3125 C -5.273438 -5.46875 -5.023438 -5.578125 -4.734375 -5.640625 C -4.546875 -5.679688 -4.210938 -5.703125 -3.734375 -5.703125 L 0 -5.703125 L 0 -4.671875 L -3.6875 -4.671875 C -4.101562 -4.671875 -4.414062 -4.628906 -4.625 -4.546875 C -4.832031 -4.472656 -5 -4.332031 -5.125 -4.125 C -5.25 -3.925781 -5.3125 -3.6875 -5.3125 -3.40625 C -5.3125 -2.96875 -5.171875 -2.585938 -4.890625 -2.265625 C -4.617188 -1.953125 -4.09375 -1.796875 -3.3125 -1.796875 L 0 -1.796875 Z M 0 -0.765625 "/>
</symbol>
<symbol overflow="visible" id="glyph4-0">
<path style="stroke:none;" d="M 1.796875 0 L 1.796875 -9 L 9 -9 L 9 0 Z M 2.03125 -0.21875 L 8.78125 -0.21875 L 8.78125 -8.78125 L 2.03125 -8.78125 Z M 2.03125 -0.21875 "/>
</symbol>
<symbol overflow="visible" id="glyph4-1">
<path style="stroke:none;" d="M 1.140625 0 L 1.140625 -10.3125 L 8.59375 -10.3125 L 8.59375 -9.09375 L 2.5 -9.09375 L 2.5 -5.9375 L 8.203125 -5.9375 L 8.203125 -4.734375 L 2.5 -4.734375 L 2.5 -1.21875 L 8.828125 -1.21875 L 8.828125 0 Z M 1.140625 0 "/>
</symbol>
<symbol overflow="visible" id="glyph4-2">
<path style="stroke:none;" d=""/>
</symbol>
<symbol overflow="visible" id="glyph4-3">
<path style="stroke:none;" d="M 7.609375 -6.0625 L 0.796875 -6.0625 L 0.796875 -7.25 L 7.609375 -7.25 Z M 7.609375 -2.9375 L 0.796875 -2.9375 L 0.796875 -4.109375 L 7.609375 -4.109375 Z M 7.609375 -2.9375 "/>
</symbol>
<symbol overflow="visible" id="glyph4-4">
<path style="stroke:none;" d="M 0.609375 -2.71875 L 1.875 -2.890625 C 2.019531 -2.171875 2.265625 -1.648438 2.609375 -1.328125 C 2.960938 -1.015625 3.390625 -0.859375 3.890625 -0.859375 C 4.484375 -0.859375 4.984375 -1.066406 5.390625 -1.484375 C 5.804688 -1.898438 6.015625 -2.410156 6.015625 -3.015625 C 6.015625 -3.597656 5.820312 -4.078125 5.4375 -4.453125 C 5.0625 -4.828125 4.582031 -5.015625 4 -5.015625 C 3.757812 -5.015625 3.460938 -4.96875 3.109375 -4.875 L 3.25 -6 C 3.332031 -5.988281 3.398438 -5.984375 3.453125 -5.984375 C 3.984375 -5.984375 4.460938 -6.125 4.890625 -6.40625 C 5.328125 -6.6875 5.546875 -7.117188 5.546875 -7.703125 C 5.546875 -8.171875 5.390625 -8.554688 5.078125 -8.859375 C 4.765625 -9.160156 4.359375 -9.3125 3.859375 -9.3125 C 3.367188 -9.3125 2.957031 -9.15625 2.625 -8.84375 C 2.300781 -8.539062 2.09375 -8.078125 2 -7.453125 L 0.734375 -7.6875 C 0.890625 -8.53125 1.238281 -9.1875 1.78125 -9.65625 C 2.332031 -10.125 3.015625 -10.359375 3.828125 -10.359375 C 4.390625 -10.359375 4.90625 -10.234375 5.375 -9.984375 C 5.851562 -9.742188 6.21875 -9.414062 6.46875 -9 C 6.71875 -8.582031 6.84375 -8.140625 6.84375 -7.671875 C 6.84375 -7.222656 6.722656 -6.816406 6.484375 -6.453125 C 6.253906 -6.085938 5.90625 -5.796875 5.4375 -5.578125 C 6.039062 -5.441406 6.507812 -5.148438 6.84375 -4.703125 C 7.1875 -4.265625 7.359375 -3.710938 7.359375 -3.046875 C 7.359375 -2.140625 7.03125 -1.375 6.375 -0.75 C 5.71875 -0.125 4.890625 0.1875 3.890625 0.1875 C 2.984375 0.1875 2.226562 -0.0820312 1.625 -0.625 C 1.03125 -1.164062 0.691406 -1.863281 0.609375 -2.71875 Z M 0.609375 -2.71875 "/>
</symbol>
<symbol overflow="visible" id="glyph4-5">
<path style="stroke:none;" d="M 1.3125 0 L 1.3125 -1.4375 L 2.75 -1.4375 L 2.75 0 Z M 1.3125 0 "/>
</symbol>
<symbol overflow="visible" id="glyph4-6">
<path style="stroke:none;" d="M 0.59375 -5.078125 C 0.59375 -6.304688 0.71875 -7.289062 0.96875 -8.03125 C 1.21875 -8.769531 1.585938 -9.34375 2.078125 -9.75 C 2.578125 -10.15625 3.203125 -10.359375 3.953125 -10.359375 C 4.515625 -10.359375 5.003906 -10.242188 5.421875 -10.015625 C 5.835938 -9.796875 6.179688 -9.472656 6.453125 -9.046875 C 6.722656 -8.628906 6.9375 -8.117188 7.09375 -7.515625 C 7.25 -6.921875 7.328125 -6.109375 7.328125 -5.078125 C 7.328125 -3.867188 7.203125 -2.894531 6.953125 -2.15625 C 6.703125 -1.414062 6.328125 -0.84375 5.828125 -0.4375 C 5.335938 -0.03125 4.710938 0.171875 3.953125 0.171875 C 2.960938 0.171875 2.1875 -0.179688 1.625 -0.890625 C 0.9375 -1.753906 0.59375 -3.148438 0.59375 -5.078125 Z M 1.90625 -5.078125 C 1.90625 -3.390625 2.101562 -2.265625 2.5 -1.703125 C 2.894531 -1.140625 3.378906 -0.859375 3.953125 -0.859375 C 4.535156 -0.859375 5.023438 -1.140625 5.421875 -1.703125 C 5.816406 -2.265625 6.015625 -3.390625 6.015625 -5.078125 C 6.015625 -6.773438 5.816406 -7.90625 5.421875 -8.46875 C 5.023438 -9.03125 4.535156 -9.3125 3.953125 -9.3125 C 3.367188 -9.3125 2.898438 -9.0625 2.546875 -8.5625 C 2.117188 -7.9375 1.90625 -6.773438 1.90625 -5.078125 Z M 1.90625 -5.078125 "/>
</symbol>
<symbol overflow="visible" id="glyph4-7">
<path style="stroke:none;" d="M 0.59375 -2.703125 L 1.921875 -2.8125 C 2.023438 -2.164062 2.253906 -1.675781 2.609375 -1.34375 C 2.972656 -1.019531 3.40625 -0.859375 3.90625 -0.859375 C 4.519531 -0.859375 5.035156 -1.085938 5.453125 -1.546875 C 5.878906 -2.015625 6.09375 -2.628906 6.09375 -3.390625 C 6.09375 -4.109375 5.890625 -4.675781 5.484375 -5.09375 C 5.078125 -5.507812 4.546875 -5.71875 3.890625 -5.71875 C 3.484375 -5.71875 3.113281 -5.625 2.78125 -5.4375 C 2.457031 -5.25 2.203125 -5.007812 2.015625 -4.71875 L 0.828125 -4.875 L 1.828125 -10.171875 L 6.953125 -10.171875 L 6.953125 -8.96875 L 2.828125 -8.96875 L 2.28125 -6.1875 C 2.894531 -6.625 3.546875 -6.84375 4.234375 -6.84375 C 5.128906 -6.84375 5.882812 -6.53125 6.5 -5.90625 C 7.125 -5.28125 7.4375 -4.476562 7.4375 -3.5 C 7.4375 -2.5625 7.164062 -1.753906 6.625 -1.078125 C 5.957031 -0.242188 5.050781 0.171875 3.90625 0.171875 C 2.96875 0.171875 2.203125 -0.0859375 1.609375 -0.609375 C 1.015625 -1.140625 0.675781 -1.835938 0.59375 -2.703125 Z M 0.59375 -2.703125 "/>
</symbol>
<symbol overflow="visible" id="glyph5-0">
<path style="stroke:none;" d="M 1.171875 0 L 1.171875 -5.859375 L 5.859375 -5.859375 L 5.859375 0 Z M 1.3125 -0.140625 L 5.71875 -0.140625 L 5.71875 -5.71875 L 1.3125 -5.71875 Z M 1.3125 -0.140625 "/>
</symbol>
<symbol overflow="visible" id="glyph5-1">
<path style="stroke:none;" d="M 0.390625 -3.3125 C 0.390625 -4.101562 0.46875 -4.738281 0.625 -5.21875 C 0.789062 -5.707031 1.035156 -6.082031 1.359375 -6.34375 C 1.679688 -6.601562 2.085938 -6.734375 2.578125 -6.734375 C 2.941406 -6.734375 3.257812 -6.660156 3.53125 -6.515625 C 3.800781 -6.367188 4.023438 -6.160156 4.203125 -5.890625 C 4.378906 -5.617188 4.515625 -5.285156 4.609375 -4.890625 C 4.710938 -4.503906 4.765625 -3.976562 4.765625 -3.3125 C 4.765625 -2.519531 4.679688 -1.878906 4.515625 -1.390625 C 4.359375 -0.910156 4.117188 -0.539062 3.796875 -0.28125 C 3.472656 -0.0195312 3.066406 0.109375 2.578125 0.109375 C 1.929688 0.109375 1.421875 -0.117188 1.046875 -0.578125 C 0.609375 -1.140625 0.390625 -2.050781 0.390625 -3.3125 Z M 1.234375 -3.3125 C 1.234375 -2.207031 1.363281 -1.472656 1.625 -1.109375 C 1.882812 -0.742188 2.203125 -0.5625 2.578125 -0.5625 C 2.953125 -0.5625 3.269531 -0.742188 3.53125 -1.109375 C 3.789062 -1.472656 3.921875 -2.207031 3.921875 -3.3125 C 3.921875 -4.414062 3.789062 -5.148438 3.53125 -5.515625 C 3.269531 -5.878906 2.945312 -6.0625 2.5625 -6.0625 C 2.1875 -6.0625 1.882812 -5.898438 1.65625 -5.578125 C 1.375 -5.171875 1.234375 -4.414062 1.234375 -3.3125 Z M 1.234375 -3.3125 "/>
</symbol>
<symbol overflow="visible" id="glyph6-0">
<path style="stroke:none;" d="M 1.03125 0 L 1.03125 -5.140625 L 5.140625 -5.140625 L 5.140625 0 Z M 1.15625 -0.125 L 5.015625 -0.125 L 5.015625 -5.015625 L 1.15625 -5.015625 Z M 1.15625 -0.125 "/>
</symbol>
<symbol overflow="visible" id="glyph6-1">
<path style="stroke:none;" d="M 0.34375 -2.90625 C 0.34375 -3.601562 0.410156 -4.164062 0.546875 -4.59375 C 0.691406 -5.019531 0.90625 -5.347656 1.1875 -5.578125 C 1.476562 -5.804688 1.835938 -5.921875 2.265625 -5.921875 C 2.578125 -5.921875 2.851562 -5.851562 3.09375 -5.71875 C 3.332031 -5.59375 3.53125 -5.410156 3.6875 -5.171875 C 3.84375 -4.929688 3.960938 -4.640625 4.046875 -4.296875 C 4.140625 -3.953125 4.1875 -3.488281 4.1875 -2.90625 C 4.1875 -2.21875 4.113281 -1.660156 3.96875 -1.234375 C 3.832031 -0.804688 3.617188 -0.476562 3.328125 -0.25 C 3.046875 -0.0195312 2.691406 0.09375 2.265625 0.09375 C 1.691406 0.09375 1.242188 -0.109375 0.921875 -0.515625 C 0.535156 -1.003906 0.34375 -1.800781 0.34375 -2.90625 Z M 1.078125 -2.90625 C 1.078125 -1.9375 1.191406 -1.289062 1.421875 -0.96875 C 1.648438 -0.65625 1.929688 -0.5 2.265625 -0.5 C 2.597656 -0.5 2.875 -0.65625 3.09375 -0.96875 C 3.320312 -1.289062 3.4375 -1.9375 3.4375 -2.90625 C 3.4375 -3.875 3.320312 -4.515625 3.09375 -4.828125 C 2.875 -5.148438 2.59375 -5.3125 2.25 -5.3125 C 1.914062 -5.3125 1.648438 -5.171875 1.453125 -4.890625 C 1.203125 -4.535156 1.078125 -3.875 1.078125 -2.90625 Z M 1.078125 -2.90625 "/>
</symbol>
<symbol overflow="visible" id="glyph6-2">
<path style="stroke:none;" d="M 0.34375 -1.546875 L 1.109375 -1.609375 C 1.160156 -1.234375 1.285156 -0.953125 1.484375 -0.765625 C 1.691406 -0.585938 1.941406 -0.5 2.234375 -0.5 C 2.585938 -0.5 2.882812 -0.628906 3.125 -0.890625 C 3.363281 -1.148438 3.484375 -1.5 3.484375 -1.9375 C 3.484375 -2.34375 3.363281 -2.664062 3.125 -2.90625 C 2.894531 -3.144531 2.59375 -3.265625 2.21875 -3.265625 C 1.988281 -3.265625 1.78125 -3.210938 1.59375 -3.109375 C 1.40625 -3.003906 1.257812 -2.867188 1.15625 -2.703125 L 0.46875 -2.78125 L 1.046875 -5.8125 L 3.96875 -5.8125 L 3.96875 -5.125 L 1.625 -5.125 L 1.296875 -3.53125 C 1.648438 -3.78125 2.023438 -3.90625 2.421875 -3.90625 C 2.929688 -3.90625 3.363281 -3.726562 3.71875 -3.375 C 4.070312 -3.019531 4.25 -2.5625 4.25 -2 C 4.25 -1.46875 4.09375 -1.003906 3.78125 -0.609375 C 3.40625 -0.140625 2.890625 0.09375 2.234375 0.09375 C 1.703125 0.09375 1.265625 -0.0507812 0.921875 -0.34375 C 0.585938 -0.644531 0.394531 -1.046875 0.34375 -1.546875 Z M 0.34375 -1.546875 "/>
</symbol>
<symbol overflow="visible" id="glyph6-3">
<path style="stroke:none;" d="M 3.0625 0 L 2.34375 0 L 2.34375 -4.609375 C 2.164062 -4.441406 1.9375 -4.273438 1.65625 -4.109375 C 1.375 -3.941406 1.117188 -3.816406 0.890625 -3.734375 L 0.890625 -4.4375 C 1.296875 -4.625 1.648438 -4.851562 1.953125 -5.125 C 2.253906 -5.394531 2.46875 -5.660156 2.59375 -5.921875 L 3.0625 -5.921875 Z M 3.0625 0 "/>
</symbol>
<symbol overflow="visible" id="glyph6-4">
<path style="stroke:none;" d="M 0.75 0 L 0.75 -0.828125 L 1.578125 -0.828125 L 1.578125 0 Z M 0.75 0 "/>
</symbol>
<symbol overflow="visible" id="glyph7-0">
<path style="stroke:none;" d="M 1.15625 0 L 1.15625 -5.78125 L 5.78125 -5.78125 L 5.78125 0 Z M 1.296875 -0.140625 L 5.640625 -0.140625 L 5.640625 -5.640625 L 1.296875 -5.640625 Z M 1.296875 -0.140625 "/>
</symbol>
<symbol overflow="visible" id="glyph7-1">
<path style="stroke:none;" d="M 2.390625 -0.734375 L 2.5 -0.015625 C 2.269531 0.0351562 2.066406 0.0625 1.890625 0.0625 C 1.597656 0.0625 1.367188 0.015625 1.203125 -0.078125 C 1.035156 -0.171875 0.921875 -0.289062 0.859375 -0.4375 C 0.796875 -0.59375 0.765625 -0.914062 0.765625 -1.40625 L 0.765625 -4.171875 L 0.15625 -4.171875 L 0.15625 -4.796875 L 0.765625 -4.796875 L 0.765625 -5.984375 L 1.5625 -6.46875 L 1.5625 -4.796875 L 2.390625 -4.796875 L 2.390625 -4.171875 L 1.5625 -4.171875 L 1.5625 -1.359375 C 1.5625 -1.128906 1.578125 -0.976562 1.609375 -0.90625 C 1.640625 -0.84375 1.6875 -0.789062 1.75 -0.75 C 1.8125 -0.71875 1.90625 -0.703125 2.03125 -0.703125 C 2.113281 -0.703125 2.234375 -0.710938 2.390625 -0.734375 Z M 2.390625 -0.734375 "/>
</symbol>
<symbol overflow="visible" id="glyph8-0">
<path style="stroke:none;" d="M 1.03125 0 L 1.03125 -5.140625 L 5.140625 -5.140625 L 5.140625 0 Z M 1.15625 -0.125 L 5.015625 -0.125 L 5.015625 -5.015625 L 1.15625 -5.015625 Z M 1.15625 -0.125 "/>
</symbol>
<symbol overflow="visible" id="glyph8-1">
<path style="stroke:none;" d="M 0.34375 -2.90625 C 0.34375 -3.601562 0.410156 -4.164062 0.546875 -4.59375 C 0.691406 -5.019531 0.90625 -5.347656 1.1875 -5.578125 C 1.476562 -5.804688 1.835938 -5.921875 2.265625 -5.921875 C 2.578125 -5.921875 2.851562 -5.851562 3.09375 -5.71875 C 3.332031 -5.59375 3.53125 -5.410156 3.6875 -5.171875 C 3.84375 -4.929688 3.960938 -4.640625 4.046875 -4.296875 C 4.140625 -3.953125 4.1875 -3.488281 4.1875 -2.90625 C 4.1875 -2.21875 4.113281 -1.660156 3.96875 -1.234375 C 3.832031 -0.804688 3.617188 -0.476562 3.328125 -0.25 C 3.046875 -0.0195312 2.691406 0.09375 2.265625 0.09375 C 1.691406 0.09375 1.242188 -0.109375 0.921875 -0.515625 C 0.535156 -1.003906 0.34375 -1.800781 0.34375 -2.90625 Z M 1.078125 -2.90625 C 1.078125 -1.9375 1.191406 -1.289062 1.421875 -0.96875 C 1.648438 -0.65625 1.929688 -0.5 2.265625 -0.5 C 2.597656 -0.5 2.875 -0.65625 3.09375 -0.96875 C 3.320312 -1.289062 3.4375 -1.9375 3.4375 -2.90625 C 3.4375 -3.875 3.320312 -4.515625 3.09375 -4.828125 C 2.875 -5.148438 2.59375 -5.3125 2.25 -5.3125 C 1.914062 -5.3125 1.648438 -5.171875 1.453125 -4.890625 C 1.203125 -4.535156 1.078125 -3.875 1.078125 -2.90625 Z M 1.078125 -2.90625 "/>
</symbol>
<symbol overflow="visible" id="glyph8-2">
<path style="stroke:none;" d="M 0.75 0 L 0.75 -0.828125 L 1.578125 -0.828125 L 1.578125 0 Z M 0.75 0 "/>
</symbol>
<symbol overflow="visible" id="glyph8-3">
<path style="stroke:none;" d="M 3.0625 0 L 2.34375 0 L 2.34375 -4.609375 C 2.164062 -4.441406 1.9375 -4.273438 1.65625 -4.109375 C 1.375 -3.941406 1.117188 -3.816406 0.890625 -3.734375 L 0.890625 -4.4375 C 1.296875 -4.625 1.648438 -4.851562 1.953125 -5.125 C 2.253906 -5.394531 2.46875 -5.660156 2.59375 -5.921875 L 3.0625 -5.921875 Z M 3.0625 0 "/>
</symbol>
<symbol overflow="visible" id="glyph8-4">
<path style="stroke:none;" d="M 0.34375 -1.546875 L 1.109375 -1.609375 C 1.160156 -1.234375 1.285156 -0.953125 1.484375 -0.765625 C 1.691406 -0.585938 1.941406 -0.5 2.234375 -0.5 C 2.585938 -0.5 2.882812 -0.628906 3.125 -0.890625 C 3.363281 -1.148438 3.484375 -1.5 3.484375 -1.9375 C 3.484375 -2.34375 3.363281 -2.664062 3.125 -2.90625 C 2.894531 -3.144531 2.59375 -3.265625 2.21875 -3.265625 C 1.988281 -3.265625 1.78125 -3.210938 1.59375 -3.109375 C 1.40625 -3.003906 1.257812 -2.867188 1.15625 -2.703125 L 0.46875 -2.78125 L 1.046875 -5.8125 L 3.96875 -5.8125 L 3.96875 -5.125 L 1.625 -5.125 L 1.296875 -3.53125 C 1.648438 -3.78125 2.023438 -3.90625 2.421875 -3.90625 C 2.929688 -3.90625 3.363281 -3.726562 3.71875 -3.375 C 4.070312 -3.019531 4.25 -2.5625 4.25 -2 C 4.25 -1.46875 4.09375 -1.003906 3.78125 -0.609375 C 3.40625 -0.140625 2.890625 0.09375 2.234375 0.09375 C 1.703125 0.09375 1.265625 -0.0507812 0.921875 -0.34375 C 0.585938 -0.644531 0.394531 -1.046875 0.34375 -1.546875 Z M 0.34375 -1.546875 "/>
</symbol>
<symbol overflow="visible" id="glyph9-0">
<path style="stroke:none;" d="M 0 -1.15625 L -5.78125 -1.15625 L -5.78125 -5.78125 L 0 -5.78125 Z M -0.140625 -1.296875 L -0.140625 -5.640625 L -5.640625 -5.640625 L -5.640625 -1.296875 Z M -0.140625 -1.296875 "/>
</symbol>
<symbol overflow="visible" id="glyph9-1">
<path style="stroke:none;" d="M 0 -0.734375 L -6.625 -0.734375 L -6.625 -5.515625 L -5.84375 -5.515625 L -5.84375 -1.609375 L -3.8125 -1.609375 L -3.8125 -5.265625 L -3.03125 -5.265625 L -3.03125 -1.609375 L -0.78125 -1.609375 L -0.78125 -5.671875 L 0 -5.671875 Z M 0 -0.734375 "/>
</symbol>
<symbol overflow="visible" id="glyph9-2">
<path style="stroke:none;" d="M -1.984375 -0.296875 L -2.8125 -0.296875 L -2.8125 -2.796875 L -1.984375 -2.796875 Z M -1.984375 -0.296875 "/>
</symbol>
<symbol overflow="visible" id="glyph9-3">
<path style="stroke:none;" d="M 1.953125 -2.15625 C 1.378906 -1.707031 0.71875 -1.328125 -0.03125 -1.015625 C -0.789062 -0.710938 -1.578125 -0.5625 -2.390625 -0.5625 C -3.109375 -0.5625 -3.796875 -0.675781 -4.453125 -0.90625 C -5.210938 -1.175781 -5.972656 -1.59375 -6.734375 -2.15625 L -6.734375 -2.75 C -6.109375 -2.382812 -5.660156 -2.144531 -5.390625 -2.03125 C -4.972656 -1.84375 -4.539062 -1.695312 -4.09375 -1.59375 C -3.53125 -1.457031 -2.960938 -1.390625 -2.390625 -1.390625 C -0.941406 -1.390625 0.503906 -1.84375 1.953125 -2.75 Z M 1.953125 -2.15625 "/>
</symbol>
<symbol overflow="visible" id="glyph9-4">
<path style="stroke:none;" d="M -0.734375 -2.390625 L -0.015625 -2.5 C 0.0351562 -2.269531 0.0625 -2.066406 0.0625 -1.890625 C 0.0625 -1.597656 0.015625 -1.367188 -0.078125 -1.203125 C -0.171875 -1.035156 -0.289062 -0.921875 -0.4375 -0.859375 C -0.59375 -0.796875 -0.914062 -0.765625 -1.40625 -0.765625 L -4.171875 -0.765625 L -4.171875 -0.15625 L -4.796875 -0.15625 L -4.796875 -0.765625 L -5.984375 -0.765625 L -6.46875 -1.5625 L -4.796875 -1.5625 L -4.796875 -2.390625 L -4.171875 -2.390625 L -4.171875 -1.5625 L -1.359375 -1.5625 C -1.128906 -1.5625 -0.976562 -1.578125 -0.90625 -1.609375 C -0.84375 -1.640625 -0.789062 -1.6875 -0.75 -1.75 C -0.71875 -1.8125 -0.703125 -1.90625 -0.703125 -2.03125 C -0.703125 -2.113281 -0.710938 -2.234375 -0.734375 -2.390625 Z M -0.734375 -2.390625 "/>
</symbol>
<symbol overflow="visible" id="glyph9-5">
<path style="stroke:none;" d="M 1.953125 -1.140625 L 1.953125 -0.5625 C 0.503906 -1.457031 -0.941406 -1.90625 -2.390625 -1.90625 C -2.960938 -1.90625 -3.523438 -1.84375 -4.078125 -1.71875 C -4.523438 -1.613281 -4.957031 -1.46875 -5.375 -1.28125 C -5.644531 -1.164062 -6.097656 -0.925781 -6.734375 -0.5625 L -6.734375 -1.140625 C -5.972656 -1.703125 -5.210938 -2.117188 -4.453125 -2.390625 C -3.796875 -2.628906 -3.109375 -2.75 -2.390625 -2.75 C -1.578125 -2.75 -0.789062 -2.59375 -0.03125 -2.28125 C 0.71875 -1.96875 1.378906 -1.585938 1.953125 -1.140625 Z M 1.953125 -1.140625 "/>
</symbol>
<symbol overflow="visible" id="glyph10-0">
<path style="stroke:none;" d="M 0 -0.75 L -3.765625 -0.75 L -3.765625 -3.765625 L 0 -3.765625 Z M -0.09375 -0.84375 L -0.09375 -3.671875 L -3.671875 -3.671875 L -3.671875 -0.84375 Z M -0.09375 -0.84375 "/>
</symbol>
<symbol overflow="visible" id="glyph10-1">
<path style="stroke:none;" d="M 0 -0.40625 L -4.3125 -0.40625 L -4.3125 -0.921875 L -1.84375 -0.921875 L -3.125 -2.171875 L -3.125 -2.859375 L -1.96875 -1.671875 L 0 -2.984375 L 0 -2.328125 L -1.59375 -1.296875 L -1.234375 -0.921875 L 0 -0.921875 Z M 0 -0.40625 "/>
</symbol>
<symbol overflow="visible" id="glyph10-2">
<path style="stroke:none;" d="M -3.703125 -0.40625 L -4.3125 -0.40625 L -4.3125 -0.921875 L -3.703125 -0.921875 Z M 0 -0.40625 L -3.125 -0.40625 L -3.125 -0.921875 L 0 -0.921875 Z M 0 -0.40625 "/>
</symbol>
<symbol overflow="visible" id="glyph10-3">
<path style="stroke:none;" d="M 0 -0.390625 L -3.125 -0.390625 L -3.125 -0.875 L -2.671875 -0.875 C -3.015625 -1.101562 -3.1875 -1.429688 -3.1875 -1.859375 C -3.1875 -2.046875 -3.148438 -2.21875 -3.078125 -2.375 C -3.015625 -2.539062 -2.925781 -2.660156 -2.8125 -2.734375 C -2.707031 -2.816406 -2.582031 -2.875 -2.4375 -2.90625 C -2.332031 -2.925781 -2.160156 -2.9375 -1.921875 -2.9375 L 0 -2.9375 L 0 -2.40625 L -1.890625 -2.40625 C -2.109375 -2.40625 -2.269531 -2.382812 -2.375 -2.34375 C -2.488281 -2.300781 -2.578125 -2.226562 -2.640625 -2.125 C -2.703125 -2.019531 -2.734375 -1.894531 -2.734375 -1.75 C -2.734375 -1.53125 -2.660156 -1.335938 -2.515625 -1.171875 C -2.367188 -1.003906 -2.097656 -0.921875 -1.703125 -0.921875 L 0 -0.921875 Z M 0 -0.390625 "/>
</symbol>
<symbol overflow="visible" id="glyph10-4">
<path style="stroke:none;" d="M 0 -0.515625 L -2.703125 -0.515625 L -2.703125 -0.0625 L -3.125 -0.0625 L -3.125 -0.515625 L -3.453125 -0.515625 C -3.660156 -0.515625 -3.816406 -0.535156 -3.921875 -0.578125 C -4.054688 -0.628906 -4.164062 -0.71875 -4.25 -0.84375 C -4.332031 -0.976562 -4.375 -1.160156 -4.375 -1.390625 C -4.375 -1.535156 -4.359375 -1.695312 -4.328125 -1.875 L -3.859375 -1.796875 C -3.878906 -1.691406 -3.890625 -1.585938 -3.890625 -1.484375 C -3.890625 -1.328125 -3.851562 -1.210938 -3.78125 -1.140625 C -3.71875 -1.078125 -3.59375 -1.046875 -3.40625 -1.046875 L -3.125 -1.046875 L -3.125 -1.65625 L -2.703125 -1.65625 L -2.703125 -1.046875 L 0 -1.046875 Z M 0 -0.515625 "/>
</symbol>
</g>
<clipPath id="clip1">
  <path d="M 394 275 L 411.472656 275 L 411.472656 288 L 394 288 Z M 394 275 "/>
</clipPath>
<clipPath id="clip2">
  <path d="M 220 294 L 225 294 L 225 307.039062 L 220 307.039062 Z M 220 294 "/>
</clipPath>
<clipPath id="clip3">
  <path d="M 46.226562 142 L 403.347656 142 L 403.347656 253 L 46.226562 253 Z M 46.226562 142 "/>
</clipPath>
<clipPath id="clip4">
  <path d="M 46.226562 240 L 403 240 L 403 262 L 46.226562 262 Z M 46.226562 240 "/>
</clipPath>
<clipPath id="clip5">
  <path d="M 46.226562 5.773438 L 403.347656 5.773438 L 403.347656 253 L 46.226562 253 Z M 46.226562 5.773438 "/>
</clipPath>
<clipPath id="clip6">
  <path d="M 46.226562 234 L 403.347656 234 L 403.347656 269 L 46.226562 269 Z M 46.226562 234 "/>
</clipPath>
<clipPath id="clip7">
  <path d="M 225 11.054688 L 398.117188 11.054688 L 398.117188 147.910156 L 225 147.910156 Z M 225 11.054688 "/>
</clipPath>
<clipPath id="clip8">
  <path d="M 226 11.054688 L 398.117188 11.054688 L 398.117188 147.910156 L 226 147.910156 Z M 226 11.054688 "/>
</clipPath>
</defs>
<g id="surface1">
<path style="fill:none;stroke-width:1.5;stroke-linecap:butt;stroke-linejoin:round;stroke:rgb(0%,0%,0%);stroke-opacity:1;stroke-miterlimit:10;" d="M 46.226562 271.886719 L 46.226562 268.386719 "/>
<path style="fill:none;stroke-width:1.5;stroke-linecap:butt;stroke-linejoin:round;stroke:rgb(0%,0%,0%);stroke-opacity:1;stroke-miterlimit:10;" d="M 46.226562 5.773438 L 46.226562 9.273438 "/>
<g style="fill:rgb(0%,0%,0%);fill-opacity:1;">
  <use xlink:href="#glyph0-1" x="41.775391" y="286.838555"/>
</g>
<path style="fill:none;stroke-width:1.5;stroke-linecap:butt;stroke-linejoin:round;stroke:rgb(0%,0%,0%);stroke-opacity:1;stroke-miterlimit:10;" d="M 135.507812 271.886719 L 135.507812 268.386719 "/>
<path style="fill:none;stroke-width:1.422154;stroke-linecap:butt;stroke-linejoin:round;stroke:rgb(0%,0%,0%);stroke-opacity:1;stroke-miterlimit:10;" d="M 131.453125 5.773438 L 131.453125 9.09375 "/>
<g style="fill:rgb(0%,0%,0%);fill-opacity:1;">
  <use xlink:href="#glyph0-2" x="131.055386" y="286.838555"/>
</g>
<path style="fill:none;stroke-width:1.5;stroke-linecap:butt;stroke-linejoin:round;stroke:rgb(0%,0%,0%);stroke-opacity:1;stroke-miterlimit:10;" d="M 224.789062 271.886719 L 224.789062 268.386719 "/>
<g style="fill:rgb(0%,0%,0%);fill-opacity:1;">
  <use xlink:href="#glyph0-3" x="215.882253" y="286.838555"/>
  <use xlink:href="#glyph0-1" x="224.778253" y="286.838555"/>
</g>
<path style="fill:none;stroke-width:1.5;stroke-linecap:butt;stroke-linejoin:round;stroke:rgb(0%,0%,0%);stroke-opacity:1;stroke-miterlimit:10;" d="M 314.070312 271.886719 L 314.070312 268.386719 "/>
<g style="fill:rgb(0%,0%,0%);fill-opacity:1;">
  <use xlink:href="#glyph0-3" x="305.162259" y="286.838555"/>
  <use xlink:href="#glyph0-2" x="314.058259" y="286.838555"/>
</g>
<path style="fill:none;stroke-width:1.5;stroke-linecap:butt;stroke-linejoin:round;stroke:rgb(0%,0%,0%);stroke-opacity:1;stroke-miterlimit:10;" d="M 403.347656 271.886719 L 403.347656 268.386719 "/>
<g clip-path="url(#clip1)" clip-rule="nonzero">
<g style="fill:rgb(0%,0%,0%);fill-opacity:1;">
  <use xlink:href="#glyph0-4" x="394.442265" y="286.838555"/>
  <use xlink:href="#glyph0-1" x="403.338265" y="286.838555"/>
</g>
</g>
<g clip-path="url(#clip2)" clip-rule="nonzero">
<g style="fill:rgb(0%,0%,0%);fill-opacity:1;">
  <use xlink:href="#glyph1-1" x="219.78852" y="306.916675"/>
</g>
</g>
<path style="fill:none;stroke-width:1.5;stroke-linecap:butt;stroke-linejoin:round;stroke:rgb(0%,0%,0%);stroke-opacity:1;stroke-miterlimit:10;" d="M 46.226562 251.414062 L 49.726562 251.414062 "/>
<path style="fill:none;stroke-width:1.5;stroke-linecap:butt;stroke-linejoin:round;stroke:rgb(0%,0%,0%);stroke-opacity:1;stroke-miterlimit:10;" d="M 403.347656 251.414062 L 399.847656 251.414062 "/>
<g style="fill:rgb(0%,0%,0%);fill-opacity:1;">
  <use xlink:href="#glyph0-1" x="20.462893" y="257.141839"/>
  <use xlink:href="#glyph0-5" x="29.358893" y="257.141839"/>
  <use xlink:href="#glyph0-1" x="33.790893" y="257.141839"/>
</g>
<path style="fill:none;stroke-width:1.5;stroke-linecap:butt;stroke-linejoin:round;stroke:rgb(0%,0%,0%);stroke-opacity:1;stroke-miterlimit:10;" d="M 46.226562 210.476562 L 49.726562 210.476562 "/>
<path style="fill:none;stroke-width:1.5;stroke-linecap:butt;stroke-linejoin:round;stroke:rgb(0%,0%,0%);stroke-opacity:1;stroke-miterlimit:10;" d="M 403.347656 210.476562 L 399.847656 210.476562 "/>
<g style="fill:rgb(0%,0%,0%);fill-opacity:1;">
  <use xlink:href="#glyph0-1" x="20.462893" y="216.201547"/>
  <use xlink:href="#glyph0-5" x="29.358893" y="216.201547"/>
  <use xlink:href="#glyph0-3" x="33.790893" y="216.201547"/>
</g>
<path style="fill:none;stroke-width:1.5;stroke-linecap:butt;stroke-linejoin:round;stroke:rgb(0%,0%,0%);stroke-opacity:1;stroke-miterlimit:10;" d="M 46.226562 169.535156 L 49.726562 169.535156 "/>
<path style="fill:none;stroke-width:1.5;stroke-linecap:butt;stroke-linejoin:round;stroke:rgb(0%,0%,0%);stroke-opacity:1;stroke-miterlimit:10;" d="M 400.347656 175.535156 L 396.847656 175.535156 "/>
<g style="fill:rgb(0%,0%,0%);fill-opacity:1;">
  <use xlink:href="#glyph0-1" x="20.462893" y="175.261233"/>
  <use xlink:href="#glyph0-5" x="29.358893" y="175.261233"/>
  <use xlink:href="#glyph0-4" x="33.790893" y="175.261233"/>
</g>
<path style="fill:none;stroke-width:1.5;stroke-linecap:butt;stroke-linejoin:round;stroke:rgb(0%,0%,0%);stroke-opacity:1;stroke-miterlimit:10;" d="M 46.226562 128.59375 L 49.726562 128.59375 "/>
<g style="fill:rgb(0%,0%,0%);fill-opacity:1;">
  <use xlink:href="#glyph0-1" x="20.462893" y="134.320919"/>
  <use xlink:href="#glyph0-5" x="29.358893" y="134.320919"/>
  <use xlink:href="#glyph0-6" x="33.790893" y="134.320919"/>
</g>
<path style="fill:none;stroke-width:1.5;stroke-linecap:butt;stroke-linejoin:round;stroke:rgb(0%,0%,0%);stroke-opacity:1;stroke-miterlimit:10;" d="M 46.226562 87.652344 L 49.726562 87.652344 "/>
<g style="fill:rgb(0%,0%,0%);fill-opacity:1;">
  <use xlink:href="#glyph0-1" x="20.462893" y="93.380616"/>
  <use xlink:href="#glyph0-5" x="29.358893" y="93.380616"/>
  <use xlink:href="#glyph0-7" x="33.790893" y="93.380616"/>
</g>
<path style="fill:none;stroke-width:1.5;stroke-linecap:butt;stroke-linejoin:round;stroke:rgb(0%,0%,0%);stroke-opacity:1;stroke-miterlimit:10;" d="M 46.226562 46.714844 L 49.726562 46.714844 "/>
<g style="fill:rgb(0%,0%,0%);fill-opacity:1;">
  <use xlink:href="#glyph0-1" x="20.462893" y="52.440313"/>
  <use xlink:href="#glyph0-5" x="29.358893" y="52.440313"/>
  <use xlink:href="#glyph0-2" x="33.790893" y="52.440313"/>
</g>
<path style="fill:none;stroke-width:1.5;stroke-linecap:butt;stroke-linejoin:round;stroke:rgb(0%,0%,0%);stroke-opacity:1;stroke-miterlimit:10;" d="M 46.226562 5.773438 L 49.726562 5.773438 "/>
<g style="fill:rgb(0%,0%,0%);fill-opacity:1;">
  <use xlink:href="#glyph0-1" x="20.462893" y="11.499999"/>
  <use xlink:href="#glyph0-5" x="29.358893" y="11.499999"/>
  <use xlink:href="#glyph0-8" x="33.790893" y="11.499999"/>
</g>
<g style="fill:rgb(0%,0%,0%);fill-opacity:1;">
  <use xlink:href="#glyph2-1" x="12.884765" y="189.829429"/>
</g>
<g style="fill:rgb(0%,0%,0%);fill-opacity:1;">
  <use xlink:href="#glyph3-1" x="16.484765" y="177.805991"/>
  <use xlink:href="#glyph3-2" x="16.484765" y="171.955992"/>
  <use xlink:href="#glyph3-3" x="16.484765" y="169.358592"/>
</g>
<g style="fill:rgb(0%,0%,0%);fill-opacity:1;">
  <use xlink:href="#glyph2-2" x="12.884765" y="162.838218"/>
  <use xlink:href="#glyph2-1" x="12.884765" y="156.844218"/>
</g>
<g style="fill:rgb(0%,0%,0%);fill-opacity:1;">
  <use xlink:href="#glyph3-1" x="16.484765" y="144.803063"/>
  <use xlink:href="#glyph3-2" x="16.484765" y="138.953063"/>
  <use xlink:href="#glyph3-3" x="16.484765" y="136.355664"/>
</g>
<g style="fill:rgb(0%,0%,0%);fill-opacity:1;">
  <use xlink:href="#glyph2-3" x="12.884765" y="129.835291"/>
  <use xlink:href="#glyph2-4" x="12.884765" y="123.841291"/>
  <use xlink:href="#glyph2-5" x="12.884765" y="118.855291"/>
  <use xlink:href="#glyph2-6" x="12.884765" y="108.361291"/>
  <use xlink:href="#glyph2-7" x="12.884765" y="98.353291"/>
</g>
<g clip-path="url(#clip3)" clip-rule="nonzero">
<path style="fill:none;stroke-width:2;stroke-linecap:square;stroke-linejoin:round;stroke:rgb(100%,0%,0%);stroke-opacity:1;stroke-miterlimit:10;" d="M 46.226562 -251.414062 L 54.976562 -251.304688 L 56.585938 -251.042969 L 58.011719 -250.578125 L 59.800781 -249.730469 L 61.226562 -249.113281 L 62.121094 -248.972656 L 62.835938 -249.085938 L 63.550781 -249.425781 L 64.621094 -250.257812 L 65.511719 -250.925781 L 66.046875 -251.074219 L 66.40625 -250.976562 L 66.761719 -250.65625 L 67.121094 -250.050781 L 67.65625 -248.484375 L 68.191406 -245.949219 L 68.726562 -242.289062 L 69.441406 -235.453125 L 70.15625 -226.332031 L 71.046875 -212.082031 L 74.441406 -154.089844 L 75.15625 -147.382812 L 75.691406 -144.617188 L 76.046875 -143.90625 L 76.226562 -143.894531 L 76.40625 -144.105469 L 76.761719 -145.1875 L 77.121094 -147.109375 L 77.65625 -151.429688 L 78.371094 -159.425781 L 79.441406 -174.503906 L 81.40625 -202.574219 L 82.296875 -212.285156 L 83.011719 -218.058594 L 83.726562 -222.125 L 84.441406 -224.738281 L 84.976562 -225.96875 L 85.511719 -226.761719 L 86.226562 -227.410156 L 88.726562 -229.21875 L 90.511719 -230.75 L 91.226562 -231.089844 L 91.941406 -231.152344 L 92.652344 -230.925781 L 93.367188 -230.4375 L 94.441406 -229.378906 L 96.226562 -227.566406 L 97.117188 -226.980469 L 97.832031 -226.742188 L 98.546875 -226.714844 L 99.4375 -226.933594 L 100.6875 -227.550781 L 102.832031 -228.679688 L 103.902344 -228.984375 L 104.976562 -229.046875 L 106.226562 -228.863281 L 110.332031 -227.992188 L 111.761719 -228.070312 L 113.722656 -228.441406 L 115.867188 -228.800781 L 117.296875 -228.820312 L 118.902344 -228.597656 L 124.082031 -227.640625 L 125.6875 -227.695312 L 128.367188 -228.070312 L 130.6875 -228.3125 L 132.652344 -228.289062 L 135.867188 -227.957031 L 138.367188 -227.800781 L 140.867188 -227.878906 L 145.507812 -228.082031 L 148.902344 -227.921875 L 152.472656 -227.808594 L 156.757812 -227.964844 L 160.328125 -227.976562 L 168.542969 -227.820312 L 174.792969 -227.882812 L 183.363281 -227.800781 L 190.148438 -227.789062 L 197.824219 -227.765625 L 206.398438 -227.734375 L 223.359375 -227.714844 L 289.25 -227.671875 L 403.527344 -227.65625 " transform="matrix(1,0,0,-1,0,0)"/>
</g>
<g clip-path="url(#clip4)" clip-rule="nonzero">
<path style="fill:none;stroke-width:2;stroke-linecap:butt;stroke-linejoin:round;stroke:rgb(100%,0%,0%);stroke-opacity:1;stroke-dasharray:7.4,3.2;stroke-miterlimit:10;" d="M 46.226562 -251.414062 L 49.976562 -251.316406 L 52.476562 -251.015625 L 55.335938 -250.421875 L 57.65625 -250.007812 L 58.90625 -249.996094 L 59.976562 -250.210938 L 60.871094 -250.589844 L 61.761719 -251.1875 L 62.835938 -252.199219 L 63.90625 -253.519531 L 65.511719 -255.914062 L 67.835938 -259.378906 L 68.726562 -260.359375 L 69.441406 -260.882812 L 70.15625 -261.125 L 70.691406 -261.097656 L 71.226562 -260.878906 L 71.941406 -260.285156 L 72.65625 -259.347656 L 73.546875 -257.734375 L 74.621094 -255.269531 L 76.582031 -249.984375 L 78.191406 -245.925781 L 79.261719 -243.816406 L 80.15625 -242.578125 L 80.871094 -241.96875 L 81.40625 -241.738281 L 81.941406 -241.703125 L 82.476562 -241.84375 L 83.191406 -242.292969 L 84.082031 -243.199219 L 85.15625 -244.648438 L 89.261719 -250.601562 L 90.332031 -251.621094 L 91.402344 -252.316406 L 92.476562 -252.710938 L 93.546875 -252.855469 L 94.796875 -252.789062 L 96.761719 -252.414062 L 100.332031 -251.710938 L 102.832031 -251.46875 L 106.226562 -251.386719 L 154.4375 -251.414062 L 403.527344 -251.414062 " transform="matrix(1,0,0,-1,0,0)"/>
</g>
<g clip-path="url(#clip5)" clip-rule="nonzero">
<path style="fill:none;stroke-width:2;stroke-linecap:square;stroke-linejoin:round;stroke:rgb(0%,0%,0%);stroke-opacity:1;stroke-miterlimit:10;" d="M 46.226562 -251.414062 L 53.726562 -251.320312 L 55.15625 -251.039062 L 56.226562 -250.585938 L 57.121094 -249.96875 L 58.011719 -249.101562 L 59.261719 -247.503906 L 60.871094 -245.398438 L 61.585938 -244.816406 L 62.121094 -244.675781 L 62.476562 -244.753906 L 63.011719 -245.164062 L 63.550781 -245.925781 L 64.261719 -247.386719 L 65.511719 -250.058594 L 65.871094 -250.429688 L 66.046875 -250.476562 L 66.226562 -250.40625 L 66.585938 -249.835938 L 66.941406 -248.570312 L 67.296875 -246.4375 L 67.835938 -241.28125 L 68.371094 -233.34375 L 68.90625 -222.273438 L 69.621094 -202.402344 L 70.511719 -169.984375 L 71.941406 -107.601562 L 73.371094 -48.675781 L 74.082031 -26.253906 L 74.796875 -10.578125 L 75.332031 -3.691406 L 75.691406 -1.46875 L 75.871094 -1.0625 L 76.046875 -1.121094 L 76.226562 -1.632812 L 76.582031 -3.984375 L 76.941406 -8.027344 L 77.476562 -16.996094 L 78.191406 -33.574219 L 79.261719 -65.222656 L 81.40625 -130.296875 L 82.296875 -149.878906 L 83.011719 -160.6875 L 83.546875 -166.019531 L 84.082031 -169.25 L 84.441406 -170.417969 L 84.796875 -170.957031 L 85.15625 -170.992188 L 85.511719 -170.667969 L 86.046875 -169.769531 L 87.117188 -167.839844 L 87.65625 -167.332031 L 88.011719 -167.265625 L 88.367188 -167.445312 L 88.726562 -167.867188 L 89.261719 -168.929688 L 89.976562 -170.988281 L 92.652344 -179.703125 L 93.191406 -180.679688 L 93.726562 -181.234375 L 94.082031 -181.371094 L 94.441406 -181.328125 L 94.976562 -180.964844 L 95.511719 -180.304688 L 96.402344 -178.757812 L 98.546875 -174.816406 L 99.261719 -173.929688 L 99.976562 -173.367188 L 100.6875 -173.125 L 101.402344 -173.171875 L 102.296875 -173.527344 L 103.726562 -174.433594 L 105.152344 -175.242188 L 106.046875 -175.523438 L 106.9375 -175.585938 L 107.832031 -175.4375 L 109.082031 -174.976562 L 112.296875 -173.621094 L 113.546875 -173.402344 L 114.972656 -173.410156 L 120.332031 -173.777344 L 122.296875 -173.460938 L 126.222656 -172.746094 L 128.1875 -172.652344 L 132.117188 -172.78125 L 134.972656 -172.730469 L 143.902344 -172.324219 L 150.328125 -172.230469 L 157.648438 -172.09375 L 177.113281 -171.917969 L 203.539062 -171.800781 L 263.359375 -171.773438 L 403.527344 -171.832031 " transform="matrix(1,0,0,-1,0,0)"/>
</g>
<g clip-path="url(#clip6)" clip-rule="nonzero">
<path style="fill:none;stroke-width:2;stroke-linecap:butt;stroke-linejoin:round;stroke:rgb(0%,0%,0%);stroke-opacity:1;stroke-dasharray:7.4,3.2;stroke-miterlimit:10;" d="M 46.226562 -251.414062 L 49.441406 -251.3125 L 51.40625 -251.011719 L 53.371094 -250.476562 L 58.011719 -249.027344 L 58.90625 -249.050781 L 59.800781 -249.320312 L 60.511719 -249.746094 L 61.226562 -250.394531 L 62.121094 -251.535156 L 63.011719 -253.054688 L 64.085938 -255.332031 L 65.691406 -259.382812 L 67.65625 -264.300781 L 68.546875 -266.039062 L 69.261719 -267.019531 L 69.796875 -267.460938 L 70.335938 -267.617188 L 70.871094 -267.46875 L 71.40625 -266.996094 L 71.941406 -266.199219 L 72.65625 -264.636719 L 73.546875 -261.949219 L 74.621094 -257.835938 L 76.40625 -249.84375 L 78.011719 -242.945312 L 79.082031 -239.261719 L 79.976562 -237.027344 L 80.691406 -235.871094 L 81.226562 -235.378906 L 81.761719 -235.210938 L 82.296875 -235.355469 L 82.832031 -235.78125 L 83.546875 -236.746094 L 84.441406 -238.46875 L 85.691406 -241.496094 L 88.546875 -248.632812 L 89.617188 -250.683594 L 90.511719 -251.988281 L 91.402344 -252.917969 L 92.296875 -253.5 L 93.191406 -253.773438 L 94.082031 -253.808594 L 95.152344 -253.617188 L 96.941406 -253.015625 L 99.796875 -252.039062 L 101.761719 -251.632812 L 103.902344 -251.425781 L 107.117188 -251.371094 L 143.722656 -251.414062 L 403.527344 -251.414062 " transform="matrix(1,0,0,-1,0,0)"/>
</g>
<path style="fill:none;stroke-width:1.5;stroke-linecap:square;stroke-linejoin:miter;stroke:rgb(0%,0%,0%);stroke-opacity:1;stroke-miterlimit:10;" d="M 46.226562 271.886719 L 46.226562 5.773438 "/>
<path style="fill:none;stroke-width:1.5;stroke-linecap:square;stroke-linejoin:miter;stroke:rgb(0%,0%,0%);stroke-opacity:1;stroke-miterlimit:10;" d="M 403.347656 271.886719 L 403.347656 5.773438 "/>
<path style="fill:none;stroke-width:1.5;stroke-linecap:square;stroke-linejoin:miter;stroke:rgb(0%,0%,0%);stroke-opacity:1;stroke-miterlimit:10;" d="M 46.226562 271.886719 L 403.347656 271.886719 "/>
<path style="fill:none;stroke-width:1.5;stroke-linecap:square;stroke-linejoin:miter;stroke:rgb(0%,0%,0%);stroke-opacity:1;stroke-miterlimit:10;" d="M 46.226562 5.773438 L 403.347656 5.773438 "/>
<path style="fill:none;stroke-width:2.732683;stroke-linecap:square;stroke-linejoin:round;stroke:rgb(100%,0%,0%);stroke-opacity:1;stroke-miterlimit:10;" d="M 91.367188 19.316406 L 105.03125 19.316406 "/>
<g style="fill:rgb(0%,0%,0%);fill-opacity:1;">
  <use xlink:href="#glyph4-1" x="110.48672" y="25.100327"/>
</g>
<g style="fill:rgb(0%,0%,0%);fill-opacity:1;">
  <use xlink:href="#glyph5-1" x="120.113036" y="27.982593"/>
</g>
<g style="fill:rgb(0%,0%,0%);fill-opacity:1;">
  <use xlink:href="#glyph4-2" x="125.32729" y="25.100327"/>
  <use xlink:href="#glyph4-3" x="129.319228" y="25.100327"/>
  <use xlink:href="#glyph4-2" x="137.721032" y="25.100327"/>
  <use xlink:href="#glyph4-4" x="141.71297" y="25.100327"/>
  <use xlink:href="#glyph4-5" x="149.725668" y="25.100327"/>
  <use xlink:href="#glyph4-6" x="153.717606" y="25.100327"/>
</g>
<path style="fill:none;stroke-width:2.732683;stroke-linecap:square;stroke-linejoin:round;stroke:rgb(0%,0%,0%);stroke-opacity:1;stroke-miterlimit:10;" d="M 91.367188 38.636719 L 105.03125 38.636719 "/>
<g style="fill:rgb(0%,0%,0%);fill-opacity:1;">
  <use xlink:href="#glyph4-1" x="110.48672" y="45.478852"/>
</g>
<g style="fill:rgb(0%,0%,0%);fill-opacity:1;">
  <use xlink:href="#glyph5-1" x="120.113036" y="48.361118"/>
</g>
<g style="fill:rgb(0%,0%,0%);fill-opacity:1;">
  <use xlink:href="#glyph4-2" x="125.32729" y="45.478852"/>
  <use xlink:href="#glyph4-3" x="129.319228" y="45.478852"/>
  <use xlink:href="#glyph4-2" x="137.721032" y="45.478852"/>
  <use xlink:href="#glyph4-7" x="141.71297" y="45.478852"/>
  <use xlink:href="#glyph4-5" x="149.725668" y="45.478852"/>
  <use xlink:href="#glyph4-6" x="153.717606" y="45.478852"/>
</g>
<path style="fill:none;stroke-width:0.771428;stroke-linecap:butt;stroke-linejoin:round;stroke:rgb(0%,0%,0%);stroke-opacity:1;stroke-miterlimit:10;" d="M 214.457031 147.910156 L 214.457031 146.109375 "/>
<path style="fill:none;stroke-width:0.771428;stroke-linecap:butt;stroke-linejoin:round;stroke:rgb(0%,0%,0%);stroke-opacity:1;stroke-miterlimit:10;" d="M 214.457031 11.054688 L 214.457031 12.855469 "/>
<g style="fill:rgb(0%,0%,0%);fill-opacity:1;">
  <use xlink:href="#glyph6-1" x="212.166863" y="155.601329"/>
</g>
<path style="fill:none;stroke-width:0.771428;stroke-linecap:butt;stroke-linejoin:round;stroke:rgb(0%,0%,0%);stroke-opacity:1;stroke-miterlimit:10;" d="M 260.371094 147.910156 L 260.371094 146.109375 "/>
<path style="fill:none;stroke-width:0.771428;stroke-linecap:butt;stroke-linejoin:round;stroke:rgb(0%,0%,0%);stroke-opacity:1;stroke-miterlimit:10;" d="M 260.371094 11.054688 L 260.371094 12.855469 "/>
<g style="fill:rgb(0%,0%,0%);fill-opacity:1;">
  <use xlink:href="#glyph6-2" x="258.082145" y="155.601329"/>
</g>
<path style="fill:none;stroke-width:0.771428;stroke-linecap:butt;stroke-linejoin:round;stroke:rgb(0%,0%,0%);stroke-opacity:1;stroke-miterlimit:10;" d="M 306.289062 147.910156 L 306.289062 146.109375 "/>
<path style="fill:none;stroke-width:0.771428;stroke-linecap:butt;stroke-linejoin:round;stroke:rgb(0%,0%,0%);stroke-opacity:1;stroke-miterlimit:10;" d="M 306.289062 11.054688 L 306.289062 12.855469 "/>
<g style="fill:rgb(0%,0%,0%);fill-opacity:1;">
  <use xlink:href="#glyph6-3" x="301.707426" y="155.601329"/>
  <use xlink:href="#glyph6-1" x="306.282508" y="155.601329"/>
</g>
<path style="fill:none;stroke-width:0.771428;stroke-linecap:butt;stroke-linejoin:round;stroke:rgb(0%,0%,0%);stroke-opacity:1;stroke-miterlimit:10;" d="M 352.203125 147.910156 L 352.203125 146.109375 "/>
<path style="fill:none;stroke-width:0.771428;stroke-linecap:butt;stroke-linejoin:round;stroke:rgb(0%,0%,0%);stroke-opacity:1;stroke-miterlimit:10;" d="M 352.203125 11.054688 L 352.203125 12.855469 "/>
<g style="fill:rgb(0%,0%,0%);fill-opacity:1;">
  <use xlink:href="#glyph6-3" x="347.622644" y="155.601329"/>
  <use xlink:href="#glyph6-2" x="352.197726" y="155.601329"/>
</g>
<path style="fill:none;stroke-width:0.771428;stroke-linecap:butt;stroke-linejoin:round;stroke:rgb(0%,0%,0%);stroke-opacity:1;stroke-miterlimit:10;" d="M 398.117188 147.910156 L 398.117188 146.109375 "/>
<path style="fill:none;stroke-width:0.771428;stroke-linecap:butt;stroke-linejoin:round;stroke:rgb(0%,0%,0%);stroke-opacity:1;stroke-miterlimit:10;" d="M 398.117188 11.054688 L 398.117188 12.855469 "/>
<g style="fill:rgb(0%,0%,0%);fill-opacity:1;">
  <use xlink:href="#glyph7-1" x="303.716281" y="165.927201"/>
</g>
<path style="fill:none;stroke-width:0.771428;stroke-linecap:butt;stroke-linejoin:round;stroke:rgb(0%,0%,0%);stroke-opacity:1;stroke-miterlimit:10;" d="M 214.457031 147.910156 L 216.257812 147.910156 "/>
<path style="fill:none;stroke-width:0.771428;stroke-linecap:butt;stroke-linejoin:round;stroke:rgb(0%,0%,0%);stroke-opacity:1;stroke-miterlimit:10;" d="M 398.117188 147.910156 L 396.320312 147.910156 "/>
<g style="fill:rgb(0%,0%,0%);fill-opacity:1;">
  <use xlink:href="#glyph8-1" x="192.045373" y="150.856225"/>
  <use xlink:href="#glyph8-2" x="196.620455" y="150.856225"/>
  <use xlink:href="#glyph8-1" x="198.899768" y="150.856225"/>
  <use xlink:href="#glyph8-3" x="203.47485" y="150.856225"/>
  <use xlink:href="#glyph8-4" x="208.049932" y="150.856225"/>
</g>
<path style=" stroke:none;fill-rule:nonzero;fill:rgb(0%,0%,0%);fill-opacity:1;" d="M 187.699219 147.613281 L 191.585938 147.613281 L 191.585938 148.289062 L 187.699219 148.289062 Z M 187.699219 147.613281 "/>
<path style="fill:none;stroke-width:0.771428;stroke-linecap:butt;stroke-linejoin:round;stroke:rgb(0%,0%,0%);stroke-opacity:1;stroke-miterlimit:10;" d="M 214.457031 120.539062 L 216.257812 120.539062 "/>
<path style="fill:none;stroke-width:0.771428;stroke-linecap:butt;stroke-linejoin:round;stroke:rgb(0%,0%,0%);stroke-opacity:1;stroke-miterlimit:10;" d="M 398.117188 120.539062 L 396.320312 120.539062 "/>
<g style="fill:rgb(0%,0%,0%);fill-opacity:1;">
  <use xlink:href="#glyph8-1" x="192.045373" y="123.484731"/>
  <use xlink:href="#glyph8-2" x="196.620455" y="123.484731"/>
  <use xlink:href="#glyph8-1" x="198.899768" y="123.484731"/>
  <use xlink:href="#glyph8-3" x="203.47485" y="123.484731"/>
  <use xlink:href="#glyph8-1" x="208.049932" y="123.484731"/>
</g>
<path style=" stroke:none;fill-rule:nonzero;fill:rgb(0%,0%,0%);fill-opacity:1;" d="M 187.699219 120.242188 L 191.585938 120.242188 L 191.585938 120.917969 L 187.699219 120.917969 Z M 187.699219 120.242188 "/>
<path style="fill:none;stroke-width:0.771428;stroke-linecap:butt;stroke-linejoin:round;stroke:rgb(0%,0%,0%);stroke-opacity:1;stroke-miterlimit:10;" d="M 214.457031 93.167969 L 216.257812 93.167969 "/>
<path style="fill:none;stroke-width:0.771428;stroke-linecap:butt;stroke-linejoin:round;stroke:rgb(0%,0%,0%);stroke-opacity:1;stroke-miterlimit:10;" d="M 398.117188 93.167969 L 396.320312 93.167969 "/>
<g style="fill:rgb(0%,0%,0%);fill-opacity:1;">
  <use xlink:href="#glyph8-1" x="192.045373" y="96.113239"/>
  <use xlink:href="#glyph8-2" x="196.620455" y="96.113239"/>
  <use xlink:href="#glyph8-1" x="198.899768" y="96.113239"/>
  <use xlink:href="#glyph8-1" x="203.47485" y="96.113239"/>
  <use xlink:href="#glyph8-4" x="208.049932" y="96.113239"/>
</g>
<path style=" stroke:none;fill-rule:nonzero;fill:rgb(0%,0%,0%);fill-opacity:1;" d="M 187.699219 92.871094 L 191.585938 92.871094 L 191.585938 93.546875 L 187.699219 93.546875 Z M 187.699219 92.871094 "/>
<path style="fill:none;stroke-width:0.771428;stroke-linecap:butt;stroke-linejoin:round;stroke:rgb(0%,0%,0%);stroke-opacity:1;stroke-miterlimit:10;" d="M 214.457031 65.796875 L 216.257812 65.796875 "/>
<path style="fill:none;stroke-width:0.771428;stroke-linecap:butt;stroke-linejoin:round;stroke:rgb(0%,0%,0%);stroke-opacity:1;stroke-miterlimit:10;" d="M 398.117188 65.796875 L 396.320312 65.796875 "/>
<g style="fill:rgb(0%,0%,0%);fill-opacity:1;">
  <use xlink:href="#glyph6-1" x="192.045403" y="68.741743"/>
  <use xlink:href="#glyph6-4" x="196.620485" y="68.741743"/>
  <use xlink:href="#glyph6-1" x="198.899797" y="68.741743"/>
  <use xlink:href="#glyph6-1" x="203.474878" y="68.741743"/>
  <use xlink:href="#glyph6-1" x="208.04996" y="68.741743"/>
</g>
<path style="fill:none;stroke-width:0.771428;stroke-linecap:butt;stroke-linejoin:round;stroke:rgb(0%,0%,0%);stroke-opacity:1;stroke-miterlimit:10;" d="M 214.457031 38.425781 L 216.257812 38.425781 "/>
<path style="fill:none;stroke-width:0.771428;stroke-linecap:butt;stroke-linejoin:round;stroke:rgb(0%,0%,0%);stroke-opacity:1;stroke-miterlimit:10;" d="M 398.117188 38.425781 L 396.320312 38.425781 "/>
<g style="fill:rgb(0%,0%,0%);fill-opacity:1;">
  <use xlink:href="#glyph6-1" x="192.045403" y="41.370247"/>
  <use xlink:href="#glyph6-4" x="196.620485" y="41.370247"/>
  <use xlink:href="#glyph6-1" x="198.899797" y="41.370247"/>
  <use xlink:href="#glyph6-1" x="203.474878" y="41.370247"/>
  <use xlink:href="#glyph6-2" x="208.04996" y="41.370247"/>
</g>
<path style="fill:none;stroke-width:0.771428;stroke-linecap:butt;stroke-linejoin:round;stroke:rgb(0%,0%,0%);stroke-opacity:1;stroke-miterlimit:10;" d="M 214.457031 11.054688 L 216.257812 11.054688 "/>
<path style="fill:none;stroke-width:0.771428;stroke-linecap:butt;stroke-linejoin:round;stroke:rgb(0%,0%,0%);stroke-opacity:1;stroke-miterlimit:10;" d="M 398.117188 11.054688 L 396.320312 11.054688 "/>
<g style="fill:rgb(0%,0%,0%);fill-opacity:1;">
  <use xlink:href="#glyph9-1" x="183.342695" y="82.568091"/>
</g>
<g style="fill:rgb(0%,0%,0%);fill-opacity:1;">
  <use xlink:href="#glyph10-1" x="185.194122" y="76.384614"/>
  <use xlink:href="#glyph10-2" x="185.194122" y="73.376045"/>
  <use xlink:href="#glyph10-3" x="185.194122" y="72.040241"/>
</g>
<g style="fill:rgb(0%,0%,0%);fill-opacity:1;">
  <use xlink:href="#glyph9-2" x="183.342695" y="68.686908"/>
  <use xlink:href="#glyph9-1" x="183.342695" y="65.604282"/>
</g>
<g style="fill:rgb(0%,0%,0%);fill-opacity:1;">
  <use xlink:href="#glyph10-1" x="185.194122" y="59.411693"/>
  <use xlink:href="#glyph10-2" x="185.194122" y="56.403124"/>
  <use xlink:href="#glyph10-3" x="185.194122" y="55.06732"/>
</g>
<g style="fill:rgb(0%,0%,0%);fill-opacity:1;">
  <use xlink:href="#glyph9-3" x="183.342695" y="51.713988"/>
  <use xlink:href="#glyph9-4" x="183.342695" y="48.631362"/>
</g>
<g style="fill:rgb(0%,0%,0%);fill-opacity:1;">
  <use xlink:href="#glyph10-4" x="185.194122" y="46.054842"/>
  <use xlink:href="#glyph10-2" x="185.194122" y="44.388095"/>
  <use xlink:href="#glyph10-3" x="185.194122" y="43.052291"/>
</g>
<g style="fill:rgb(0%,0%,0%);fill-opacity:1;">
  <use xlink:href="#glyph9-5" x="183.342695" y="39.696889"/>
</g>
<g clip-path="url(#clip7)" clip-rule="nonzero">
<path style="fill:none;stroke-width:1.028571;stroke-linecap:square;stroke-linejoin:round;stroke:rgb(100%,0%,0%);stroke-opacity:1;stroke-miterlimit:10;" d="M 226.402344 -167.976562 L 226.761719 -48.097656 L 226.914062 10.789062 M 233.722656 10.789062 L 234.015625 -19.589844 L 234.292969 -38.496094 L 234.566406 -50.792969 L 234.84375 -58.691406 L 235.210938 -65.660156 L 235.855469 -76.636719 L 236.3125 -86.6875 L 237.140625 -105.519531 L 237.414062 -109.820312 L 237.597656 -111.675781 L 237.78125 -112.597656 L 237.875 -112.695312 L 237.964844 -112.542969 L 238.148438 -111.5 L 238.332031 -109.5 L 238.609375 -104.882812 L 238.976562 -96.347656 L 240.351562 -60.960938 L 240.628906 -56.730469 L 240.902344 -54.082031 L 241.085938 -53.210938 L 241.179688 -53.035156 L 241.273438 -53.03125 L 241.363281 -53.1875 L 241.546875 -53.957031 L 241.824219 -56.125 L 242.191406 -60.460938 L 243.75 -81.164062 L 244.027344 -83.078125 L 244.300781 -84.167969 L 244.484375 -84.441406 L 244.578125 -84.449219 L 244.667969 -84.371094 L 244.851562 -83.988281 L 245.128906 -82.90625 L 245.496094 -80.746094 L 246.78125 -72.152344 L 247.058594 -71.050781 L 247.332031 -70.40625 L 247.515625 -70.25 L 247.699219 -70.304688 L 247.882812 -70.5625 L 248.160156 -71.300781 L 248.527344 -72.824219 L 249.078125 -75.769531 L 249.71875 -79.152344 L 250.085938 -80.582031 L 250.363281 -81.265625 L 250.546875 -81.511719 L 250.730469 -81.582031 L 250.914062 -81.464844 L 251.097656 -81.171875 L 251.371094 -80.40625 L 251.742188 -78.859375 L 252.199219 -76.292969 L 253.578125 -68.078125 L 253.945312 -66.644531 L 254.21875 -65.929688 L 254.496094 -65.550781 L 254.679688 -65.480469 L 254.863281 -65.558594 L 255.046875 -65.769531 L 255.320312 -66.316406 L 255.6875 -67.398438 L 256.238281 -69.492188 L 257.066406 -72.671875 L 257.433594 -73.742188 L 257.800781 -74.457031 L 258.078125 -74.734375 L 258.261719 -74.792969 L 258.445312 -74.746094 L 258.628906 -74.605469 L 258.902344 -74.226562 L 259.269531 -73.457031 L 259.820312 -71.9375 L 260.738281 -69.320312 L 261.199219 -68.367188 L 261.566406 -67.894531 L 261.839844 -67.726562 L 262.117188 -67.714844 L 262.394531 -67.855469 L 262.667969 -68.121094 L 263.035156 -68.636719 L 263.863281 -70.078125 L 264.414062 -70.921875 L 264.78125 -71.304688 L 265.054688 -71.464844 L 265.332031 -71.511719 L 265.605469 -71.441406 L 265.882812 -71.265625 L 266.25 -70.878906 L 266.800781 -70.085938 L 267.8125 -68.554688 L 268.269531 -68.078125 L 268.636719 -67.867188 L 268.914062 -67.820312 L 269.1875 -67.863281 L 269.554688 -68.054688 L 270.015625 -68.460938 L 271.667969 -70.179688 L 272.035156 -70.347656 L 272.402344 -70.382812 L 272.769531 -70.273438 L 273.136719 -70.042969 L 273.597656 -69.609375 L 275.339844 -67.78125 L 275.800781 -67.554688 L 276.167969 -67.5 L 276.535156 -67.554688 L 276.992188 -67.753906 L 277.636719 -68.191406 L 278.648438 -68.890625 L 279.105469 -69.078125 L 279.566406 -69.140625 L 280.023438 -69.070312 L 280.484375 -68.882812 L 281.125 -68.476562 L 282.410156 -67.628906 L 282.960938 -67.421875 L 283.421875 -67.355469 L 283.972656 -67.402344 L 284.617188 -67.578125 L 286.085938 -68.035156 L 286.636719 -68.078125 L 287.1875 -68.011719 L 287.828125 -67.816406 L 290.035156 -67.011719 L 290.675781 -66.960938 L 291.410156 -67.039062 L 293.890625 -67.460938 L 294.625 -67.386719 L 295.542969 -67.164062 L 297.105469 -66.769531 L 297.929688 -66.695312 L 298.847656 -66.742188 L 301.328125 -66.972656 L 302.339844 -66.886719 L 305.1875 -66.546875 L 306.378906 -66.59375 L 308.492188 -66.703125 L 309.683594 -66.632812 L 312.625 -66.394531 L 314.277344 -66.445312 L 316.113281 -66.472656 L 317.859375 -66.367188 L 319.96875 -66.253906 L 322.449219 -66.285156 L 324.378906 -66.242188 L 328.050781 -66.117188 L 332.09375 -66.078125 L 335.582031 -66.003906 L 340.171875 -65.957031 L 343.9375 -65.925781 L 349.632812 -65.871094 L 391.507812 -65.785156 L 398.210938 -65.796875 " transform="matrix(1,0,0,-1,0,0)"/>
</g>
<g clip-path="url(#clip8)" clip-rule="nonzero">
<path style="fill:none;stroke-width:1.028571;stroke-linecap:square;stroke-linejoin:round;stroke:rgb(0%,0%,0%);stroke-opacity:1;stroke-miterlimit:10;" d="M 226.820312 -167.976562 L 226.996094 10.789062 M 233.65625 10.789062 L 233.925781 -31.246094 L 234.109375 -46.90625 L 234.292969 -54.078125 L 234.382812 -55.046875 L 234.476562 -54.578125 L 234.660156 -50.207031 L 234.933594 -38.234375 L 235.484375 -12.421875 L 235.667969 -7.1875 L 235.855469 -4.785156 L 235.945312 -4.753906 L 236.039062 -5.539062 L 236.222656 -9.574219 L 236.40625 -16.800781 L 236.679688 -33.050781 L 237.046875 -62.472656 L 238.242188 -165.484375 L 238.28125 -167.976562 M 240.0625 -167.976562 L 240.535156 -144.304688 L 241.273438 -109.316406 L 241.640625 -96.410156 L 241.914062 -89.515625 L 242.191406 -85.109375 L 242.375 -83.511719 L 242.558594 -82.910156 L 242.648438 -82.957031 L 242.742188 -83.21875 L 242.925781 -84.328125 L 243.199219 -87.222656 L 243.566406 -92.675781 L 244.667969 -110.328125 L 245.035156 -114.003906 L 245.3125 -115.558594 L 245.496094 -116 L 245.585938 -116.042969 L 245.679688 -115.96875 L 245.863281 -115.484375 L 246.046875 -114.589844 L 246.320312 -112.558594 L 246.691406 -108.863281 L 247.515625 -98.792969 L 248.066406 -92.769531 L 248.433594 -89.734375 L 248.800781 -87.679688 L 249.078125 -86.800781 L 249.261719 -86.515625 L 249.445312 -86.453125 L 249.628906 -86.589844 L 249.8125 -86.894531 L 250.085938 -87.609375 L 250.546875 -89.195312 L 251.1875 -91.394531 L 251.554688 -92.230469 L 251.832031 -92.535156 L 252.015625 -92.566406 L 252.199219 -92.449219 L 252.382812 -92.1875 L 252.660156 -91.535156 L 253.027344 -90.226562 L 253.484375 -88.042969 L 255.136719 -79.507812 L 255.503906 -78.261719 L 255.871094 -77.402344 L 256.148438 -77.007812 L 256.421875 -76.8125 L 256.699219 -76.792969 L 256.976562 -76.910156 L 257.34375 -77.226562 L 258.535156 -78.4375 L 258.902344 -78.589844 L 259.179688 -78.578125 L 259.453125 -78.460938 L 259.730469 -78.238281 L 260.097656 -77.78125 L 260.554688 -77.019531 L 261.566406 -75.011719 L 262.207031 -73.859375 L 262.667969 -73.226562 L 263.128906 -72.777344 L 263.585938 -72.511719 L 264.046875 -72.394531 L 264.6875 -72.378906 L 265.699219 -72.378906 L 266.25 -72.25 L 266.800781 -71.996094 L 267.441406 -71.554688 L 269.738281 -69.808594 L 270.382812 -69.542969 L 271.117188 -69.378906 L 273.6875 -68.972656 L 274.605469 -68.625 L 276.808594 -67.742188 L 277.726562 -67.523438 L 279.015625 -67.351562 L 280.851562 -67.101562 L 282.777344 -66.691406 L 284.433594 -66.382812 L 286.269531 -66.179688 L 289.757812 -65.804688 L 292.238281 -65.574219 L 298.480469 -65.214844 L 302.890625 -65.078125 L 308.859375 -64.972656 L 317.675781 -64.949219 L 329.429688 -65.039062 L 362.761719 -65.464844 L 390.589844 -65.742188 L 398.210938 -65.796875 " transform="matrix(1,0,0,-1,0,0)"/>
</g>
<path style="fill:none;stroke-width:0.771428;stroke-linecap:square;stroke-linejoin:miter;stroke:rgb(0%,0%,0%);stroke-opacity:1;stroke-miterlimit:10;" d="M 214.457031 147.910156 L 214.457031 11.054688 "/>
<path style="fill:none;stroke-width:0.771428;stroke-linecap:square;stroke-linejoin:miter;stroke:rgb(0%,0%,0%);stroke-opacity:1;stroke-miterlimit:10;" d="M 398.117188 147.910156 L 398.117188 11.054688 "/>
<path style="fill:none;stroke-width:0.771428;stroke-linecap:square;stroke-linejoin:miter;stroke:rgb(0%,0%,0%);stroke-opacity:1;stroke-miterlimit:10;" d="M 214.457031 147.910156 L 398.117188 147.910156 "/>
<path style="fill:none;stroke-width:0.771428;stroke-linecap:square;stroke-linejoin:miter;stroke:rgb(0%,0%,0%);stroke-opacity:1;stroke-miterlimit:10;" d="M 214.457031 11.054688 L 398.117188 11.054688 "/>
</g>
</svg>
