<?xml version="1.0" encoding="utf-8" standalone="no"?>
<!DOCTYPE svg PUBLIC "-//W3C//DTD SVG 1.1//EN"
  "http://www.w3.org/Graphics/SVG/1.1/DTD/svg11.dtd">
<!-- Created with matplotlib (https://matplotlib.org/) -->
<svg height="345.6pt" version="1.1" viewBox="0 0 460.8 345.6" width="460.8pt" xmlns="http://www.w3.org/2000/svg" xmlns:xlink="http://www.w3.org/1999/xlink">
 <defs>
  <style type="text/css">
*{stroke-linecap:butt;stroke-linejoin:round;}
  </style>
 </defs>
 <g id="figure_1">
  <g id="patch_1">
   <path d="M 0 345.6 
L 460.8 345.6 
L 460.8 0 
L 0 0 
z
" style="fill:#ffffff;"/>
  </g>
  <g id="axes_1">
   <g id="patch_2">
    <path d="M 57.6 162.432 
L 414.72 162.432 
L 414.72 41.472 
L 57.6 41.472 
z
" style="fill:#ffffff;"/>
   </g>
   <g id="matplotlib.axis_1">
    <g id="xtick_1">
     <g id="line2d_1">
      <defs>
       <path d="M 0 0 
L 0 -3.5 
" id="m6a36a61413" style="stroke:#000000;stroke-width:1.5;"/>
      </defs>
      <g>
       <use style="stroke:#000000;stroke-width:1.5;" x="57.6" xlink:href="#m6a36a61413" y="162.432"/>
      </g>
     </g>
     <g id="line2d_2">
      <defs>
       <path d="M 0 0 
L 0 3.5 
" id="m3352161ae8" style="stroke:#000000;stroke-width:1.5;"/>
      </defs>
      <g>
       <use style="stroke:#000000;stroke-width:1.5;" x="57.6" xlink:href="#m3352161ae8" y="41.472"/>
      </g>
     </g>
    </g>
    <g id="xtick_2">
     <g id="line2d_3">
      <g>
       <use style="stroke:#000000;stroke-width:1.5;" x="129.024" xlink:href="#m6a36a61413" y="162.432"/>
      </g>
     </g>
     <g id="line2d_4">
      <g>
       <use style="stroke:#000000;stroke-width:1.5;" x="129.024" xlink:href="#m3352161ae8" y="41.472"/>
      </g>
     </g>
    </g>
    <g id="xtick_3">
     <g id="line2d_5">
      <g>
       <use style="stroke:#000000;stroke-width:1.5;" x="200.448" xlink:href="#m6a36a61413" y="162.432"/>
      </g>
     </g>
     <g id="line2d_6">
      <g>
       <use style="stroke:#000000;stroke-width:1.5;" x="200.448" xlink:href="#m3352161ae8" y="41.472"/>
      </g>
     </g>
    </g>
    <g id="xtick_4">
     <g id="line2d_7">
      <g>
       <use style="stroke:#000000;stroke-width:1.5;" x="271.872" xlink:href="#m6a36a61413" y="162.432"/>
      </g>
     </g>
     <g id="line2d_8">
      <g>
       <use style="stroke:#000000;stroke-width:1.5;" x="271.872" xlink:href="#m3352161ae8" y="41.472"/>
      </g>
     </g>
    </g>
    <g id="xtick_5">
     <g id="line2d_9">
      <g>
       <use style="stroke:#000000;stroke-width:1.5;" x="343.296" xlink:href="#m6a36a61413" y="162.432"/>
      </g>
     </g>
     <g id="line2d_10">
      <g>
       <use style="stroke:#000000;stroke-width:1.5;" x="343.296" xlink:href="#m3352161ae8" y="41.472"/>
      </g>
     </g>
    </g>
    <g id="xtick_6">
     <g id="line2d_11">
      <g>
       <use style="stroke:#000000;stroke-width:1.5;" x="414.72" xlink:href="#m6a36a61413" y="162.432"/>
      </g>
     </g>
     <g id="line2d_12">
      <g>
       <use style="stroke:#000000;stroke-width:1.5;" x="414.72" xlink:href="#m3352161ae8" y="41.472"/>
      </g>
     </g>
    </g>
   </g>
   <g id="matplotlib.axis_2">
    <g id="ytick_1">
     <g id="line2d_13">
      <defs>
       <path d="M 0 0 
L 3.5 0 
" id="m79ab72b709" style="stroke:#000000;stroke-width:1.5;"/>
      </defs>
      <g>
       <use style="stroke:#000000;stroke-width:1.5;" x="57.6" xlink:href="#m79ab72b709" y="136.964988"/>
      </g>
     </g>
     <g id="line2d_14">
      <defs>
       <path d="M 0 0 
L -3.5 0 
" id="m6fa6f076c1" style="stroke:#000000;stroke-width:1.5;"/>
      </defs>
      <g>
       <use style="stroke:#000000;stroke-width:1.5;" x="414.72" xlink:href="#m6fa6f076c1" y="136.964988"/>
      </g>
     </g>
     <g id="text_1">
      <!-- 0.2 -->
      <defs>
       <path d="M 4.15625 35.296875 
Q 4.15625 48 6.765625 55.734375 
Q 9.375 63.484375 14.515625 67.671875 
Q 19.671875 71.875 27.484375 71.875 
Q 33.25 71.875 37.59375 69.546875 
Q 41.9375 67.234375 44.765625 62.859375 
Q 47.609375 58.5 49.21875 52.21875 
Q 50.828125 45.953125 50.828125 35.296875 
Q 50.828125 22.703125 48.234375 14.96875 
Q 45.65625 7.234375 40.5 3 
Q 35.359375 -1.21875 27.484375 -1.21875 
Q 17.140625 -1.21875 11.234375 6.203125 
Q 4.15625 15.140625 4.15625 35.296875 
z
M 13.1875 35.296875 
Q 13.1875 17.671875 17.3125 11.828125 
Q 21.4375 6 27.484375 6 
Q 33.546875 6 37.671875 11.859375 
Q 41.796875 17.71875 41.796875 35.296875 
Q 41.796875 52.984375 37.671875 58.78125 
Q 33.546875 64.59375 27.390625 64.59375 
Q 21.34375 64.59375 17.71875 59.46875 
Q 13.1875 52.9375 13.1875 35.296875 
z
" id="ArialMT-48"/>
       <path d="M 9.078125 0 
L 9.078125 10.015625 
L 19.09375 10.015625 
L 19.09375 0 
z
" id="ArialMT-46"/>
       <path d="M 50.34375 8.453125 
L 50.34375 0 
L 3.03125 0 
Q 2.9375 3.171875 4.046875 6.109375 
Q 5.859375 10.9375 9.828125 15.625 
Q 13.8125 20.3125 21.34375 26.46875 
Q 33.015625 36.03125 37.109375 41.625 
Q 41.21875 47.21875 41.21875 52.203125 
Q 41.21875 57.421875 37.46875 61 
Q 33.734375 64.59375 27.734375 64.59375 
Q 21.390625 64.59375 17.578125 60.78125 
Q 13.765625 56.984375 13.71875 50.25 
L 4.6875 51.171875 
Q 5.609375 61.28125 11.65625 66.578125 
Q 17.71875 71.875 27.9375 71.875 
Q 38.234375 71.875 44.234375 66.15625 
Q 50.25 60.453125 50.25 52 
Q 50.25 47.703125 48.484375 43.546875 
Q 46.734375 39.40625 42.65625 34.8125 
Q 38.578125 30.21875 29.109375 22.21875 
Q 21.1875 15.578125 18.9375 13.203125 
Q 16.703125 10.84375 15.234375 8.453125 
z
" id="ArialMT-50"/>
      </defs>
      <g transform="translate(31.86 142.691238)scale(0.16 -0.16)">
       <use xlink:href="#ArialMT-48"/>
       <use x="55.615234" xlink:href="#ArialMT-46"/>
       <use x="83.398438" xlink:href="#ArialMT-50"/>
      </g>
     </g>
    </g>
    <g id="ytick_2">
     <g id="line2d_15">
      <g>
       <use style="stroke:#000000;stroke-width:1.5;" x="57.6" xlink:href="#m79ab72b709" y="76.968451"/>
      </g>
     </g>
     <g id="line2d_16">
      <g>
       <use style="stroke:#000000;stroke-width:1.5;" x="414.72" xlink:href="#m6fa6f076c1" y="76.968451"/>
      </g>
     </g>
     <g id="text_2">
      <!-- 0.4 -->
      <defs>
       <path d="M 32.328125 0 
L 32.328125 17.140625 
L 1.265625 17.140625 
L 1.265625 25.203125 
L 33.9375 71.578125 
L 41.109375 71.578125 
L 41.109375 25.203125 
L 50.78125 25.203125 
L 50.78125 17.140625 
L 41.109375 17.140625 
L 41.109375 0 
z
M 32.328125 25.203125 
L 32.328125 57.46875 
L 9.90625 25.203125 
z
" id="ArialMT-52"/>
      </defs>
      <g transform="translate(31.86 82.694701)scale(0.16 -0.16)">
       <use xlink:href="#ArialMT-48"/>
       <use x="55.615234" xlink:href="#ArialMT-46"/>
       <use x="83.398438" xlink:href="#ArialMT-52"/>
      </g>
     </g>
    </g>
    <g id="text_3">
     <!-- $n_1(t)$ -->
     <defs>
      <path d="M 46 11.703125 
L 47.40625 10.40625 
Q 42.296875 3.40625 39.59375 1.25 
Q 36.90625 -0.90625 33.40625 -0.90625 
Q 31.40625 -0.90625 30.046875 0.4375 
Q 28.703125 1.796875 28.703125 4.5 
Q 28.703125 6.09375 30.296875 12 
L 34.703125 28.203125 
Q 36.09375 33.59375 36.09375 36.09375 
Q 36.09375 39 33.703125 39 
Q 30.796875 39 27.34375 35.546875 
Q 23.90625 32.09375 18.90625 24.796875 
Q 15.59375 19.90625 14.046875 16 
Q 12.5 12.09375 8.90625 0 
L 1.40625 0 
L 11 35 
Q 11.203125 36 11.203125 36.703125 
Q 11.203125 38.203125 9.84375 38.75 
Q 8.5 39.296875 4.703125 39.40625 
L 4.703125 41 
Q 8.59375 41.796875 13.390625 42.640625 
Q 18.203125 43.5 20.90625 44.09375 
L 21.296875 43.90625 
L 14.59375 22.09375 
Q 22 33.90625 27.390625 39 
Q 32.796875 44.09375 37.703125 44.09375 
Q 40.796875 44.09375 42.5 42.4375 
Q 44.203125 40.796875 44.203125 38 
Q 44.203125 35.5 43.203125 32 
L 37.59375 11.703125 
Q 36.203125 6.703125 36.203125 5.59375 
Q 36.203125 3.796875 37.796875 3.796875 
Q 39.703125 3.796875 43.90625 9.09375 
Q 44.59375 9.90625 46 11.703125 
z
" id="STIXGeneral-Italic-110"/>
      <path d="M 39.40625 0 
L 11.796875 0 
L 11.796875 1.5 
Q 17.296875 1.796875 19.296875 3.546875 
Q 21.296875 5.296875 21.296875 9.5 
L 21.296875 54.40625 
Q 21.296875 59.296875 18.296875 59.296875 
Q 16.90625 59.296875 13.796875 58.09375 
L 11.09375 57.09375 
L 11.09375 58.5 
L 29 67.59375 
L 29.90625 67.296875 
L 29.90625 7.59375 
Q 29.90625 4.296875 31.90625 2.890625 
Q 33.90625 1.5 39.40625 1.5 
z
" id="STIXGeneral-Regular-49"/>
      <path d="M 30.40625 -16.09375 
L 29.203125 -17.703125 
Q 17.59375 -11.09375 11.1875 0.5 
Q 4.796875 12.09375 4.796875 25.203125 
Q 4.796875 52.90625 29.5 67.59375 
L 30.40625 66 
Q 20.203125 57.296875 16.796875 48.84375 
Q 13.40625 40.40625 13.40625 25.5 
Q 13.40625 10.703125 16.90625 1.5 
Q 20.40625 -7.703125 30.40625 -16.09375 
z
" id="STIXGeneral-Regular-40"/>
      <path d="M 29.59375 42.796875 
L 29.09375 39.59375 
L 20.703125 39.59375 
L 12 6.796875 
Q 11.796875 6 11.796875 5.40625 
Q 11.796875 3.796875 13.296875 3.796875 
Q 14.5 3.796875 16.09375 5.34375 
Q 17.703125 6.90625 21.40625 11.703125 
L 22.703125 11 
Q 18.09375 4 15.140625 1.453125 
Q 12.203125 -1.09375 8.40625 -1.09375 
Q 3.796875 -1.09375 3.796875 2.59375 
Q 3.796875 3.59375 5.40625 10 
L 13.203125 39.59375 
L 5.703125 39.59375 
L 5.59375 40.203125 
Q 5.59375 42 8.90625 42.703125 
Q 11.40625 43.296875 15.5 46.546875 
Q 19.59375 49.796875 22.203125 53.703125 
Q 22.796875 54.59375 23.59375 54.59375 
Q 24.5 54.59375 24.5 53.796875 
Q 24.5 53.296875 24.40625 53.09375 
L 21.59375 42.796875 
z
" id="STIXGeneral-Italic-116"/>
      <path d="M 2.90625 66 
L 4.09375 67.59375 
Q 15.5 60.796875 22 49.1875 
Q 28.5 37.59375 28.5 24.703125 
Q 28.5 -2.59375 3.796875 -17.703125 
L 2.90625 -16.09375 
Q 13.203125 -7.59375 16.546875 0.84375 
Q 19.90625 9.296875 19.90625 24.40625 
Q 19.90625 39.59375 16.546875 48.75 
Q 13.203125 57.90625 2.90625 66 
z
" id="STIXGeneral-Regular-41"/>
     </defs>
     <g transform="translate(24.2825 118.512)rotate(-90)scale(0.18 -0.18)">
      <use transform="translate(0 0.40625)" xlink:href="#STIXGeneral-Italic-110"/>
      <use transform="translate(49.999985 -12.821875)scale(0.7)" xlink:href="#STIXGeneral-Regular-49"/>
      <use transform="translate(89.409349 0.40625)" xlink:href="#STIXGeneral-Regular-40"/>
      <use transform="translate(122.709337 0.40625)" xlink:href="#STIXGeneral-Italic-116"/>
      <use transform="translate(150.509325 0.40625)" xlink:href="#STIXGeneral-Regular-41"/>
     </g>
    </g>
   </g>
   <g id="line2d_17">
    <path clip-path="url(#p64b4f8cd9f)" d="M 57.6 46.970182 
L 58.4928 47.426156 
L 59.3856 48.783877 
L 60.2784 51.016948 
L 61.1712 54.082471 
L 62.064 57.92135 
L 62.9568 62.460688 
L 64.7424 73.288863 
L 66.528 85.780442 
L 71.8848 124.554404 
L 73.6704 135.213389 
L 74.5632 139.743128 
L 75.456 143.658502 
L 76.3488 146.910014 
L 77.2416 149.460167 
L 78.1344 151.279862 
L 79.0272 152.352 
L 79.92 152.669082 
L 80.8128 152.233507 
L 81.7056 151.058775 
L 82.5984 149.167984 
L 83.4912 146.594432 
L 84.384 143.381618 
L 85.2768 139.582037 
L 87.0624 130.479063 
L 88.848 119.879174 
L 94.2048 86.33511 
L 95.9904 77.058445 
L 96.8832 73.145771 
L 97.776 69.796764 
L 98.6688 67.056123 
L 99.5616 64.956544 
L 100.4544 63.516027 
L 101.3472 62.739972 
L 102.24 62.620579 
L 103.1328 63.138049 
L 104.0256 64.261184 
L 104.9184 65.949187 
L 105.8112 68.152559 
L 106.704 70.815806 
L 108.4896 77.272333 
L 110.2752 84.793799 
L 115.632 108.465133 
L 117.4176 115.165246 
L 119.2032 120.656429 
L 120.096 122.869102 
L 120.9888 124.695096 
L 121.8816 126.117914 
L 122.7744 127.127656 
L 123.6672 127.719222 
L 124.56 127.895012 
L 125.4528 127.661925 
L 126.3456 127.033761 
L 127.2384 126.029119 
L 128.1312 124.672898 
L 129.024 122.994494 
L 130.8096 118.812136 
L 132.5952 113.801825 
L 138.8448 95.079005 
L 140.6304 90.83815 
L 141.5232 89.075152 
L 142.416 87.579138 
L 143.3088 86.364208 
L 144.2016 85.438762 
L 145.0944 84.805498 
L 145.9872 84.462018 
L 146.88 84.400522 
L 147.7728 84.60931 
L 148.6656 85.071883 
L 149.5584 85.769643 
L 150.4512 86.68009 
L 152.2368 89.040054 
L 154.0224 91.942386 
L 157.5936 98.499408 
L 160.272 103.264933 
L 162.0576 106.036473 
L 163.8432 108.322641 
L 165.6288 110.023543 
L 166.5216 110.633708 
L 167.4144 111.077382 
L 168.3072 111.353066 
L 169.2 111.46166 
L 170.0928 111.406463 
L 170.9856 111.193176 
L 171.8784 110.829896 
L 172.7712 110.326526 
L 174.5568 108.949905 
L 176.3424 107.179407 
L 179.0208 104.082086 
L 182.592 99.882028 
L 184.3776 98.050334 
L 186.1632 96.539321 
L 187.9488 95.420686 
L 189.7344 94.735825 
L 191.52 94.494039 
L 193.3056 94.677029 
L 195.0912 95.241896 
L 196.8768 96.125345 
L 198.6624 97.25118 
L 202.2336 99.889828 
L 205.8048 102.478078 
L 207.5904 103.564916 
L 209.376 104.436065 
L 211.1616 105.05193 
L 212.9472 105.38971 
L 214.7328 105.444907 
L 216.5184 105.22952 
L 218.304 104.771446 
L 220.0896 104.111784 
L 222.768 102.859956 
L 229.0176 99.755436 
L 231.696 98.787391 
L 233.4816 98.359916 
L 235.2672 98.12743 
L 237.0528 98.093232 
L 238.8384 98.247723 
L 241.5168 98.785892 
L 244.1952 99.595245 
L 252.2304 102.312188 
L 254.9088 102.902554 
L 257.5872 103.200437 
L 260.2656 103.187538 
L 262.944 102.888755 
L 265.6224 102.365885 
L 276.336 99.901827 
L 279.0144 99.620443 
L 281.6928 99.564647 
L 284.3712 99.724837 
L 287.9424 100.20451 
L 298.656 101.978307 
L 302.2272 102.205694 
L 305.7984 102.145398 
L 309.3696 101.839415 
L 322.7616 100.340702 
L 326.3328 100.289105 
L 329.904 100.436996 
L 335.2608 100.904069 
L 342.4032 101.530433 
L 346.8672 101.690624 
L 351.3312 101.614728 
L 357.5808 101.23045 
L 365.616 100.740879 
L 370.9728 100.670083 
L 376.3296 100.829374 
L 390.6144 101.40954 
L 396.864 101.344744 
L 414.72 100.868371 
L 414.72 100.868371 
" style="fill:none;stroke:#0000ff;stroke-linecap:square;stroke-width:2;"/>
   </g>
   <g id="line2d_18">
    <path clip-path="url(#p64b4f8cd9f)" d="M 57.6 46.970182 
L 58.4928 47.430055 
L 59.3856 48.798576 
L 60.2784 51.050246 
L 61.1712 54.141268 
L 62.064 58.011945 
L 62.9568 62.58968 
L 64.7424 73.51145 
L 66.528 86.114623 
L 71.8848 125.260264 
L 73.6704 136.021843 
L 74.5632 140.592379 
L 75.456 144.538951 
L 76.3488 147.811162 
L 77.2416 150.369115 
L 78.1344 152.18401 
L 79.0272 153.236349 
L 79.92 153.518633 
L 80.8128 153.033261 
L 81.7056 151.794032 
L 82.5984 149.824646 
L 83.4912 147.1605 
L 84.384 143.845991 
L 85.2768 139.937217 
L 87.0624 130.605055 
L 88.848 119.78528 
L 94.2048 85.895635 
L 95.9904 76.63937 
L 96.8832 72.755194 
L 97.776 69.442785 
L 98.6688 66.743241 
L 99.5616 64.685059 
L 100.4544 63.28384 
L 101.3472 62.543483 
L 102.24 62.455588 
L 103.1328 63.000957 
L 104.0256 64.15079 
L 104.9184 65.867891 
L 105.8112 68.107562 
L 106.704 70.819105 
L 108.4896 77.431024 
L 110.2752 85.216175 
L 116.5248 114.191502 
L 118.3104 120.935413 
L 119.2032 123.791548 
L 120.096 126.252306 
L 120.9888 128.287389 
L 121.8816 129.873397 
L 122.7744 130.994133 
L 123.6672 131.641495 
L 124.56 131.814885 
L 125.4528 131.521802 
L 126.3456 130.777845 
L 127.2384 129.605513 
L 128.1312 128.035104 
L 129.024 126.102915 
L 130.8096 121.326891 
L 132.5952 115.665917 
L 137.952 97.657957 
L 139.7376 92.614348 
L 141.5232 88.535183 
L 142.416 86.910777 
L 143.3088 85.580654 
L 144.2016 84.550813 
L 145.0944 83.822755 
L 145.9872 83.39378 
L 146.88 83.256688 
L 147.7728 83.400979 
L 148.6656 83.813756 
L 149.5584 84.477917 
L 150.4512 85.375465 
L 151.344 86.485401 
L 153.1296 89.251542 
L 154.9152 92.57865 
L 158.4864 100.042819 
L 161.1648 105.462606 
L 162.9504 108.591726 
L 164.736 111.125979 
L 165.6288 112.127022 
L 166.5216 112.933975 
L 167.4144 113.53904 
L 168.3072 113.937417 
L 169.2 114.128506 
L 170.0928 114.115307 
L 170.9856 113.904119 
L 171.8784 113.504242 
L 172.7712 112.929175 
L 174.5568 111.315568 
L 176.3424 109.21059 
L 179.0208 105.503404 
L 182.592 100.433996 
L 184.3776 98.186526 
L 186.1632 96.287636 
L 187.9488 94.81862 
L 189.7344 93.828978 
L 190.6272 93.521795 
L 191.52 93.340006 
L 192.4128 93.282109 
L 193.3056 93.345106 
L 195.0912 93.813378 
L 196.8768 94.691428 
L 198.6624 95.907258 
L 201.3408 98.170327 
L 206.6976 103.036946 
L 208.4832 104.400068 
L 210.2688 105.498004 
L 212.0544 106.276759 
L 213.84 106.704835 
L 215.6256 106.774131 
L 217.4112 106.500846 
L 219.1968 105.92068 
L 220.9824 105.086728 
L 223.6608 103.504619 
L 229.9104 99.549347 
L 231.696 98.654499 
L 233.4816 97.958539 
L 235.2672 97.491766 
L 237.0528 97.269779 
L 238.8384 97.292878 
L 240.624 97.547263 
L 242.4096 98.006537 
L 245.088 98.995279 
L 249.552 101.036362 
L 253.1232 102.559674 
L 255.8016 103.402625 
L 257.5872 103.764704 
L 259.3728 103.947994 
L 261.1584 103.950094 
L 262.944 103.779703 
L 265.6224 103.243634 
L 268.3008 102.461279 
L 276.336 99.890128 
L 279.0144 99.345059 
L 281.6928 99.080775 
L 284.3712 99.112573 
L 287.0496 99.414955 
L 290.6208 100.131614 
L 299.5488 102.176596 
L 302.2272 102.518576 
L 304.9056 102.646669 
L 307.584 102.558474 
L 311.1552 102.154097 
L 316.512 101.210952 
L 320.976 100.468494 
L 324.5472 100.098616 
L 328.1184 100.006221 
L 331.6896 100.186811 
L 336.1536 100.688082 
L 344.1888 101.685224 
L 347.76 101.911111 
L 351.3312 101.92851 
L 355.7952 101.684624 
L 370.08 100.54079 
L 374.544 100.54679 
L 379.9008 100.819174 
L 391.5072 101.525933 
L 396.864 101.543332 
L 403.1136 101.297947 
L 413.8272 100.823374 
L 414.72 100.808075 
L 414.72 100.808075 
" style="fill:none;stroke:#ffa500;stroke-linecap:square;stroke-width:2;"/>
   </g>
   <g id="line2d_19">
    <path clip-path="url(#p64b4f8cd9f)" d="M 57.6 46.970182 
L 59.3856 48.777209 
L 61.1712 54.057414 
L 62.9568 62.40403 
L 64.7424 73.189016 
L 66.528 85.628208 
L 70.0992 112.008025 
L 71.8848 124.270539 
L 73.6704 134.943596 
L 75.456 143.464195 
L 77.2416 149.422331 
L 79.0272 152.565065 
L 80.8128 152.795614 
L 82.5984 150.170626 
L 84.384 144.897121 
L 86.1696 137.328006 
L 87.9552 127.951343 
L 91.5264 106.261965 
L 93.312 95.343889 
L 95.0976 85.301413 
L 96.8832 76.735819 
L 98.6688 70.108742 
L 100.4544 65.70482 
L 102.24 63.616931 
L 104.0256 63.756222 
L 105.8112 65.884819 
L 107.5968 69.664137 
L 109.3824 74.708928 
L 111.168 80.636792 
L 114.7392 93.824156 
L 118.3104 107.142435 
L 120.096 113.386222 
L 121.8816 119.134264 
L 123.6672 124.215614 
L 125.4528 128.452764 
L 127.2384 131.673637 
L 129.024 133.730471 
L 130.8096 134.519353 
L 132.5952 133.994607 
L 134.3808 132.173726 
L 136.1664 129.131504 
L 137.952 124.985981 
L 139.7376 119.881332 
L 141.5232 113.973816 
L 143.3088 107.426102 
L 146.88 93.133032 
L 150.4512 78.814911 
L 152.2368 72.449036 
L 154.0224 67.155012 
L 155.808 63.373847 
L 157.5936 61.520306 
L 159.3792 61.92703 
L 161.1648 64.78983 
L 162.9504 70.124779 
L 164.736 77.745684 
L 166.5216 87.267216 
L 170.0928 109.665798 
L 171.8784 121.124541 
L 173.664 131.770127 
L 175.4496 140.919654 
L 177.2352 147.990506 
L 179.0208 152.530026 
L 180.8064 154.232361 
L 182.592 152.946568 
L 184.3776 148.68038 
L 186.1632 141.602649 
L 187.9488 132.044853 
L 189.7344 120.499331 
L 193.3056 94.145592 
L 195.0912 80.966233 
L 196.8768 68.95871 
L 198.6624 58.968287 
L 200.448 51.720968 
L 202.2336 47.751484 
L 204.0192 47.347485 
L 205.8048 50.519301 
L 207.5904 57.000457 
L 209.376 66.278688 
L 211.1616 77.652364 
L 218.304 127.519128 
L 220.0896 137.231618 
L 221.8752 144.681455 
L 223.6608 149.538961 
L 225.4464 151.624772 
L 227.232 150.906927 
L 229.0176 147.498048 
L 230.8032 141.652337 
L 232.5888 133.75929 
L 234.3744 124.33009 
L 239.7312 93.139044 
L 241.5168 83.957887 
L 243.3024 76.324249 
L 245.088 70.604667 
L 246.8736 66.990474 
L 248.6592 65.495957 
L 250.4448 65.980026 
L 252.2304 68.18652 
L 254.016 71.794431 
L 255.8016 76.467819 
L 257.5872 81.89584 
L 261.1584 94.01885 
L 266.5152 112.72003 
L 268.3008 118.466237 
L 270.0864 123.66526 
L 271.872 128.107733 
L 273.6576 131.586774 
L 275.4432 133.921153 
L 277.2288 134.976528 
L 279.0144 134.679527 
L 280.8 133.021333 
L 282.5856 130.051077 
L 284.3712 125.862842 
L 286.1568 120.58193 
L 287.9424 114.356069 
L 289.728 107.355605 
L 293.2992 91.889324 
L 296.8704 76.463894 
L 298.656 69.765873 
L 300.4416 64.380926 
L 302.2272 60.791281 
L 304.0128 59.418681 
L 305.7984 60.565325 
L 307.584 64.362236 
L 309.3696 70.735042 
L 311.1552 79.394059 
L 312.9408 89.85147 
L 320.0832 135.664911 
L 321.8688 144.40724 
L 323.6544 150.810395 
L 325.44 154.46812 
L 327.2256 155.13093 
L 329.0112 152.712029 
L 330.7968 147.290186 
L 332.5824 139.111412 
L 334.368 128.588475 
L 336.1536 116.294756 
L 341.5104 76.463101 
L 343.296 65.099534 
L 345.0816 56.086114 
L 346.8672 50.069444 
L 348.6528 47.474714 
L 350.4384 48.462295 
L 352.224 52.913133 
L 354.0096 60.44541 
L 355.7952 70.459341 
L 357.5808 82.202744 
L 362.9376 119.558737 
L 364.7232 130.181448 
L 366.5088 138.884022 
L 368.2944 145.268226 
L 370.08 149.079845 
L 371.8656 150.205609 
L 373.6512 148.669742 
L 375.4368 144.63151 
L 377.2224 138.382006 
L 379.008 130.336234 
L 380.7936 121.016281 
L 386.1504 91.535211 
L 387.936 83.210207 
L 389.7216 76.442417 
L 391.5072 71.507527 
L 393.2928 68.515274 
L 395.0784 67.419779 
L 396.864 68.0505 
L 398.6496 70.156858 
L 400.4352 73.456756 
L 402.2208 77.679093 
L 404.0064 82.59208 
L 405.792 88.013052 
L 409.3632 99.833534 
L 414.72 117.996862 
L 416.5056 123.434938 
L 418.2912 128.169394 
L 420.0768 131.954423 
L 421.8624 134.574166 
L 423.648 135.864714 
L 425.4336 135.727277 
L 427.2192 134.130388 
L 429.0048 131.10305 
L 430.7904 126.723526 
L 432.576 121.109517 
L 434.3616 114.414529 
L 436.1472 106.83295 
L 439.7184 90.067413 
L 443.2896 73.648616 
L 445.0752 66.763692 
L 446.8608 61.474697 
L 448.6464 58.283884 
L 450.432 57.595562 
L 452.2176 59.657523 
L 454.0032 64.516004 
L 455.7888 71.99291 
L 457.5744 81.689977 
L 459.36 93.019941 
L 461.8 109.785735 
L 461.8 109.785735 
" style="fill:none;stroke:#000000;stroke-dasharray:2,3.3;stroke-dashoffset:0;stroke-width:2;"/>
   </g>
   <g id="patch_3">
    <path d="M 57.6 162.432 
L 57.6 41.472 
" style="fill:none;stroke:#000000;stroke-linecap:square;stroke-linejoin:miter;stroke-width:1.5;"/>
   </g>
   <g id="patch_4">
    <path d="M 414.72 162.432 
L 414.72 41.472 
" style="fill:none;stroke:#000000;stroke-linecap:square;stroke-linejoin:miter;stroke-width:1.5;"/>
   </g>
   <g id="patch_5">
    <path d="M 57.6 162.432 
L 414.72 162.432 
" style="fill:none;stroke:#000000;stroke-linecap:square;stroke-linejoin:miter;stroke-width:1.5;"/>
   </g>
   <g id="patch_6">
    <path d="M 57.6 41.472 
L 414.72 41.472 
" style="fill:none;stroke:#000000;stroke-linecap:square;stroke-linejoin:miter;stroke-width:1.5;"/>
   </g>
   <g id="legend_1">
    <g id="patch_7">
     <path d="M 351.82 157.432 
L 407.72 157.432 
Q 409.72 157.432 409.72 155.432 
L 409.72 113.996062 
Q 409.72 111.996062 407.72 111.996062 
L 351.82 111.996062 
Q 349.82 111.996062 349.82 113.996062 
L 349.82 155.432 
Q 349.82 157.432 351.82 157.432 
z
" style="fill:#ffffff;opacity:0.8;stroke:#cccccc;stroke-linejoin:miter;"/>
    </g>
    <g id="line2d_20">
     <path d="M 353.82 119.653875 
L 373.82 119.653875 
" style="fill:none;stroke:#0000ff;stroke-linecap:square;stroke-width:2;"/>
    </g>
    <g id="line2d_21"/>
    <g id="text_4">
     <!-- 2B -->
     <defs>
      <path d="M 7.328125 0 
L 7.328125 71.578125 
L 34.1875 71.578125 
Q 42.390625 71.578125 47.34375 69.40625 
Q 52.296875 67.234375 55.09375 62.71875 
Q 57.90625 58.203125 57.90625 53.265625 
Q 57.90625 48.6875 55.421875 44.625 
Q 52.9375 40.578125 47.90625 38.09375 
Q 54.390625 36.1875 57.875 31.59375 
Q 61.375 27 61.375 20.75 
Q 61.375 15.71875 59.25 11.390625 
Q 57.125 7.078125 54 4.734375 
Q 50.875 2.390625 46.15625 1.1875 
Q 41.453125 0 34.625 0 
z
M 16.796875 41.5 
L 32.28125 41.5 
Q 38.578125 41.5 41.3125 42.328125 
Q 44.921875 43.40625 46.75 45.890625 
Q 48.578125 48.390625 48.578125 52.15625 
Q 48.578125 55.71875 46.875 58.421875 
Q 45.171875 61.140625 41.984375 62.140625 
Q 38.8125 63.140625 31.109375 63.140625 
L 16.796875 63.140625 
z
M 16.796875 8.453125 
L 34.625 8.453125 
Q 39.203125 8.453125 41.0625 8.796875 
Q 44.34375 9.375 46.53125 10.734375 
Q 48.734375 12.109375 50.140625 14.71875 
Q 51.5625 17.328125 51.5625 20.75 
Q 51.5625 24.75 49.515625 27.703125 
Q 47.46875 30.671875 43.828125 31.859375 
Q 40.1875 33.0625 33.34375 33.0625 
L 16.796875 33.0625 
z
" id="ArialMT-66"/>
     </defs>
     <g transform="translate(381.82 123.153875)scale(0.1 -0.1)">
      <use xlink:href="#ArialMT-50"/>
      <use x="55.615234" xlink:href="#ArialMT-66"/>
     </g>
    </g>
    <g id="line2d_22">
     <path d="M 353.82 133.799187 
L 373.82 133.799187 
" style="fill:none;stroke:#ffa500;stroke-linecap:square;stroke-width:2;"/>
    </g>
    <g id="line2d_23"/>
    <g id="text_5">
     <!-- GW -->
     <defs>
      <path d="M 41.21875 28.078125 
L 41.21875 36.46875 
L 71.53125 36.53125 
L 71.53125 9.96875 
Q 64.546875 4.390625 57.125 1.578125 
Q 49.703125 -1.21875 41.890625 -1.21875 
Q 31.34375 -1.21875 22.71875 3.296875 
Q 14.109375 7.8125 9.71875 16.359375 
Q 5.328125 24.90625 5.328125 35.453125 
Q 5.328125 45.90625 9.6875 54.953125 
Q 14.0625 64.015625 22.265625 68.40625 
Q 30.46875 72.796875 41.15625 72.796875 
Q 48.921875 72.796875 55.1875 70.28125 
Q 61.46875 67.78125 65.03125 63.28125 
Q 68.609375 58.796875 70.453125 51.5625 
L 61.921875 49.21875 
Q 60.296875 54.6875 57.90625 57.8125 
Q 55.515625 60.9375 51.0625 62.8125 
Q 46.625 64.703125 41.21875 64.703125 
Q 34.71875 64.703125 29.984375 62.71875 
Q 25.25 60.75 22.34375 57.515625 
Q 19.4375 54.296875 17.828125 50.4375 
Q 15.09375 43.796875 15.09375 36.03125 
Q 15.09375 26.46875 18.390625 20.015625 
Q 21.6875 13.578125 27.984375 10.453125 
Q 34.28125 7.328125 41.359375 7.328125 
Q 47.515625 7.328125 53.375 9.6875 
Q 59.234375 12.0625 62.25 14.75 
L 62.25 28.078125 
z
" id="ArialMT-71"/>
      <path d="M 20.21875 0 
L 1.21875 71.578125 
L 10.9375 71.578125 
L 21.828125 24.65625 
Q 23.578125 17.28125 24.859375 10.015625 
Q 27.59375 21.484375 28.078125 23.25 
L 41.703125 71.578125 
L 53.125 71.578125 
L 63.375 35.359375 
Q 67.234375 21.875 68.953125 10.015625 
Q 70.3125 16.796875 72.515625 25.59375 
L 83.734375 71.578125 
L 93.265625 71.578125 
L 73.640625 0 
L 64.5 0 
L 49.421875 54.546875 
Q 47.515625 61.375 47.171875 62.9375 
Q 46.046875 58.015625 45.0625 54.546875 
L 29.890625 0 
z
" id="ArialMT-87"/>
     </defs>
     <g transform="translate(381.82 137.299187)scale(0.1 -0.1)">
      <use xlink:href="#ArialMT-71"/>
      <use x="77.783203" xlink:href="#ArialMT-87"/>
     </g>
    </g>
    <g id="line2d_24">
     <path d="M 353.82 147.9445 
L 373.82 147.9445 
" style="fill:none;stroke:#000000;stroke-dasharray:2,3.3;stroke-dashoffset:0;stroke-width:2;"/>
    </g>
    <g id="line2d_25"/>
    <g id="text_6">
     <!-- exact -->
     <defs>
      <path d="M 42.09375 16.703125 
L 51.171875 15.578125 
Q 49.03125 7.625 43.21875 3.21875 
Q 37.40625 -1.171875 28.375 -1.171875 
Q 17 -1.171875 10.328125 5.828125 
Q 3.65625 12.84375 3.65625 25.484375 
Q 3.65625 38.578125 10.390625 45.796875 
Q 17.140625 53.03125 27.875 53.03125 
Q 38.28125 53.03125 44.875 45.953125 
Q 51.46875 38.875 51.46875 26.03125 
Q 51.46875 25.25 51.421875 23.6875 
L 12.75 23.6875 
Q 13.234375 15.140625 17.578125 10.59375 
Q 21.921875 6.0625 28.421875 6.0625 
Q 33.25 6.0625 36.671875 8.59375 
Q 40.09375 11.140625 42.09375 16.703125 
z
M 13.234375 30.90625 
L 42.1875 30.90625 
Q 41.609375 37.453125 38.875 40.71875 
Q 34.671875 45.796875 27.984375 45.796875 
Q 21.921875 45.796875 17.796875 41.75 
Q 13.671875 37.703125 13.234375 30.90625 
z
" id="ArialMT-101"/>
      <path d="M 0.734375 0 
L 19.671875 26.953125 
L 2.15625 51.859375 
L 13.140625 51.859375 
L 21.09375 39.703125 
Q 23.34375 36.234375 24.703125 33.890625 
Q 26.859375 37.109375 28.65625 39.59375 
L 37.40625 51.859375 
L 47.90625 51.859375 
L 29.984375 27.4375 
L 49.265625 0 
L 38.484375 0 
L 27.828125 16.109375 
L 25 20.453125 
L 11.375 0 
z
" id="ArialMT-120"/>
      <path d="M 40.4375 6.390625 
Q 35.546875 2.25 31.03125 0.53125 
Q 26.515625 -1.171875 21.34375 -1.171875 
Q 12.796875 -1.171875 8.203125 3 
Q 3.609375 7.171875 3.609375 13.671875 
Q 3.609375 17.484375 5.34375 20.625 
Q 7.078125 23.78125 9.890625 25.6875 
Q 12.703125 27.59375 16.21875 28.5625 
Q 18.796875 29.25 24.03125 29.890625 
Q 34.671875 31.15625 39.703125 32.90625 
Q 39.75 34.71875 39.75 35.203125 
Q 39.75 40.578125 37.25 42.78125 
Q 33.890625 45.75 27.25 45.75 
Q 21.046875 45.75 18.09375 43.578125 
Q 15.140625 41.40625 13.71875 35.890625 
L 5.125 37.0625 
Q 6.296875 42.578125 8.984375 45.96875 
Q 11.671875 49.359375 16.75 51.1875 
Q 21.828125 53.03125 28.515625 53.03125 
Q 35.15625 53.03125 39.296875 51.46875 
Q 43.453125 49.90625 45.40625 47.53125 
Q 47.359375 45.171875 48.140625 41.546875 
Q 48.578125 39.3125 48.578125 33.453125 
L 48.578125 21.734375 
Q 48.578125 9.46875 49.140625 6.21875 
Q 49.703125 2.984375 51.375 0 
L 42.1875 0 
Q 40.828125 2.734375 40.4375 6.390625 
z
M 39.703125 26.03125 
Q 34.90625 24.078125 25.34375 22.703125 
Q 19.921875 21.921875 17.671875 20.9375 
Q 15.4375 19.96875 14.203125 18.09375 
Q 12.984375 16.21875 12.984375 13.921875 
Q 12.984375 10.40625 15.640625 8.0625 
Q 18.3125 5.71875 23.4375 5.71875 
Q 28.515625 5.71875 32.46875 7.9375 
Q 36.421875 10.15625 38.28125 14.015625 
Q 39.703125 17 39.703125 22.796875 
z
" id="ArialMT-97"/>
      <path d="M 40.4375 19 
L 49.078125 17.875 
Q 47.65625 8.9375 41.8125 3.875 
Q 35.984375 -1.171875 27.484375 -1.171875 
Q 16.84375 -1.171875 10.375 5.78125 
Q 3.90625 12.75 3.90625 25.734375 
Q 3.90625 34.125 6.6875 40.421875 
Q 9.46875 46.734375 15.15625 49.875 
Q 20.84375 53.03125 27.546875 53.03125 
Q 35.984375 53.03125 41.359375 48.75 
Q 46.734375 44.484375 48.25 36.625 
L 39.703125 35.296875 
Q 38.484375 40.53125 35.375 43.15625 
Q 32.28125 45.796875 27.875 45.796875 
Q 21.234375 45.796875 17.078125 41.03125 
Q 12.9375 36.28125 12.9375 25.984375 
Q 12.9375 15.53125 16.9375 10.796875 
Q 20.953125 6.0625 27.390625 6.0625 
Q 32.5625 6.0625 36.03125 9.234375 
Q 39.5 12.40625 40.4375 19 
z
" id="ArialMT-99"/>
      <path d="M 25.78125 7.859375 
L 27.046875 0.09375 
Q 23.34375 -0.6875 20.40625 -0.6875 
Q 15.625 -0.6875 12.984375 0.828125 
Q 10.359375 2.34375 9.28125 4.8125 
Q 8.203125 7.28125 8.203125 15.1875 
L 8.203125 45.015625 
L 1.765625 45.015625 
L 1.765625 51.859375 
L 8.203125 51.859375 
L 8.203125 64.703125 
L 16.9375 69.96875 
L 16.9375 51.859375 
L 25.78125 51.859375 
L 25.78125 45.015625 
L 16.9375 45.015625 
L 16.9375 14.703125 
Q 16.9375 10.9375 17.40625 9.859375 
Q 17.875 8.796875 18.921875 8.15625 
Q 19.96875 7.515625 21.921875 7.515625 
Q 23.390625 7.515625 25.78125 7.859375 
z
" id="ArialMT-116"/>
     </defs>
     <g transform="translate(381.82 151.4445)scale(0.1 -0.1)">
      <use xlink:href="#ArialMT-101"/>
      <use x="55.615234" xlink:href="#ArialMT-120"/>
      <use x="105.615234" xlink:href="#ArialMT-97"/>
      <use x="161.230469" xlink:href="#ArialMT-99"/>
      <use x="211.230469" xlink:href="#ArialMT-116"/>
     </g>
    </g>
   </g>
  </g>
  <g id="axes_2">
   <g id="patch_8">
    <path d="M 57.6 307.584 
L 414.72 307.584 
L 414.72 186.624 
L 57.6 186.624 
z
" style="fill:#ffffff;"/>
   </g>
   <g id="matplotlib.axis_3">
    <g id="xtick_7">
     <g id="line2d_26">
      <g>
       <use style="stroke:#000000;stroke-width:1.5;" x="57.6" xlink:href="#m6a36a61413" y="307.584"/>
      </g>
     </g>
     <g id="line2d_27">
      <g>
       <use style="stroke:#000000;stroke-width:1.5;" x="57.6" xlink:href="#m3352161ae8" y="186.624"/>
      </g>
     </g>
     <g id="text_7">
      <!-- 0 -->
      <g transform="translate(53.15125 322.5365)scale(0.16 -0.16)">
       <use xlink:href="#ArialMT-48"/>
      </g>
     </g>
    </g>
    <g id="xtick_8">
     <g id="line2d_28">
      <g>
       <use style="stroke:#000000;stroke-width:1.5;" x="129.024" xlink:href="#m6a36a61413" y="307.584"/>
      </g>
     </g>
     <g id="line2d_29">
      <g>
       <use style="stroke:#000000;stroke-width:1.5;" x="129.024" xlink:href="#m3352161ae8" y="186.624"/>
      </g>
     </g>
     <g id="text_8">
      <!-- 2 -->
      <g transform="translate(124.57525 322.5365)scale(0.16 -0.16)">
       <use xlink:href="#ArialMT-50"/>
      </g>
     </g>
    </g>
    <g id="xtick_9">
     <g id="line2d_30">
      <g>
       <use style="stroke:#000000;stroke-width:1.5;" x="200.448" xlink:href="#m6a36a61413" y="307.584"/>
      </g>
     </g>
     <g id="line2d_31">
      <g>
       <use style="stroke:#000000;stroke-width:1.5;" x="200.448" xlink:href="#m3352161ae8" y="186.624"/>
      </g>
     </g>
     <g id="text_9">
      <!-- 4 -->
      <g transform="translate(195.99925 322.5365)scale(0.16 -0.16)">
       <use xlink:href="#ArialMT-52"/>
      </g>
     </g>
    </g>
    <g id="xtick_10">
     <g id="line2d_32">
      <g>
       <use style="stroke:#000000;stroke-width:1.5;" x="271.872" xlink:href="#m6a36a61413" y="307.584"/>
      </g>
     </g>
     <g id="line2d_33">
      <g>
       <use style="stroke:#000000;stroke-width:1.5;" x="271.872" xlink:href="#m3352161ae8" y="186.624"/>
      </g>
     </g>
     <g id="text_10">
      <!-- 6 -->
      <defs>
       <path d="M 49.75 54.046875 
L 41.015625 53.375 
Q 39.84375 58.546875 37.703125 60.890625 
Q 34.125 64.65625 28.90625 64.65625 
Q 24.703125 64.65625 21.53125 62.3125 
Q 17.390625 59.28125 14.984375 53.46875 
Q 12.59375 47.65625 12.5 36.921875 
Q 15.671875 41.75 20.265625 44.09375 
Q 24.859375 46.4375 29.890625 46.4375 
Q 38.671875 46.4375 44.84375 39.96875 
Q 51.03125 33.5 51.03125 23.25 
Q 51.03125 16.5 48.125 10.71875 
Q 45.21875 4.9375 40.140625 1.859375 
Q 35.0625 -1.21875 28.609375 -1.21875 
Q 17.625 -1.21875 10.6875 6.859375 
Q 3.765625 14.9375 3.765625 33.5 
Q 3.765625 54.25 11.421875 63.671875 
Q 18.109375 71.875 29.4375 71.875 
Q 37.890625 71.875 43.28125 67.140625 
Q 48.6875 62.40625 49.75 54.046875 
z
M 13.875 23.1875 
Q 13.875 18.65625 15.796875 14.5 
Q 17.71875 10.359375 21.1875 8.171875 
Q 24.65625 6 28.46875 6 
Q 34.03125 6 38.03125 10.484375 
Q 42.046875 14.984375 42.046875 22.703125 
Q 42.046875 30.125 38.078125 34.390625 
Q 34.125 38.671875 28.125 38.671875 
Q 22.171875 38.671875 18.015625 34.390625 
Q 13.875 30.125 13.875 23.1875 
z
" id="ArialMT-54"/>
      </defs>
      <g transform="translate(267.42325 322.5365)scale(0.16 -0.16)">
       <use xlink:href="#ArialMT-54"/>
      </g>
     </g>
    </g>
    <g id="xtick_11">
     <g id="line2d_34">
      <g>
       <use style="stroke:#000000;stroke-width:1.5;" x="343.296" xlink:href="#m6a36a61413" y="307.584"/>
      </g>
     </g>
     <g id="line2d_35">
      <g>
       <use style="stroke:#000000;stroke-width:1.5;" x="343.296" xlink:href="#m3352161ae8" y="186.624"/>
      </g>
     </g>
     <g id="text_11">
      <!-- 8 -->
      <defs>
       <path d="M 17.671875 38.8125 
Q 12.203125 40.828125 9.5625 44.53125 
Q 6.9375 48.25 6.9375 53.421875 
Q 6.9375 61.234375 12.546875 66.546875 
Q 18.171875 71.875 27.484375 71.875 
Q 36.859375 71.875 42.578125 66.421875 
Q 48.296875 60.984375 48.296875 53.171875 
Q 48.296875 48.1875 45.671875 44.5 
Q 43.0625 40.828125 37.75 38.8125 
Q 44.34375 36.671875 47.78125 31.875 
Q 51.21875 27.09375 51.21875 20.453125 
Q 51.21875 11.28125 44.71875 5.03125 
Q 38.234375 -1.21875 27.640625 -1.21875 
Q 17.046875 -1.21875 10.546875 5.046875 
Q 4.046875 11.328125 4.046875 20.703125 
Q 4.046875 27.6875 7.59375 32.390625 
Q 11.140625 37.109375 17.671875 38.8125 
z
M 15.921875 53.71875 
Q 15.921875 48.640625 19.1875 45.40625 
Q 22.46875 42.1875 27.6875 42.1875 
Q 32.765625 42.1875 36.015625 45.375 
Q 39.265625 48.578125 39.265625 53.21875 
Q 39.265625 58.0625 35.90625 61.359375 
Q 32.5625 64.65625 27.59375 64.65625 
Q 22.5625 64.65625 19.234375 61.421875 
Q 15.921875 58.203125 15.921875 53.71875 
z
M 13.09375 20.65625 
Q 13.09375 16.890625 14.875 13.375 
Q 16.65625 9.859375 20.171875 7.921875 
Q 23.6875 6 27.734375 6 
Q 34.03125 6 38.125 10.046875 
Q 42.234375 14.109375 42.234375 20.359375 
Q 42.234375 26.703125 38.015625 30.859375 
Q 33.796875 35.015625 27.4375 35.015625 
Q 21.234375 35.015625 17.15625 30.90625 
Q 13.09375 26.8125 13.09375 20.65625 
z
" id="ArialMT-56"/>
      </defs>
      <g transform="translate(338.84725 322.5365)scale(0.16 -0.16)">
       <use xlink:href="#ArialMT-56"/>
      </g>
     </g>
    </g>
    <g id="xtick_12">
     <g id="line2d_36">
      <g>
       <use style="stroke:#000000;stroke-width:1.5;" x="414.72" xlink:href="#m6a36a61413" y="307.584"/>
      </g>
     </g>
     <g id="line2d_37">
      <g>
       <use style="stroke:#000000;stroke-width:1.5;" x="414.72" xlink:href="#m3352161ae8" y="186.624"/>
      </g>
     </g>
     <g id="text_12">
      <!-- 10 -->
      <defs>
       <path d="M 37.25 0 
L 28.46875 0 
L 28.46875 56 
Q 25.296875 52.984375 20.140625 49.953125 
Q 14.984375 46.921875 10.890625 45.40625 
L 10.890625 53.90625 
Q 18.265625 57.375 23.78125 62.296875 
Q 29.296875 67.234375 31.59375 71.875 
L 37.25 71.875 
z
" id="ArialMT-49"/>
      </defs>
      <g transform="translate(405.8225 322.5365)scale(0.16 -0.16)">
       <use xlink:href="#ArialMT-49"/>
       <use x="55.615234" xlink:href="#ArialMT-48"/>
      </g>
     </g>
    </g>
    <g id="text_13">
     <!-- $t$ -->
     <g transform="translate(233.64 342.600562)scale(0.18 -0.18)">
      <use transform="translate(0 0.40625)" xlink:href="#STIXGeneral-Italic-116"/>
     </g>
    </g>
   </g>
   <g id="matplotlib.axis_4">
    <g id="ytick_3">
     <g id="line2d_38">
      <g>
       <use style="stroke:#000000;stroke-width:1.5;" x="57.6" xlink:href="#m79ab72b709" y="273.403899"/>
      </g>
     </g>
     <g id="line2d_39">
      <g>
       <use style="stroke:#000000;stroke-width:1.5;" x="414.72" xlink:href="#m6fa6f076c1" y="273.403899"/>
      </g>
     </g>
     <g id="text_14">
      <!-- 1.4 -->
      <g transform="translate(31.86 279.130149)scale(0.16 -0.16)">
       <use xlink:href="#ArialMT-49"/>
       <use x="55.615234" xlink:href="#ArialMT-46"/>
       <use x="83.398438" xlink:href="#ArialMT-52"/>
      </g>
     </g>
    </g>
    <g id="ytick_4">
     <g id="line2d_40">
      <g>
       <use style="stroke:#000000;stroke-width:1.5;" x="57.6" xlink:href="#m79ab72b709" y="223.478457"/>
      </g>
     </g>
     <g id="line2d_41">
      <g>
       <use style="stroke:#000000;stroke-width:1.5;" x="414.72" xlink:href="#m6fa6f076c1" y="223.478457"/>
      </g>
     </g>
     <g id="text_15">
      <!-- 1.6 -->
      <g transform="translate(31.86 229.204707)scale(0.16 -0.16)">
       <use xlink:href="#ArialMT-49"/>
       <use x="55.615234" xlink:href="#ArialMT-46"/>
       <use x="83.398438" xlink:href="#ArialMT-54"/>
      </g>
     </g>
    </g>
    <g id="text_16">
     <!-- energy -->
     <defs>
      <path d="M 6.59375 0 
L 6.59375 51.859375 
L 14.5 51.859375 
L 14.5 44.484375 
Q 20.21875 53.03125 31 53.03125 
Q 35.6875 53.03125 39.625 51.34375 
Q 43.5625 49.65625 45.515625 46.921875 
Q 47.46875 44.1875 48.25 40.4375 
Q 48.734375 37.984375 48.734375 31.890625 
L 48.734375 0 
L 39.9375 0 
L 39.9375 31.546875 
Q 39.9375 36.921875 38.90625 39.578125 
Q 37.890625 42.234375 35.28125 43.8125 
Q 32.671875 45.40625 29.15625 45.40625 
Q 23.53125 45.40625 19.453125 41.84375 
Q 15.375 38.28125 15.375 28.328125 
L 15.375 0 
z
" id="ArialMT-110"/>
      <path d="M 6.5 0 
L 6.5 51.859375 
L 14.40625 51.859375 
L 14.40625 44 
Q 17.4375 49.515625 20 51.265625 
Q 22.5625 53.03125 25.640625 53.03125 
Q 30.078125 53.03125 34.671875 50.203125 
L 31.640625 42.046875 
Q 28.421875 43.953125 25.203125 43.953125 
Q 22.3125 43.953125 20.015625 42.21875 
Q 17.71875 40.484375 16.75 37.40625 
Q 15.28125 32.71875 15.28125 27.15625 
L 15.28125 0 
z
" id="ArialMT-114"/>
      <path d="M 4.984375 -4.296875 
L 13.53125 -5.5625 
Q 14.0625 -9.515625 16.5 -11.328125 
Q 19.78125 -13.765625 25.4375 -13.765625 
Q 31.546875 -13.765625 34.859375 -11.328125 
Q 38.1875 -8.890625 39.359375 -4.5 
Q 40.046875 -1.8125 39.984375 6.78125 
Q 34.234375 0 25.640625 0 
Q 14.9375 0 9.078125 7.71875 
Q 3.21875 15.4375 3.21875 26.21875 
Q 3.21875 33.640625 5.90625 39.90625 
Q 8.59375 46.1875 13.6875 49.609375 
Q 18.796875 53.03125 25.6875 53.03125 
Q 34.859375 53.03125 40.828125 45.609375 
L 40.828125 51.859375 
L 48.921875 51.859375 
L 48.921875 7.03125 
Q 48.921875 -5.078125 46.453125 -10.125 
Q 44 -15.1875 38.640625 -18.109375 
Q 33.296875 -21.046875 25.484375 -21.046875 
Q 16.21875 -21.046875 10.5 -16.875 
Q 4.78125 -12.703125 4.984375 -4.296875 
z
M 12.25 26.859375 
Q 12.25 16.65625 16.296875 11.96875 
Q 20.359375 7.28125 26.46875 7.28125 
Q 32.515625 7.28125 36.609375 11.9375 
Q 40.71875 16.609375 40.71875 26.5625 
Q 40.71875 36.078125 36.5 40.90625 
Q 32.28125 45.75 26.3125 45.75 
Q 20.453125 45.75 16.34375 40.984375 
Q 12.25 36.234375 12.25 26.859375 
z
" id="ArialMT-103"/>
      <path d="M 6.203125 -19.96875 
L 5.21875 -11.71875 
Q 8.109375 -12.5 10.25 -12.5 
Q 13.1875 -12.5 14.9375 -11.515625 
Q 16.703125 -10.546875 17.828125 -8.796875 
Q 18.65625 -7.46875 20.515625 -2.25 
Q 20.75 -1.515625 21.296875 -0.09375 
L 1.609375 51.859375 
L 11.078125 51.859375 
L 21.875 21.828125 
Q 23.96875 16.109375 25.640625 9.8125 
Q 27.15625 15.875 29.25 21.625 
L 40.328125 51.859375 
L 49.125 51.859375 
L 29.390625 -0.875 
Q 26.21875 -9.421875 24.46875 -12.640625 
Q 22.125 -17 19.09375 -19.015625 
Q 16.0625 -21.046875 11.859375 -21.046875 
Q 9.328125 -21.046875 6.203125 -19.96875 
z
" id="ArialMT-121"/>
     </defs>
     <g transform="translate(24.071562 274.620094)rotate(-90)scale(0.18 -0.18)">
      <use xlink:href="#ArialMT-101"/>
      <use x="55.615234" xlink:href="#ArialMT-110"/>
      <use x="111.230469" xlink:href="#ArialMT-101"/>
      <use x="166.845703" xlink:href="#ArialMT-114"/>
      <use x="200.146484" xlink:href="#ArialMT-103"/>
      <use x="255.761719" xlink:href="#ArialMT-121"/>
     </g>
    </g>
   </g>
   <g id="line2d_42">
    <path clip-path="url(#p551a155007)" d="M 57.6 241.803794 
L 60.2784 241.854972 
L 62.064 242.169977 
L 62.9568 242.539517 
L 63.8496 243.118401 
L 64.7424 243.955598 
L 65.6352 245.094013 
L 66.528 246.566037 
L 67.4208 248.389759 
L 68.3136 250.566814 
L 70.0992 255.901147 
L 71.8848 262.243652 
L 75.456 275.666397 
L 77.2416 281.454317 
L 78.1344 283.874156 
L 79.0272 285.916351 
L 79.92 287.553999 
L 80.8128 288.776205 
L 81.7056 289.587443 
L 82.5984 290.006057 
L 83.4912 290.061957 
L 84.384 289.793587 
L 85.2768 289.244416 
L 86.1696 288.459252 
L 87.9552 286.34558 
L 89.7408 283.71138 
L 91.5264 280.663987 
L 93.312 277.154713 
L 95.0976 273.041801 
L 96.8832 268.199831 
L 98.6688 262.634831 
L 104.0256 244.735432 
L 104.9184 242.27758 
L 105.8112 240.164755 
L 106.704 238.456649 
L 107.5968 237.200328 
L 108.4896 236.42819 
L 109.3824 236.156842 
L 110.2752 236.386888 
L 111.168 237.103555 
L 112.0608 238.278052 
L 112.9536 239.869496 
L 113.8464 241.827246 
L 115.632 246.605791 
L 118.3104 254.980006 
L 120.9888 263.381407 
L 122.7744 268.384389 
L 124.56 272.64282 
L 126.3456 276.047843 
L 127.2384 277.418617 
L 128.1312 278.568783 
L 129.024 279.501042 
L 129.9168 280.218708 
L 130.8096 280.724896 
L 131.7024 281.021946 
L 132.5952 281.111143 
L 133.488 280.992745 
L 134.3808 280.666325 
L 135.2736 280.131384 
L 136.1664 279.388203 
L 137.0592 278.438828 
L 137.952 277.288112 
L 139.7376 274.421857 
L 141.5232 270.917021 
L 144.2016 264.945118 
L 146.88 259.014944 
L 148.6656 255.620212 
L 149.5584 254.196176 
L 150.4512 252.989911 
L 151.344 252.020065 
L 152.2368 251.298325 
L 153.1296 250.829333 
L 154.0224 250.610935 
L 154.9152 250.634695 
L 155.808 250.88663 
L 156.7008 251.348113 
L 157.5936 251.996861 
L 159.3792 253.754938 
L 161.1648 255.947977 
L 167.4144 264.243675 
L 169.2 266.202088 
L 170.9856 267.821108 
L 172.7712 269.06114 
L 174.5568 269.900072 
L 176.3424 270.328364 
L 178.128 270.347417 
L 179.9136 269.97112 
L 181.6992 269.229397 
L 183.4848 268.171839 
L 185.2704 266.869391 
L 192.4128 261.167988 
L 194.1984 260.124445 
L 195.984 259.385401 
L 197.7696 258.980525 
L 199.5552 258.909405 
L 201.3408 259.144948 
L 203.1264 259.639402 
L 205.8048 260.731034 
L 213.84 264.512559 
L 216.5184 265.382447 
L 218.304 265.768348 
L 220.0896 265.98698 
L 221.8752 266.037511 
L 223.6608 265.92707 
L 226.3392 265.493854 
L 229.0176 264.812661 
L 237.9456 262.220504 
L 240.624 261.775575 
L 243.3024 261.603847 
L 245.9808 261.703925 
L 248.6592 262.033251 
L 252.2304 262.702989 
L 259.3728 264.090343 
L 262.944 264.489897 
L 265.6224 264.592612 
L 269.1936 264.468946 
L 272.7648 264.10467 
L 284.3712 262.657474 
L 287.9424 262.533997 
L 291.5136 262.633517 
L 295.9776 262.993856 
L 305.7984 263.886208 
L 310.2624 264.010212 
L 314.7264 263.896933 
L 320.976 263.480923 
L 328.1184 263.033628 
L 333.4752 262.950583 
L 338.832 263.110072 
L 353.1168 263.716031 
L 359.3664 263.656311 
L 379.008 263.168651 
L 387.936 263.377608 
L 397.7568 263.569407 
L 406.6848 263.484916 
L 414.72 263.324243 
L 414.72 263.324243 
" style="fill:none;stroke:#0000ff;stroke-linecap:square;stroke-width:2;"/>
   </g>
   <g id="line2d_43">
    <path clip-path="url(#p551a155007)" d="M 57.6 193.411928 
L 105.8112 193.415922 
L 414.72 193.422698 
L 414.72 193.422698 
" style="fill:none;stroke:#0000ff;stroke-dasharray:7.4,3.2;stroke-dashoffset:0;stroke-width:2;"/>
   </g>
   <g id="line2d_44">
    <path clip-path="url(#p551a155007)" d="M 57.6 243.784342 
L 60.2784 243.834831 
L 62.064 244.145014 
L 62.9568 244.50852 
L 63.8496 245.077345 
L 64.7424 245.898944 
L 65.6352 247.014485 
L 66.528 248.454468 
L 67.4208 250.235018 
L 68.3136 252.355863 
L 70.0992 257.532236 
L 71.8848 263.650142 
L 75.456 276.450015 
L 77.2416 281.88832 
L 78.1344 284.140598 
L 79.0272 286.027656 
L 79.92 287.528236 
L 80.8128 288.636621 
L 81.7056 289.361589 
L 82.5984 289.724482 
L 83.4912 289.756465 
L 84.384 289.495102 
L 85.2768 288.980527 
L 86.1696 288.251582 
L 87.9552 286.27868 
L 89.7408 283.743153 
L 91.5264 280.650557 
L 93.312 276.881665 
L 95.0976 272.299039 
L 96.8832 266.880266 
L 99.5616 257.669589 
L 102.24 248.618297 
L 104.0256 243.678673 
L 104.9184 241.73937 
L 105.8112 240.217484 
L 106.704 239.142351 
L 107.5968 238.527779 
L 108.4896 238.372596 
L 109.3824 238.662014 
L 110.2752 239.369604 
L 111.168 240.459629 
L 112.0608 241.889546 
L 112.9536 243.612468 
L 114.7392 247.741495 
L 117.4176 254.939605 
L 121.8816 267.145035 
L 123.6672 271.529839 
L 125.4528 275.448533 
L 127.2384 278.798034 
L 129.024 281.453902 
L 129.9168 282.473754 
L 130.8096 283.259032 
L 131.7024 283.787004 
L 132.5952 284.035888 
L 133.488 283.98657 
L 134.3808 283.624486 
L 135.2736 282.941499 
L 136.1664 281.937564 
L 137.0592 280.622023 
L 137.952 279.014343 
L 139.7376 275.050911 
L 141.5232 270.391701 
L 145.0944 260.785923 
L 146.88 256.720105 
L 147.7728 255.021089 
L 148.6656 253.578938 
L 149.5584 252.407427 
L 150.4512 251.511185 
L 151.344 250.886537 
L 152.2368 250.522696 
L 153.1296 250.403156 
L 154.0224 250.507218 
L 154.9152 250.811497 
L 155.808 251.291354 
L 157.5936 252.680249 
L 159.3792 254.493368 
L 162.0576 257.698974 
L 170.9856 269.01766 
L 172.7712 270.735719 
L 174.5568 272.007392 
L 175.4496 272.44179 
L 176.3424 272.727819 
L 177.2352 272.858595 
L 178.128 272.830783 
L 179.0208 272.644933 
L 179.9136 272.30564 
L 180.8064 271.821504 
L 182.592 270.471562 
L 184.3776 268.730925 
L 190.6272 262.021001 
L 192.4128 260.547792 
L 194.1984 259.442251 
L 195.984 258.72878 
L 197.7696 258.397454 
L 199.5552 258.414501 
L 201.3408 258.732689 
L 203.1264 259.29953 
L 204.912 260.062252 
L 207.5904 261.461755 
L 214.7328 265.470867 
L 216.5184 266.250468 
L 218.304 266.843808 
L 220.0896 267.217531 
L 221.8752 267.353654 
L 223.6608 267.251936 
L 225.4464 266.930124 
L 227.232 266.421991 
L 229.9104 265.413275 
L 236.16 262.848306 
L 238.8384 262.036904 
L 241.5168 261.539517 
L 243.3024 261.398178 
L 245.9808 261.463148 
L 248.6592 261.819345 
L 251.3376 262.394565 
L 262.0512 265.014233 
L 264.7296 265.323755 
L 267.408 265.397829 
L 270.0864 265.242206 
L 273.6576 264.745232 
L 285.264 262.742986 
L 287.9424 262.574112 
L 290.6208 262.576635 
L 294.192 262.818632 
L 298.656 263.376152 
L 305.7984 264.302489 
L 309.3696 264.555918 
L 312.9408 264.595158 
L 316.512 264.429139 
L 321.8688 263.928819 
L 329.0112 263.270173 
L 333.4752 263.107973 
L 337.9392 263.194358 
L 344.1888 263.603011 
L 352.224 264.1234 
L 357.5808 264.204713 
L 362.9376 264.040303 
L 377.2224 263.406095 
L 383.472 263.466264 
L 404.0064 263.977327 
L 413.8272 263.719583 
L 414.72 263.693645 
L 414.72 263.693645 
" style="fill:none;stroke:#ffa500;stroke-linecap:square;stroke-width:2;"/>
   </g>
   <g id="line2d_45">
    <path clip-path="url(#p551a155007)" d="M 57.6 192.122182 
L 104.9184 192.12617 
L 414.72 192.133092 
L 414.72 192.133092 
" style="fill:none;stroke:#ffa500;stroke-dasharray:7.4,3.2;stroke-dashoffset:0;stroke-width:2;"/>
   </g>
   <g id="line2d_46">
    <path clip-path="url(#p551a155007)" d="M 57.6 240.987934 
L 59.3856 240.998457 
L 61.1712 241.149797 
L 62.9568 241.764556 
L 64.7424 243.267821 
L 66.528 246.049256 
L 68.3136 250.329597 
L 70.0992 256.067721 
L 71.8848 262.931153 
L 75.456 277.589244 
L 77.2416 283.961834 
L 79.0272 288.888723 
L 80.8128 292.032188 
L 82.5984 293.318287 
L 84.384 292.898489 
L 86.1696 291.061528 
L 87.9552 288.11998 
L 89.7408 284.308448 
L 91.5264 279.729332 
L 93.312 274.358531 
L 95.0976 268.107847 
L 96.8832 260.933104 
L 100.4544 244.473597 
L 102.24 236.120049 
L 104.0256 228.671671 
L 105.8112 222.998552 
L 107.5968 219.891461 
L 109.3824 219.901406 
L 111.168 223.219176 
L 112.9536 229.623933 
L 114.7392 238.51452 
L 118.3104 260.132636 
L 120.096 270.914352 
L 121.8816 280.589795 
L 123.6672 288.64431 
L 125.4528 294.825044 
L 127.2384 299.083443 
L 129.024 301.480073 
L 130.8096 302.085818 
L 132.5952 300.914261 
L 134.3808 297.90741 
L 136.1664 292.97878 
L 137.952 286.100073 
L 139.7376 277.40239 
L 141.5232 267.256197 
L 145.0944 245.39766 
L 146.88 235.535816 
L 148.6656 227.665197 
L 150.4512 222.539651 
L 152.2368 220.58172 
L 154.0224 221.811771 
L 155.808 225.859752 
L 157.5936 232.054787 
L 159.3792 239.569829 
L 162.9504 255.428242 
L 164.736 262.662189 
L 166.5216 269.097275 
L 168.3072 274.737911 
L 170.0928 279.680902 
L 171.8784 284.001832 
L 173.664 287.665752 
L 175.4496 290.489656 
L 177.2352 292.169113 
L 179.0208 292.361289 
L 180.8064 290.797672 
L 182.592 287.392065 
L 184.3776 282.309584 
L 186.1632 275.972849 
L 189.7344 262.088106 
L 191.52 255.876182 
L 193.3056 250.815832 
L 195.0912 247.094109 
L 196.8768 244.624055 
L 198.6624 243.106859 
L 200.448 242.149318 
L 204.0192 240.68089 
L 205.8048 240.032698 
L 207.5904 239.734182 
L 209.376 240.215171 
L 211.1616 241.932826 
L 212.9472 245.229701 
L 214.7328 250.214275 
L 216.5184 256.697456 
L 221.8752 279.469753 
L 223.6608 285.780246 
L 225.4464 290.476592 
L 227.232 293.313706 
L 229.0176 294.301659 
L 230.8032 293.641167 
L 232.5888 291.618988 
L 234.3744 288.499026 
L 236.16 284.442288 
L 237.9456 279.480942 
L 239.7312 273.554794 
L 241.5168 266.598653 
L 243.3024 258.652247 
L 248.6592 232.541369 
L 250.4448 225.423337 
L 252.2304 220.530243 
L 254.016 218.568989 
L 255.8016 219.934056 
L 257.5872 224.619069 
L 259.3728 232.206988 
L 261.1584 241.942039 
L 266.5152 274.405306 
L 268.3008 283.487159 
L 270.0864 290.838538 
L 271.872 296.311755 
L 273.6576 299.917954 
L 275.4432 301.725714 
L 277.2288 301.773602 
L 279.0144 300.027443 
L 280.8 296.395459 
L 282.5856 290.796078 
L 284.3712 283.256283 
L 286.1568 274.007014 
L 291.5136 242.134844 
L 293.2992 233.106803 
L 295.0848 226.388313 
L 296.8704 222.57968 
L 298.656 221.910533 
L 300.4416 224.209574 
L 302.2272 228.957565 
L 304.0128 235.408087 
L 309.3696 257.365901 
L 311.1552 263.841693 
L 312.9408 269.614187 
L 314.7264 274.770185 
L 316.512 279.423155 
L 318.2976 283.606166 
L 320.0832 287.205454 
L 321.8688 289.954579 
L 323.6544 291.492209 
L 325.44 291.465615 
L 327.2256 289.647559 
L 329.0112 286.030963 
L 330.7968 280.871181 
L 332.5824 274.660098 
L 336.1536 261.658565 
L 337.9392 256.064772 
L 339.7248 251.572639 
L 341.5104 248.232586 
L 343.296 245.856015 
L 345.0816 244.107097 
L 350.4384 239.779468 
L 352.224 238.585706 
L 354.0096 238.028734 
L 355.7952 238.606484 
L 357.5808 240.763615 
L 359.3664 244.75448 
L 361.152 250.54755 
L 362.9376 257.797906 
L 366.5088 274.075518 
L 368.2944 281.563072 
L 370.08 287.713117 
L 371.8656 292.110034 
L 373.6512 294.603347 
L 375.4368 295.275199 
L 377.2224 294.354113 
L 379.008 292.104885 
L 380.7936 288.73161 
L 382.5792 284.323173 
L 384.3648 278.858797 
L 386.1504 272.272028 
L 387.936 264.552662 
L 389.7216 255.853057 
L 393.2928 237.330978 
L 395.0784 228.995341 
L 396.864 222.473107 
L 398.6496 218.593181 
L 400.4352 217.935631 
L 402.2208 220.710458 
L 404.0064 226.707436 
L 405.792 235.328933 
L 407.5776 245.69795 
L 411.1488 267.719892 
L 412.9344 277.634663 
L 414.72 286.033787 
L 416.5056 292.653168 
L 418.2912 297.431599 
L 420.0768 300.415212 
L 421.8624 301.658728 
L 423.648 301.156859 
L 425.4336 298.830073 
L 427.2192 294.568005 
L 429.0048 288.316442 
L 430.7904 280.17904 
L 432.576 270.498381 
L 436.1472 249.177563 
L 437.9328 239.338831 
L 439.7184 231.30283 
L 441.504 225.814445 
L 443.2896 223.297904 
L 445.0752 223.787927 
L 446.8608 226.941721 
L 448.6464 232.128994 
L 450.432 238.57529 
L 454.0032 252.365861 
L 455.7888 258.735734 
L 457.5744 264.505165 
L 459.36 269.730832 
L 461.8 276.197105 
L 461.8 276.197105 
" style="fill:none;stroke:#000000;stroke-dasharray:2,3.3;stroke-dashoffset:0;stroke-width:2;"/>
   </g>
   <g id="patch_9">
    <path d="M 57.6 307.584 
L 57.6 186.624 
" style="fill:none;stroke:#000000;stroke-linecap:square;stroke-linejoin:miter;stroke-width:1.5;"/>
   </g>
   <g id="patch_10">
    <path d="M 414.72 307.584 
L 414.72 186.624 
" style="fill:none;stroke:#000000;stroke-linecap:square;stroke-linejoin:miter;stroke-width:1.5;"/>
   </g>
   <g id="patch_11">
    <path d="M 57.6 307.584 
L 414.72 307.584 
" style="fill:none;stroke:#000000;stroke-linecap:square;stroke-linejoin:miter;stroke-width:1.5;"/>
   </g>
   <g id="patch_12">
    <path d="M 57.6 186.624 
L 414.72 186.624 
" style="fill:none;stroke:#000000;stroke-linecap:square;stroke-linejoin:miter;stroke-width:1.5;"/>
   </g>
   <g id="legend_2">
    <g id="patch_13">
     <path d="M 253.92 223.624 
L 407.72 223.624 
Q 409.72 223.624 409.72 221.624 
L 409.72 193.624 
Q 409.72 191.624 407.72 191.624 
L 253.92 191.624 
Q 251.92 191.624 251.92 193.624 
L 251.92 221.624 
Q 251.92 223.624 253.92 223.624 
z
" style="fill:#ffffff;opacity:0.8;stroke:#cccccc;stroke-linejoin:miter;"/>
    </g>
    <g id="line2d_47">
     <path d="M 255.92 199.424 
L 275.92 199.424 
" style="fill:none;stroke:#0000ff;stroke-linecap:square;stroke-width:2;"/>
    </g>
    <g id="line2d_48"/>
    <g id="text_17">
     <!-- $E_\mathrm{kin}$(2B) -->
     <defs>
      <path d="M 63.40625 65.296875 
L 60.296875 49.90625 
L 58.09375 50.09375 
Q 58.40625 52.59375 58.40625 54.703125 
Q 58.40625 59.203125 54.703125 60.59375 
Q 51 62 39.203125 62 
Q 35 62 33.703125 61.546875 
Q 32.40625 61.09375 31.90625 59.40625 
L 25.296875 36.09375 
L 33.09375 36.09375 
Q 39.703125 36.09375 41.890625 37.6875 
Q 44.09375 39.296875 47 45.796875 
L 48.796875 45.40625 
L 42 22.203125 
L 40 22.703125 
Q 40.703125 25.796875 40.703125 27.90625 
Q 40.703125 30.296875 40 31 
Q 38.296875 32.5 32.203125 32.5 
L 24.40625 32.5 
L 21.203125 21.296875 
Q 17.59375 8.59375 17.59375 6.703125 
Q 17.59375 3.296875 25.5 3.296875 
Q 38.40625 3.296875 45.796875 7.203125 
Q 49.59375 9.203125 55.203125 17 
L 56.796875 16.203125 
L 50.59375 0 
L -0.09375 0 
L -0.09375 1.59375 
Q 4.203125 2.40625 5.5 3.546875 
Q 6.796875 4.703125 8 9 
L 20.296875 53.203125 
Q 21.40625 56.90625 21.40625 59.59375 
Q 21.40625 61.59375 19.84375 62.4375 
Q 18.296875 63.296875 13.703125 63.703125 
L 13.703125 65.296875 
z
" id="STIXGeneral-Italic-69"/>
      <path d="M 50.5 0 
L 28.703125 0 
L 28.703125 1.5 
L 30.59375 1.5 
Q 32.703125 1.5 32.703125 3 
Q 32.703125 3.90625 31.59375 5.296875 
L 16.59375 25.09375 
L 16.59375 6.703125 
Q 16.59375 4.09375 17.84375 2.890625 
Q 19.09375 1.703125 22.09375 1.59375 
L 24.09375 1.5 
L 24.09375 0 
L 0.703125 0 
L 0.703125 1.5 
Q 6.09375 2.40625 7.140625 3.34375 
Q 8.203125 4.296875 8.203125 8.203125 
L 8.203125 56.40625 
Q 8.203125 60 7.296875 61.25 
Q 6.40625 62.5 3.90625 62.5 
Q 3.296875 62.5 0.703125 62.296875 
L 0.703125 63.90625 
L 3.703125 64.703125 
Q 9.703125 66.296875 16.203125 68.296875 
L 16.59375 68.09375 
L 16.59375 26.09375 
L 30.296875 38.296875 
Q 32.59375 40.40625 32.59375 41.796875 
Q 32.59375 42.796875 31.546875 43.140625 
Q 30.5 43.5 27.59375 43.59375 
L 27.59375 45 
L 48 45 
L 48 43.5 
Q 43 43.5 39.140625 41.34375 
Q 35.296875 39.203125 26.40625 30.90625 
L 23.5 28.203125 
L 38.796875 8.796875 
Q 44.203125 1.90625 50.5 1.5 
z
" id="STIXGeneral-Regular-107"/>
      <path d="M 18 63.203125 
Q 18 61 16.5 59.546875 
Q 15 58.09375 12.796875 58.09375 
Q 10.703125 58.09375 9.25 59.546875 
Q 7.796875 61 7.796875 63.203125 
Q 7.796875 65.296875 9.296875 66.796875 
Q 10.796875 68.296875 12.90625 68.296875 
Q 15.09375 68.296875 16.546875 66.796875 
Q 18 65.296875 18 63.203125 
z
M 25.296875 0 
L 1.59375 0 
L 1.59375 1.5 
Q 6.796875 1.796875 8.140625 3.296875 
Q 9.5 4.796875 9.5 10.40625 
L 9.5 33.09375 
Q 9.5 36.59375 8.796875 38 
Q 8.09375 39.40625 6.203125 39.40625 
Q 3.796875 39.40625 2 38.90625 
L 2 40.5 
L 17.5 46 
L 17.90625 45.59375 
L 17.90625 10.5 
Q 17.90625 4.90625 19.15625 3.40625 
Q 20.40625 1.90625 25.296875 1.5 
z
" id="STIXGeneral-Regular-105"/>
      <path d="M 48.5 0 
L 27.703125 0 
L 27.796875 1.5 
Q 31.5 1.796875 32.75 3.640625 
Q 34 5.5 34 10.5 
L 34 30.40625 
Q 34 40.5 26.703125 40.5 
Q 24.203125 40.5 22 39.296875 
Q 19.796875 38.09375 16.40625 34.796875 
L 16.40625 7.203125 
Q 16.40625 4.203125 17.75 3 
Q 19.09375 1.796875 22.90625 1.5 
L 22.90625 0 
L 1.796875 0 
L 1.796875 1.5 
Q 5.59375 1.796875 6.796875 3.34375 
Q 8 4.90625 8 9.40625 
L 8 33.703125 
Q 8 37.40625 7.296875 38.796875 
Q 6.59375 40.203125 4.5 40.203125 
Q 2.5 40.203125 1.59375 39.796875 
L 1.59375 41.5 
Q 8.59375 43.5 15.296875 46 
L 16.09375 45.703125 
L 16.09375 37.90625 
L 16.203125 37.90625 
Q 23.296875 46 30.59375 46 
Q 36.296875 46 39.34375 42 
Q 42.40625 38 42.40625 30.59375 
L 42.40625 8.5 
Q 42.40625 4.5 43.59375 3.203125 
Q 44.796875 1.90625 48.5 1.5 
z
" id="STIXGeneral-Regular-110"/>
      <path d="M 23.390625 -21.046875 
Q 16.109375 -11.859375 11.078125 0.4375 
Q 6.0625 12.75 6.0625 25.921875 
Q 6.0625 37.546875 9.8125 48.1875 
Q 14.203125 60.546875 23.390625 72.796875 
L 29.6875 72.796875 
Q 23.78125 62.640625 21.875 58.296875 
Q 18.890625 51.5625 17.1875 44.234375 
Q 15.09375 35.109375 15.09375 25.875 
Q 15.09375 2.390625 29.6875 -21.046875 
z
" id="ArialMT-40"/>
      <path d="M 12.359375 -21.046875 
L 6.0625 -21.046875 
Q 20.65625 2.390625 20.65625 25.875 
Q 20.65625 35.0625 18.5625 44.09375 
Q 16.890625 51.421875 13.921875 58.15625 
Q 12.015625 62.546875 6.0625 72.796875 
L 12.359375 72.796875 
Q 21.53125 60.546875 25.921875 48.1875 
Q 29.6875 37.546875 29.6875 25.921875 
Q 29.6875 12.75 24.625 0.4375 
Q 19.578125 -11.859375 12.359375 -21.046875 
z
" id="ArialMT-41"/>
     </defs>
     <g transform="translate(283.92 202.924)scale(0.1 -0.1)">
      <use transform="translate(0 0.203125)" xlink:href="#STIXGeneral-Italic-69"/>
      <use transform="translate(61.099991 -13.025)scale(0.7)" xlink:href="#STIXGeneral-Regular-107"/>
      <use transform="translate(96.09998 -13.025)scale(0.7)" xlink:href="#STIXGeneral-Regular-105"/>
      <use transform="translate(115.559972 -13.025)scale(0.7)" xlink:href="#STIXGeneral-Regular-110"/>
      <use transform="translate(154.969336 0.203125)" xlink:href="#ArialMT-40"/>
      <use transform="translate(188.270117 0.203125)" xlink:href="#ArialMT-50"/>
      <use transform="translate(243.885352 0.203125)" xlink:href="#ArialMT-66"/>
      <use transform="translate(310.58457 0.203125)" xlink:href="#ArialMT-41"/>
     </g>
    </g>
    <g id="line2d_49">
     <path d="M 255.92 213.924 
L 275.92 213.924 
" style="fill:none;stroke:#0000ff;stroke-dasharray:7.4,3.2;stroke-dashoffset:0;stroke-width:2;"/>
    </g>
    <g id="line2d_50"/>
    <g id="text_18">
     <!-- $E_\mathrm{tot}$(2B) -->
     <defs>
      <path d="M 26.59375 7.703125 
L 27.90625 6.59375 
Q 23.09375 -1 15.796875 -1 
Q 7 -1 7 11.703125 
L 7 41.796875 
L 1.703125 41.796875 
Q 1.296875 42.09375 1.296875 42.5 
Q 1.296875 43.296875 3 44.40625 
Q 6.796875 46.59375 12.703125 55.09375 
Q 12.90625 55.40625 13.65625 56.34375 
Q 14.40625 57.296875 14.703125 57.90625 
Q 15.40625 57.90625 15.40625 56.59375 
L 15.40625 45 
L 25.5 45 
L 25.5 41.796875 
L 15.40625 41.796875 
L 15.40625 13.203125 
Q 15.40625 8.40625 16.59375 6.296875 
Q 17.796875 4.203125 20.59375 4.203125 
Q 23.59375 4.203125 26.59375 7.703125 
z
" id="STIXGeneral-Regular-116"/>
      <path d="M 47 23.09375 
Q 47 12.59375 40.75 5.796875 
Q 34.5 -1 24.5 -1 
Q 15.296875 -1 9.09375 5.75 
Q 2.90625 12.5 2.90625 22.796875 
Q 2.90625 33.203125 9.09375 39.59375 
Q 15.296875 46 25.40625 46 
Q 34.703125 46 40.84375 39.640625 
Q 47 33.296875 47 23.09375 
z
M 38 20.40625 
Q 38 31.796875 33 38.203125 
Q 29 43.203125 23.5 43.203125 
Q 18.296875 43.203125 15.09375 38.953125 
Q 11.90625 34.703125 11.90625 27.296875 
Q 11.90625 14.5 17.203125 6.796875 
Q 20.59375 1.796875 26.203125 1.796875 
Q 31.703125 1.796875 34.84375 6.75 
Q 38 11.703125 38 20.40625 
z
" id="STIXGeneral-Regular-111"/>
     </defs>
     <g transform="translate(283.92 217.424)scale(0.1 -0.1)">
      <use transform="translate(0 0.203125)" xlink:href="#STIXGeneral-Italic-69"/>
      <use transform="translate(61.099991 -13.025)scale(0.7)" xlink:href="#STIXGeneral-Regular-116"/>
      <use transform="translate(80.559982 -13.025)scale(0.7)" xlink:href="#STIXGeneral-Regular-111"/>
      <use transform="translate(115.559972 -13.025)scale(0.7)" xlink:href="#STIXGeneral-Regular-116"/>
      <use transform="translate(139.429338 0.203125)" xlink:href="#ArialMT-40"/>
      <use transform="translate(172.730119 0.203125)" xlink:href="#ArialMT-50"/>
      <use transform="translate(228.345354 0.203125)" xlink:href="#ArialMT-66"/>
      <use transform="translate(295.044572 0.203125)" xlink:href="#ArialMT-41"/>
     </g>
    </g>
    <g id="line2d_51">
     <path d="M 338.32 199.424 
L 358.32 199.424 
" style="fill:none;stroke:#ffa500;stroke-linecap:square;stroke-width:2;"/>
    </g>
    <g id="line2d_52"/>
    <g id="text_19">
     <!-- $E_\mathrm{kin}$(GW) -->
     <g transform="translate(366.32 202.924)scale(0.1 -0.1)">
      <use transform="translate(0 0.203125)" xlink:href="#STIXGeneral-Italic-69"/>
      <use transform="translate(61.099991 -13.025)scale(0.7)" xlink:href="#STIXGeneral-Regular-107"/>
      <use transform="translate(96.09998 -13.025)scale(0.7)" xlink:href="#STIXGeneral-Regular-105"/>
      <use transform="translate(115.559972 -13.025)scale(0.7)" xlink:href="#STIXGeneral-Regular-110"/>
      <use transform="translate(154.969336 0.203125)" xlink:href="#ArialMT-40"/>
      <use transform="translate(188.270117 0.203125)" xlink:href="#ArialMT-71"/>
      <use transform="translate(266.05332 0.203125)" xlink:href="#ArialMT-87"/>
      <use transform="translate(360.438086 0.203125)" xlink:href="#ArialMT-41"/>
     </g>
    </g>
    <g id="line2d_53">
     <path d="M 338.32 213.924 
L 358.32 213.924 
" style="fill:none;stroke:#ffa500;stroke-dasharray:7.4,3.2;stroke-dashoffset:0;stroke-width:2;"/>
    </g>
    <g id="line2d_54"/>
    <g id="text_20">
     <!-- $E_\mathrm{tot}$(GW) -->
     <g transform="translate(366.32 217.424)scale(0.1 -0.1)">
      <use transform="translate(0 0.203125)" xlink:href="#STIXGeneral-Italic-69"/>
      <use transform="translate(61.099991 -13.025)scale(0.7)" xlink:href="#STIXGeneral-Regular-116"/>
      <use transform="translate(80.559982 -13.025)scale(0.7)" xlink:href="#STIXGeneral-Regular-111"/>
      <use transform="translate(115.559972 -13.025)scale(0.7)" xlink:href="#STIXGeneral-Regular-116"/>
      <use transform="translate(139.429338 0.203125)" xlink:href="#ArialMT-40"/>
      <use transform="translate(172.730119 0.203125)" xlink:href="#ArialMT-71"/>
      <use transform="translate(250.513322 0.203125)" xlink:href="#ArialMT-87"/>
      <use transform="translate(344.898088 0.203125)" xlink:href="#ArialMT-41"/>
     </g>
    </g>
   </g>
  </g>
 </g>
 <defs>
  <clipPath id="p64b4f8cd9f">
   <rect height="120.96" width="357.12" x="57.6" y="41.472"/>
  </clipPath>
  <clipPath id="p551a155007">
   <rect height="120.96" width="357.12" x="57.6" y="186.624"/>
  </clipPath>
 </defs>
</svg>
